{"glyphs":{"0":{"ha":764,"x_min":83,"x_max":681,"o":"m 357 -18 q 224 12 288 -18 q 122 106 161 42 q 83 272 83 171 q 124 454 83 374 q 238 582 165 535 q 407 629 311 629 q 540 599 478 629 q 642 506 603 569 q 681 340 681 442 q 640 158 681 239 q 526 29 599 76 q 357 -18 454 -18 m 385 122 q 519 172 463 124 q 576 308 576 221 q 548 408 576 368 q 474 470 519 449 q 378 490 429 492 q 246 439 301 489 q 189 306 190 389 q 217 203 189 244 q 290 142 244 163 q 385 122 335 122 z "},"1":{"ha":485,"x_min":26,"x_max":411,"o":"m 279 -12 q 213 12 236 -12 q 188 106 189 36 q 201 253 186 165 q 243 451 217 342 q 169 401 210 425 q 99 378 129 378 q 45 406 64 378 q 26 469 26 435 q 38 510 26 499 q 64 522 50 521 q 200 557 146 529 q 303 621 254 585 q 335 633 319 633 q 365 624 350 633 q 381 604 381 615 q 377 585 381 599 q 368 551 374 571 q 340 427 354 506 q 326 247 326 349 q 340 155 326 185 q 389 110 353 125 q 406 101 400 106 q 411 85 411 96 q 399 50 411 74 q 359 7 388 26 q 279 -12 331 -12 z "},"2":{"ha":610,"x_min":19,"x_max":557,"o":"m 275 -12 q 119 -2 182 -12 q 36 39 56 8 q 25 64 31 47 q 19 94 19 81 q 57 151 19 138 q 178 215 119 182 q 285 292 236 249 q 369 421 369 365 q 347 465 369 449 q 283 482 325 482 q 215 474 251 482 q 150 450 178 465 q 120 434 133 440 q 96 428 107 428 q 68 446 78 428 q 58 485 58 464 q 72 531 58 508 q 119 576 85 554 q 205 615 156 600 q 310 629 254 629 q 452 587 397 629 q 507 471 507 544 q 486 380 507 424 q 433 300 465 336 q 322 201 386 244 q 199 131 258 158 q 257 128 222 129 q 313 128 292 128 q 429 142 394 128 q 482 176 464 157 q 510 194 499 194 q 541 173 525 194 q 557 114 557 151 q 487 15 557 42 q 275 -12 417 -12 z "},"3":{"ha":601,"x_min":-21,"x_max":532,"o":"m 193 -299 q 42 -259 104 -299 q -21 -146 -21 -219 q 4 -72 -21 -93 q 49 -50 29 -50 q 69 -58 60 -50 q 89 -81 78 -65 q 149 -127 107 -103 q 258 -151 190 -151 q 378 -119 332 -151 q 425 -29 425 -87 q 399 43 425 17 q 342 83 374 69 q 242 107 297 100 q 222 113 231 108 q 207 135 214 118 q 194 190 194 163 q 203 215 194 206 q 225 232 211 225 q 288 265 253 244 q 349 315 324 285 q 375 390 375 346 q 340 462 375 442 q 260 482 304 482 q 179 467 215 482 q 124 442 143 453 q 86 425 99 425 q 58 446 67 425 q 50 485 50 467 q 63 531 50 508 q 108 575 76 554 q 202 618 153 607 q 296 629 251 629 q 456 578 399 629 q 513 446 513 528 q 474 317 513 376 q 381 224 435 257 q 492 151 453 204 q 532 17 532 99 q 487 -145 532 -74 q 365 -258 442 -217 q 193 -299 289 -299 z "},"4":{"ha":683,"x_min":14,"x_max":635,"o":"m 432 -296 q 371 -274 393 -296 q 347 -192 349 -251 q 351 -110 347 -160 q 364 -15 356 -61 l 115 -15 q 40 13 65 -15 q 14 78 14 42 q 22 124 14 100 q 44 174 31 147 q 147 331 85 254 q 275 474 208 408 q 396 581 342 539 q 456 619 431 606 q 503 633 481 633 q 541 611 532 633 q 550 550 550 589 q 540 407 550 490 q 517 242 529 324 q 511 193 514 218 q 506 140 508 168 q 545 142 524 142 q 593 143 567 143 q 622 137 608 143 q 635 108 635 131 q 623 58 635 86 q 592 8 611 29 q 553 -14 574 -14 l 482 -14 l 482 -44 q 492 -122 482 -86 q 535 -174 501 -158 q 554 -199 554 -182 q 543 -234 554 -211 q 506 -276 532 -257 q 432 -296 479 -296 m 194 128 l 385 138 q 394 202 389 163 q 406 283 400 242 q 415 358 411 324 q 418 407 418 392 q 406 429 418 429 q 374 415 394 429 q 264 322 324 379 q 158 183 204 265 q 150 158 150 171 q 163 135 150 143 q 194 128 175 126 z "},"5":{"ha":628,"x_min":42,"x_max":567,"o":"m 240 -294 q 142 -278 188 -294 q 69 -227 96 -261 q 42 -142 42 -193 q 66 -67 42 -89 q 108 -46 90 -46 q 147 -75 125 -46 q 216 -127 175 -110 q 301 -144 257 -144 q 413 -108 375 -144 q 453 -15 451 -71 q 413 94 454 46 q 310 169 372 142 q 183 197 247 197 q 146 194 160 197 q 121 192 132 192 q 89 201 103 192 q 75 226 75 211 q 79 250 75 236 q 91 349 83 272 q 99 581 99 426 q 106 613 99 600 q 132 625 114 625 q 144 624 136 625 q 160 622 153 624 q 228 617 185 619 q 319 614 271 614 q 420 620 385 614 q 472 635 456 626 q 494 653 488 644 q 518 669 510 669 q 548 649 533 669 q 563 585 563 628 q 510 492 563 513 q 364 472 458 472 q 278 475 321 472 q 211 481 236 478 l 190 339 q 329 323 260 340 q 450 269 399 306 q 539 165 511 226 q 567 39 567 104 q 524 -126 567 -50 q 407 -249 481 -203 q 240 -294 333 -294 z "},"6":{"ha":699,"x_min":74,"x_max":615,"o":"m 319 -18 q 183 23 236 -18 q 104 136 129 64 q 76 301 79 208 q 111 537 74 428 q 217 729 149 646 q 371 858 285 813 q 457 892 411 879 q 539 904 503 906 q 581 890 569 903 q 592 851 592 876 q 584 802 592 828 q 563 759 576 776 q 532 742 550 742 q 513 744 521 742 q 500 747 507 746 q 482 747 493 747 q 317 687 392 747 q 210 519 242 626 q 293 567 250 553 q 383 582 336 582 q 551 513 489 582 q 614 319 613 443 q 578 151 615 228 q 475 28 542 74 q 319 -18 408 -18 m 357 126 q 469 170 426 126 q 511 283 513 214 q 463 398 510 357 q 346 439 415 439 q 262 422 301 439 q 188 375 222 406 q 199 254 182 311 q 257 162 217 197 q 357 126 297 126 z "},"7":{"ha":633,"x_min":24,"x_max":601,"o":"m 199 -294 q 138 -273 158 -294 q 117 -203 117 -251 q 133 -81 117 -143 q 178 44 150 -19 q 299 270 226 153 q 449 485 371 388 q 345 473 401 478 q 234 466 289 468 q 138 464 179 464 q 86 466 107 464 q 50 475 65 468 q 24 533 24 488 q 38 607 24 575 q 75 639 53 639 q 86 638 79 639 q 108 632 93 636 q 218 614 164 618 q 336 610 272 610 q 443 614 396 610 q 519 621 490 618 q 557 625 549 625 q 589 605 576 625 q 601 569 601 585 q 590 536 601 553 q 433 292 506 415 q 322 74 361 169 q 297 -7 306 31 q 288 -76 288 -44 q 296 -125 288 -107 q 314 -158 304 -143 q 326 -181 321 -171 q 332 -203 332 -192 q 315 -242 332 -221 q 269 -279 299 -264 q 199 -294 239 -294 z "},"8":{"ha":679,"x_min":58,"x_max":610,"o":"m 300 -18 q 159 14 213 -18 q 82 97 106 46 q 58 204 58 147 q 82 315 58 267 q 141 397 106 363 q 213 451 176 431 q 143 517 172 474 q 114 625 114 561 q 120 678 114 656 q 136 717 126 700 q 128 714 133 715 q 119 713 124 713 q 99 734 106 713 q 93 772 93 756 q 106 815 93 799 q 131 840 118 831 q 219 886 158 860 q 361 913 279 913 q 538 854 472 913 q 604 700 604 796 q 567 565 604 625 q 474 467 531 504 q 568 388 526 440 q 610 254 610 336 q 569 115 610 176 q 458 17 528 53 q 300 -18 389 -18 m 386 515 q 457 570 431 540 q 483 650 483 600 q 446 742 483 710 q 347 775 408 775 q 295 769 319 775 q 250 753 271 763 q 231 685 231 722 q 278 585 231 625 q 386 515 326 544 m 361 117 q 460 142 417 117 q 503 221 503 168 q 478 290 503 260 q 410 346 453 321 q 351 376 383 363 q 286 401 319 390 q 217 340 243 376 q 190 257 190 304 q 215 178 190 210 q 280 132 240 147 q 361 117 319 117 z "},"9":{"ha":699,"x_min":69,"x_max":611,"o":"m 146 -293 q 103 -279 115 -292 q 92 -243 92 -267 q 99 -192 92 -218 q 120 -148 107 -165 q 150 -131 133 -131 q 159 -131 154 -131 q 169 -133 164 -132 q 183 -135 176 -135 q 200 -136 189 -136 q 371 -75 293 -136 q 481 96 449 -14 q 398 45 440 61 q 307 29 356 29 q 138 99 201 29 q 71 288 74 168 q 105 460 69 383 q 206 583 140 538 q 358 629 271 629 q 497 587 443 629 q 579 472 551 544 q 608 307 607 400 q 573 73 611 182 q 467 -119 535 -36 q 314 -249 400 -201 q 228 -282 274 -269 q 146 -293 182 -294 m 339 172 q 422 189 383 172 q 496 236 461 206 q 487 356 504 300 q 429 448 469 413 q 326 483 389 483 q 215 438 258 483 q 174 324 172 392 q 223 213 175 253 q 339 172 271 172 z "},"A":{"ha":832,"x_min":14,"x_max":822,"o":"m 714 -15 q 641 22 671 -15 q 583 143 611 58 q 560 224 569 185 q 547 301 551 264 q 515 265 529 274 q 472 256 500 256 q 328 258 404 256 q 192 261 251 260 q 187 210 189 236 q 185 160 185 185 q 187 115 185 138 q 190 72 189 93 q 160 10 194 33 q 74 -14 125 -14 q 29 25 29 -14 q 42 96 29 49 q 53 151 49 128 q 57 188 57 174 q 33 240 57 226 q 14 269 14 251 q 22 310 14 286 q 42 353 29 333 q 65 382 54 374 q 89 392 75 388 q 124 397 103 396 q 245 666 178 553 q 389 841 313 779 q 544 903 465 903 q 615 870 593 903 q 638 761 638 838 l 638 699 q 658 440 638 558 q 710 249 679 322 q 794 121 740 171 q 817 97 811 107 q 822 75 822 86 q 806 33 822 54 q 765 -1 790 13 q 714 -15 740 -15 m 233 406 q 353 410 301 408 q 439 413 404 413 l 536 413 q 531 494 533 451 q 529 585 529 538 l 529 665 q 520 719 529 706 q 486 732 511 732 q 350 643 418 732 q 233 406 282 554 z "},"Á":{"ha":832,"x_min":14,"x_max":822,"o":"m 714 -15 q 641 22 671 -15 q 583 143 611 58 q 560 224 569 185 q 547 301 551 264 q 515 265 529 274 q 472 256 500 256 q 328 258 404 256 q 192 261 251 260 q 187 210 189 236 q 185 160 185 185 q 187 115 185 138 q 190 72 189 93 q 160 10 194 33 q 74 -14 125 -14 q 29 25 29 -14 q 42 96 29 49 q 53 151 49 128 q 57 188 57 174 q 33 240 57 226 q 14 269 14 251 q 22 310 14 286 q 42 353 29 333 q 65 382 54 374 q 89 392 75 388 q 124 397 103 396 q 245 666 178 553 q 389 841 313 779 q 544 903 465 903 q 615 870 593 903 q 638 761 638 838 l 638 699 q 658 440 638 558 q 710 249 679 322 q 794 121 740 171 q 817 97 811 107 q 822 75 822 86 q 806 33 822 54 q 765 -1 790 13 q 714 -15 740 -15 m 233 406 q 353 410 301 408 q 439 413 404 413 l 536 413 q 531 494 533 451 q 529 585 529 538 l 529 665 q 520 719 529 706 q 486 732 511 732 q 350 643 418 732 q 233 406 282 554 m 481 964 q 449 994 449 964 q 457 1025 449 1011 q 517 1115 486 1071 q 582 1193 549 1160 q 646 1225 614 1225 q 692 1204 668 1225 q 717 1154 717 1183 q 710 1126 717 1142 q 688 1096 703 1110 q 605 1031 653 1061 q 507 972 557 1000 q 481 964 493 964 z "},"Ă":{"ha":832,"x_min":14,"x_max":822,"o":"m 714 -15 q 641 22 671 -15 q 583 143 611 58 q 560 224 569 185 q 547 301 551 264 q 515 265 529 274 q 472 256 500 256 q 328 258 404 256 q 192 261 251 260 q 187 210 189 236 q 185 160 185 185 q 187 115 185 138 q 190 72 189 93 q 160 10 194 33 q 74 -14 125 -14 q 29 25 29 -14 q 42 96 29 49 q 53 151 49 128 q 57 188 57 174 q 33 240 57 226 q 14 269 14 251 q 22 310 14 286 q 42 353 29 333 q 65 382 54 374 q 89 392 75 388 q 124 397 103 396 q 245 666 178 553 q 389 841 313 779 q 544 903 465 903 q 615 870 593 903 q 638 761 638 838 l 638 699 q 658 440 638 558 q 710 249 679 322 q 794 121 740 171 q 817 97 811 107 q 822 75 822 86 q 806 33 822 54 q 765 -1 790 13 q 714 -15 740 -15 m 233 406 q 353 410 301 408 q 439 413 404 413 l 536 413 q 531 494 533 451 q 529 585 529 538 l 529 665 q 520 719 529 706 q 486 732 511 732 q 350 643 418 732 q 233 406 282 554 m 507 975 q 372 1028 422 975 q 321 1158 321 1082 q 335 1212 322 1196 q 367 1228 347 1228 q 404 1194 394 1228 q 444 1135 417 1158 q 517 1111 471 1111 q 591 1135 563 1111 q 632 1194 619 1158 q 671 1228 644 1228 q 704 1210 694 1228 q 714 1163 714 1192 q 686 1069 714 1111 q 611 1001 658 1026 q 507 975 564 975 z "},"Â":{"ha":832,"x_min":14,"x_max":822,"o":"m 714 -15 q 641 22 671 -15 q 583 143 611 58 q 560 224 569 185 q 547 301 551 264 q 515 265 529 274 q 472 256 500 256 q 328 258 404 256 q 192 261 251 260 q 187 210 189 236 q 185 160 185 185 q 187 115 185 138 q 190 72 189 93 q 160 10 194 33 q 74 -14 125 -14 q 29 25 29 -14 q 42 96 29 49 q 53 151 49 128 q 57 188 57 174 q 33 240 57 226 q 14 269 14 251 q 22 310 14 286 q 42 353 29 333 q 65 382 54 374 q 89 392 75 388 q 124 397 103 396 q 245 666 178 553 q 389 841 313 779 q 544 903 465 903 q 615 870 593 903 q 638 761 638 838 l 638 699 q 658 440 638 558 q 710 249 679 322 q 794 121 740 171 q 817 97 811 107 q 822 75 822 86 q 806 33 822 54 q 765 -1 790 13 q 714 -15 740 -15 m 233 406 q 353 410 301 408 q 439 413 404 413 l 536 413 q 531 494 533 451 q 529 585 529 538 l 529 665 q 520 719 529 706 q 486 732 511 732 q 350 643 418 732 q 233 406 282 554 m 340 971 q 320 980 329 971 q 311 1003 311 989 q 315 1022 311 1011 q 326 1046 318 1033 q 369 1102 342 1071 q 423 1161 396 1133 q 464 1201 450 1189 q 531 1231 501 1231 q 565 1222 549 1231 q 592 1201 581 1213 q 629 1160 606 1188 q 676 1102 653 1133 q 711 1043 699 1071 q 720 1024 718 1033 q 722 1007 722 1014 q 712 983 722 993 q 688 972 701 972 q 675 974 682 972 q 661 981 668 975 q 622 1006 647 988 q 570 1048 597 1025 q 522 1089 543 1071 q 435 1025 481 1058 q 368 981 390 992 q 340 971 353 971 z "},"Ä":{"ha":832,"x_min":14,"x_max":822,"o":"m 714 -15 q 641 22 671 -15 q 583 143 611 58 q 560 224 569 185 q 547 301 551 264 q 515 265 529 274 q 472 256 500 256 q 328 258 404 256 q 192 261 251 260 q 187 210 189 236 q 185 160 185 185 q 187 115 185 138 q 190 72 189 93 q 160 10 194 33 q 74 -14 125 -14 q 29 25 29 -14 q 42 96 29 49 q 53 151 49 128 q 57 188 57 174 q 33 240 57 226 q 14 269 14 251 q 22 310 14 286 q 42 353 29 333 q 65 382 54 374 q 89 392 75 388 q 124 397 103 396 q 245 666 178 553 q 389 841 313 779 q 544 903 465 903 q 615 870 593 903 q 638 761 638 838 l 638 699 q 658 440 638 558 q 710 249 679 322 q 794 121 740 171 q 817 97 811 107 q 822 75 822 86 q 806 33 822 54 q 765 -1 790 13 q 714 -15 740 -15 m 233 406 q 353 410 301 408 q 439 413 404 413 l 536 413 q 531 494 533 451 q 529 585 529 538 l 529 665 q 520 719 529 706 q 486 732 511 732 q 350 643 418 732 q 233 406 282 554 m 371 1000 q 313 1021 335 1000 q 292 1081 292 1042 q 317 1147 292 1121 q 382 1172 343 1172 q 440 1151 418 1172 q 461 1092 461 1131 q 437 1026 461 1053 q 371 1000 413 1000 m 647 1000 q 588 1021 610 1000 q 567 1081 567 1042 q 592 1147 567 1121 q 658 1172 618 1172 q 715 1151 694 1172 q 736 1092 736 1131 q 712 1026 736 1053 q 647 1000 688 1000 z "},"À":{"ha":832,"x_min":14,"x_max":822,"o":"m 714 -15 q 641 22 671 -15 q 583 143 611 58 q 560 224 569 185 q 547 301 551 264 q 515 265 529 274 q 472 256 500 256 q 328 258 404 256 q 192 261 251 260 q 187 210 189 236 q 185 160 185 185 q 187 115 185 138 q 190 72 189 93 q 160 10 194 33 q 74 -14 125 -14 q 29 25 29 -14 q 42 96 29 49 q 53 151 49 128 q 57 188 57 174 q 33 240 57 226 q 14 269 14 251 q 22 310 14 286 q 42 353 29 333 q 65 382 54 374 q 89 392 75 388 q 124 397 103 396 q 245 666 178 553 q 389 841 313 779 q 544 903 465 903 q 615 870 593 903 q 638 761 638 838 l 638 699 q 658 440 638 558 q 710 249 679 322 q 794 121 740 171 q 817 97 811 107 q 822 75 822 86 q 806 33 822 54 q 765 -1 790 13 q 714 -15 740 -15 m 233 406 q 353 410 301 408 q 439 413 404 413 l 536 413 q 531 494 533 451 q 529 585 529 538 l 529 665 q 520 719 529 706 q 486 732 511 732 q 350 643 418 732 q 233 406 282 554 m 539 964 q 513 972 528 964 q 415 1031 463 1000 q 331 1096 367 1061 q 310 1126 317 1110 q 303 1154 303 1142 q 327 1204 303 1183 q 374 1225 351 1225 q 438 1193 406 1225 q 502 1115 471 1160 q 563 1025 533 1071 q 568 1010 565 1018 q 571 994 571 1001 q 539 964 571 964 z "},"Å":{"ha":832,"x_min":14,"x_max":822,"o":"m 714 -15 q 641 22 671 -15 q 583 143 611 58 q 560 224 569 185 q 547 301 551 264 q 515 265 529 274 q 472 256 500 256 q 328 258 404 256 q 192 261 251 260 q 187 210 189 236 q 185 160 185 185 q 187 115 185 138 q 190 72 189 93 q 160 10 194 33 q 74 -14 125 -14 q 29 25 29 -14 q 42 96 29 49 q 53 151 49 128 q 57 188 57 174 q 33 240 57 226 q 14 269 14 251 q 22 310 14 286 q 42 353 29 333 q 65 382 54 374 q 89 392 75 388 q 124 397 103 396 q 245 666 178 553 q 389 841 313 779 q 544 903 465 903 q 615 870 593 903 q 638 761 638 838 l 638 699 q 658 440 638 558 q 710 249 679 322 q 794 121 740 171 q 817 97 811 107 q 822 75 822 86 q 806 33 822 54 q 765 -1 790 13 q 714 -15 740 -15 m 233 406 q 353 410 301 408 q 439 413 404 413 l 536 413 q 531 494 533 451 q 529 585 529 538 l 529 665 q 520 719 529 706 q 486 732 511 732 q 350 643 418 732 q 233 406 282 554 m 504 967 q 396 1005 436 967 q 356 1111 356 1043 q 402 1232 356 1186 q 525 1278 449 1278 q 631 1240 592 1278 q 671 1135 671 1201 q 626 1014 671 1061 q 504 967 582 967 m 524 1065 q 569 1080 551 1065 q 588 1117 588 1094 q 565 1161 588 1143 q 504 1179 543 1179 q 457 1164 475 1179 q 439 1125 439 1149 q 462 1082 439 1099 q 524 1065 485 1065 z "},"Ã":{"ha":832,"x_min":14,"x_max":822,"o":"m 714 -15 q 641 22 671 -15 q 583 143 611 58 q 560 224 569 185 q 547 301 551 264 q 515 265 529 274 q 472 256 500 256 q 328 258 404 256 q 192 261 251 260 q 187 210 189 236 q 185 160 185 185 q 187 115 185 138 q 190 72 189 93 q 160 10 194 33 q 74 -14 125 -14 q 29 25 29 -14 q 42 96 29 49 q 53 151 49 128 q 57 188 57 174 q 33 240 57 226 q 14 269 14 251 q 22 310 14 286 q 42 353 29 333 q 65 382 54 374 q 89 392 75 388 q 124 397 103 396 q 245 666 178 553 q 389 841 313 779 q 544 903 465 903 q 615 870 593 903 q 638 761 638 838 l 638 699 q 658 440 638 558 q 710 249 679 322 q 794 121 740 171 q 817 97 811 107 q 822 75 822 86 q 806 33 822 54 q 765 -1 790 13 q 714 -15 740 -15 m 233 406 q 353 410 301 408 q 439 413 404 413 l 536 413 q 531 494 533 451 q 529 585 529 538 l 529 665 q 520 719 529 706 q 486 732 511 732 q 350 643 418 732 q 233 406 282 554 m 336 994 q 306 1015 317 994 q 294 1060 294 1035 q 328 1138 294 1101 q 422 1175 361 1175 q 531 1147 472 1175 q 576 1126 553 1136 q 621 1115 600 1115 q 652 1128 643 1115 q 664 1154 661 1140 q 672 1173 667 1165 q 689 1181 678 1181 q 720 1160 707 1181 q 733 1114 733 1140 q 697 1032 733 1069 q 604 994 661 994 q 553 1002 579 994 q 500 1022 526 1010 q 450 1047 474 1038 q 407 1056 426 1056 q 376 1044 385 1056 q 364 1021 367 1033 q 356 1003 361 1011 q 336 994 350 994 z "},"Æ":{"ha":1142,"x_min":14,"x_max":1094,"o":"m 779 -18 q 579 28 639 -18 q 519 183 519 74 q 522 228 519 199 q 531 297 525 258 q 475 254 504 254 q 192 258 336 254 q 185 213 186 240 q 183 150 183 185 l 183 72 q 149 10 182 33 q 63 -14 115 -14 q 19 24 19 -14 q 36 96 19 49 q 54 188 54 158 q 32 240 54 228 q 14 269 14 250 q 24 307 14 283 q 47 352 33 331 q 71 382 60 374 q 128 397 92 393 q 335 770 219 638 q 565 903 450 903 q 636 871 613 903 q 706 881 657 876 q 810 890 754 886 q 907 893 867 893 q 1058 888 1043 893 q 1094 849 1094 882 q 1065 772 1094 810 q 1033 742 1049 750 q 992 735 1017 733 q 918 739 963 738 q 813 740 874 740 q 681 736 742 740 q 683 712 683 724 q 683 686 683 700 q 682 638 683 668 q 678 574 681 607 q 672 515 676 542 q 921 524 767 524 q 990 518 975 524 q 1007 488 1007 514 q 980 410 1007 444 q 914 376 953 375 q 801 381 867 379 q 650 382 735 382 q 643 315 646 343 q 640 275 640 286 q 679 169 640 200 q 807 138 718 138 q 1015 183 911 138 q 1044 194 1036 194 q 1074 173 1060 194 q 1088 124 1088 151 q 1040 42 1088 72 q 924 -4 993 11 q 853 -15 889 -11 q 779 -18 817 -18 m 238 406 q 394 411 321 410 q 549 413 468 413 q 557 560 557 474 q 549 688 557 654 q 503 732 538 732 q 361 645 432 732 q 238 406 290 558 z "},"B":{"ha":747,"x_min":60,"x_max":688,"o":"m 299 -17 q 133 38 183 -17 q 83 183 83 93 q 88 240 83 207 q 99 321 92 274 q 115 442 110 389 q 121 560 121 496 q 117 679 121 633 q 82 665 93 665 q 60 715 60 665 q 77 781 60 754 q 135 832 94 808 q 237 875 175 857 q 369 893 299 893 q 544 840 485 893 q 604 701 604 788 q 581 599 604 646 q 514 515 557 551 q 688 315 688 488 q 635 146 688 222 q 492 26 582 69 q 299 -17 404 -17 m 354 138 q 467 155 417 138 q 549 206 518 172 q 579 283 579 239 q 539 364 579 340 q 446 388 499 388 q 390 383 424 388 q 358 381 376 381 q 308 406 328 381 q 288 468 288 431 q 311 501 288 494 q 481 656 481 546 q 360 743 481 743 q 250 728 315 743 q 243 585 250 660 q 222 431 236 511 q 209 337 214 375 q 204 275 204 299 q 242 169 204 200 q 354 138 279 138 z "},"C":{"ha":788,"x_min":63,"x_max":758,"o":"m 390 -18 q 217 26 292 -18 q 103 153 143 71 q 63 347 63 235 q 97 553 63 454 q 197 729 132 651 q 354 853 263 807 q 561 899 446 899 q 703 872 647 899 q 758 794 758 846 q 745 745 758 769 q 711 704 732 721 q 668 688 690 688 q 646 694 654 688 q 572 731 608 719 q 489 743 536 743 q 322 698 390 743 q 219 579 254 653 q 183 419 183 506 q 215 272 183 336 q 304 172 247 208 q 438 136 361 136 q 556 160 499 136 q 658 228 614 185 q 697 246 678 246 q 721 232 714 246 q 728 204 728 218 q 714 151 728 181 q 671 92 700 121 q 544 11 619 40 q 390 -18 469 -18 z "},"Ç":{"ha":788,"x_min":63,"x_max":758,"o":"m 390 -18 q 217 26 292 -18 q 103 153 143 71 q 63 347 63 235 q 97 553 63 454 q 197 729 132 651 q 354 853 263 807 q 561 899 446 899 q 703 872 647 899 q 758 794 758 846 q 745 745 758 769 q 711 704 732 721 q 668 688 690 688 q 646 694 654 688 q 572 731 608 719 q 489 743 536 743 q 322 698 390 743 q 219 579 254 653 q 183 419 183 506 q 215 272 183 336 q 304 172 247 208 q 438 136 361 136 q 556 160 499 136 q 658 228 614 185 q 697 246 678 246 q 721 232 714 246 q 728 204 728 218 q 714 151 728 181 q 671 92 700 121 q 544 11 619 40 q 390 -18 469 -18 m 346 -342 q 287 -326 311 -342 q 263 -283 263 -311 q 282 -262 263 -262 q 358 -246 328 -262 q 388 -196 388 -229 q 351 -146 388 -161 q 328 -131 338 -139 q 318 -112 318 -122 q 322 -99 318 -106 q 331 -85 325 -93 q 361 -42 346 -69 q 383 8 376 -14 l 497 8 q 467 -31 483 -11 q 431 -69 450 -51 q 521 -175 521 -86 q 495 -258 521 -221 q 430 -319 469 -296 q 346 -342 390 -342 z "},"D":{"ha":839,"x_min":60,"x_max":783,"o":"m 283 -18 q 189 -8 232 -18 q 118 28 146 1 q 90 72 97 47 q 83 125 83 96 q 92 219 83 172 q 114 396 104 301 q 124 571 124 490 q 122 628 124 596 q 115 688 119 660 q 97 680 106 683 q 81 676 88 676 q 64 689 68 676 q 60 717 60 701 q 78 785 60 757 q 140 836 97 814 q 260 880 186 861 q 411 899 335 899 q 684 797 585 899 q 783 507 783 694 q 751 305 783 400 q 654 137 718 210 q 497 23 590 64 q 283 -18 404 -18 m 328 138 q 453 157 390 138 q 566 215 515 176 q 647 315 617 254 q 678 460 678 375 q 640 618 678 556 q 540 711 603 681 q 401 742 478 742 q 319 735 360 742 q 254 721 278 728 q 247 597 253 657 q 232 479 240 536 q 219 363 224 419 q 214 250 214 306 q 242 159 214 181 q 328 138 271 138 z "},"Ð":{"ha":840,"x_min":22,"x_max":783,"o":"m 283 -18 q 187 -8 228 -18 q 118 28 146 3 q 91 71 99 47 q 83 125 83 94 q 92 219 83 165 q 106 315 100 271 q 114 394 111 358 l 78 394 q 36 400 50 394 q 22 421 22 406 q 39 468 22 449 q 71 486 56 488 l 121 483 q 124 532 124 506 q 125 576 125 558 q 122 633 125 606 q 115 688 119 661 q 81 676 90 676 q 60 717 60 676 q 140 836 60 792 q 264 881 189 864 q 411 899 339 899 q 685 796 586 899 q 783 507 783 693 q 724 243 783 363 q 551 51 665 124 q 283 -18 438 -18 m 328 138 q 498 174 418 139 q 628 282 578 208 q 678 460 678 353 q 599 669 678 597 q 401 742 521 742 q 254 721 336 742 q 233 483 253 633 q 344 488 294 486 q 435 490 394 490 q 475 482 464 490 q 486 454 486 474 q 471 408 486 426 q 439 390 456 390 l 222 397 q 214 250 214 310 q 241 161 214 185 q 328 138 268 138 z "},"E":{"ha":701,"x_min":60,"x_max":654,"o":"m 339 -18 q 144 24 207 -18 q 81 183 81 67 q 84 240 81 207 q 94 321 88 274 q 111 442 106 389 q 117 560 117 496 q 115 640 117 601 q 107 714 113 679 q 79 710 86 710 q 64 715 68 710 q 60 733 60 719 q 67 791 60 763 q 86 838 74 819 q 158 876 110 871 q 251 885 196 881 q 363 891 306 889 q 467 893 421 893 q 618 888 594 893 q 654 849 654 882 q 625 772 654 807 q 594 742 610 751 q 551 735 579 733 q 444 740 490 739 q 381 742 399 742 q 315 740 349 742 q 246 736 281 739 q 242 632 246 688 q 231 515 238 576 q 375 522 294 519 q 518 524 456 524 q 556 518 546 524 q 567 489 567 513 q 555 440 567 467 q 524 393 543 413 q 506 380 515 385 q 479 376 496 375 q 344 381 419 379 q 211 381 268 382 q 203 322 206 349 q 200 275 200 296 q 239 168 200 199 q 367 138 278 138 q 472 147 421 138 q 575 183 522 157 q 604 194 594 194 q 634 173 619 194 q 649 126 649 151 q 626 69 649 96 q 565 22 603 42 q 463 -8 522 3 q 339 -18 403 -18 z "},"É":{"ha":701,"x_min":60,"x_max":654,"o":"m 339 -18 q 144 24 207 -18 q 81 183 81 67 q 84 240 81 207 q 94 321 88 274 q 111 442 106 389 q 117 560 117 496 q 115 640 117 601 q 107 714 113 679 q 79 710 86 710 q 64 715 68 710 q 60 733 60 719 q 67 791 60 763 q 86 838 74 819 q 158 876 110 871 q 251 885 196 881 q 363 891 306 889 q 467 893 421 893 q 618 888 594 893 q 654 849 654 882 q 625 772 654 807 q 594 742 610 751 q 551 735 579 733 q 444 740 490 739 q 381 742 399 742 q 315 740 349 742 q 246 736 281 739 q 242 632 246 688 q 231 515 238 576 q 375 522 294 519 q 518 524 456 524 q 556 518 546 524 q 567 489 567 513 q 555 440 567 467 q 524 393 543 413 q 506 380 515 385 q 479 376 496 375 q 344 381 419 379 q 211 381 268 382 q 203 322 206 349 q 200 275 200 296 q 239 168 200 199 q 367 138 278 138 q 472 147 421 138 q 575 183 522 157 q 604 194 594 194 q 634 173 619 194 q 649 126 649 151 q 626 69 649 96 q 565 22 603 42 q 463 -8 522 3 q 339 -18 403 -18 m 342 964 q 310 994 310 964 q 318 1025 310 1011 q 378 1115 347 1071 q 443 1193 410 1160 q 507 1225 475 1225 q 553 1204 529 1225 q 578 1154 578 1183 q 571 1126 578 1142 q 549 1096 564 1110 q 466 1031 514 1061 q 368 972 418 1000 q 342 964 354 964 z "},"Ê":{"ha":701,"x_min":60,"x_max":654,"o":"m 339 -18 q 144 24 207 -18 q 81 183 81 67 q 84 240 81 207 q 94 321 88 274 q 111 442 106 389 q 117 560 117 496 q 115 640 117 601 q 107 714 113 679 q 79 710 86 710 q 64 715 68 710 q 60 733 60 719 q 67 791 60 763 q 86 838 74 819 q 158 876 110 871 q 251 885 196 881 q 363 891 306 889 q 467 893 421 893 q 618 888 594 893 q 654 849 654 882 q 625 772 654 807 q 594 742 610 751 q 551 735 579 733 q 444 740 490 739 q 381 742 399 742 q 315 740 349 742 q 246 736 281 739 q 242 632 246 688 q 231 515 238 576 q 375 522 294 519 q 518 524 456 524 q 556 518 546 524 q 567 489 567 513 q 555 440 567 467 q 524 393 543 413 q 506 380 515 385 q 479 376 496 375 q 344 381 419 379 q 211 381 268 382 q 203 322 206 349 q 200 275 200 296 q 239 168 200 199 q 367 138 278 138 q 472 147 421 138 q 575 183 522 157 q 604 194 594 194 q 634 173 619 194 q 649 126 649 151 q 626 69 649 96 q 565 22 603 42 q 463 -8 522 3 q 339 -18 403 -18 m 201 971 q 181 980 190 971 q 172 1003 172 989 q 176 1022 172 1011 q 188 1046 179 1033 q 230 1102 203 1071 q 284 1161 257 1133 q 325 1201 311 1189 q 392 1231 363 1231 q 426 1222 410 1231 q 453 1201 442 1213 q 490 1160 467 1188 q 537 1102 514 1133 q 572 1043 560 1071 q 581 1024 579 1033 q 583 1007 583 1014 q 573 983 583 993 q 549 972 563 972 q 536 974 543 972 q 522 981 529 975 q 483 1006 508 988 q 431 1048 458 1025 q 383 1089 404 1071 q 297 1025 342 1058 q 229 981 251 992 q 201 971 214 971 z "},"Ë":{"ha":701,"x_min":60,"x_max":654,"o":"m 339 -18 q 144 24 207 -18 q 81 183 81 67 q 84 240 81 207 q 94 321 88 274 q 111 442 106 389 q 117 560 117 496 q 115 640 117 601 q 107 714 113 679 q 79 710 86 710 q 64 715 68 710 q 60 733 60 719 q 67 791 60 763 q 86 838 74 819 q 158 876 110 871 q 251 885 196 881 q 363 891 306 889 q 467 893 421 893 q 618 888 594 893 q 654 849 654 882 q 625 772 654 807 q 594 742 610 751 q 551 735 579 733 q 444 740 490 739 q 381 742 399 742 q 315 740 349 742 q 246 736 281 739 q 242 632 246 688 q 231 515 238 576 q 375 522 294 519 q 518 524 456 524 q 556 518 546 524 q 567 489 567 513 q 555 440 567 467 q 524 393 543 413 q 506 380 515 385 q 479 376 496 375 q 344 381 419 379 q 211 381 268 382 q 203 322 206 349 q 200 275 200 296 q 239 168 200 199 q 367 138 278 138 q 472 147 421 138 q 575 183 522 157 q 604 194 594 194 q 634 173 619 194 q 649 126 649 151 q 626 69 649 96 q 565 22 603 42 q 463 -8 522 3 q 339 -18 403 -18 m 232 1000 q 174 1021 196 1000 q 153 1081 153 1042 q 178 1147 153 1121 q 243 1172 204 1172 q 301 1151 279 1172 q 322 1092 322 1131 q 298 1026 322 1053 q 232 1000 274 1000 m 508 1000 q 449 1021 471 1000 q 428 1081 428 1042 q 453 1147 428 1121 q 519 1172 479 1172 q 576 1151 556 1172 q 597 1092 597 1131 q 573 1026 597 1053 q 508 1000 549 1000 z "},"È":{"ha":701,"x_min":60,"x_max":654,"o":"m 339 -18 q 144 24 207 -18 q 81 183 81 67 q 84 240 81 207 q 94 321 88 274 q 111 442 106 389 q 117 560 117 496 q 115 640 117 601 q 107 714 113 679 q 79 710 86 710 q 64 715 68 710 q 60 733 60 719 q 67 791 60 763 q 86 838 74 819 q 158 876 110 871 q 251 885 196 881 q 363 891 306 889 q 467 893 421 893 q 618 888 594 893 q 654 849 654 882 q 625 772 654 807 q 594 742 610 751 q 551 735 579 733 q 444 740 490 739 q 381 742 399 742 q 315 740 349 742 q 246 736 281 739 q 242 632 246 688 q 231 515 238 576 q 375 522 294 519 q 518 524 456 524 q 556 518 546 524 q 567 489 567 513 q 555 440 567 467 q 524 393 543 413 q 506 380 515 385 q 479 376 496 375 q 344 381 419 379 q 211 381 268 382 q 203 322 206 349 q 200 275 200 296 q 239 168 200 199 q 367 138 278 138 q 472 147 421 138 q 575 183 522 157 q 604 194 594 194 q 634 173 619 194 q 649 126 649 151 q 626 69 649 96 q 565 22 603 42 q 463 -8 522 3 q 339 -18 403 -18 m 400 964 q 374 972 389 964 q 276 1031 324 1000 q 192 1096 228 1061 q 171 1126 178 1110 q 164 1154 164 1142 q 188 1204 164 1183 q 235 1225 213 1225 q 299 1193 267 1225 q 363 1115 332 1160 q 424 1025 394 1071 q 429 1010 426 1018 q 432 994 432 1001 q 400 964 432 964 z "},"F":{"ha":643,"x_min":60,"x_max":647,"o":"m 144 -14 q 110 -8 128 -14 q 81 18 93 -3 q 69 82 69 39 q 75 155 69 110 q 90 272 81 200 q 106 395 97 318 q 115 557 115 472 q 113 637 115 594 q 101 714 110 679 q 76 710 85 710 q 64 715 68 710 q 60 733 60 719 q 66 790 60 761 q 86 838 72 818 q 119 865 100 857 q 158 876 138 874 q 247 884 193 881 q 359 890 300 888 q 467 893 418 893 q 563 892 532 893 q 611 888 594 890 q 647 849 647 882 q 638 806 647 825 q 617 772 629 788 q 584 741 601 750 q 539 735 567 732 q 474 740 515 738 q 381 742 433 742 q 322 740 358 742 q 246 736 286 739 q 238 628 244 689 q 222 506 231 568 q 313 510 260 508 q 421 514 365 513 q 519 515 476 515 q 556 509 544 515 q 567 482 567 503 q 555 431 567 458 q 524 385 543 404 q 485 367 506 365 q 387 371 450 369 q 254 372 324 372 l 210 372 q 205 312 207 342 q 203 257 203 282 q 213 172 203 208 q 250 108 222 135 q 268 67 268 90 q 233 11 268 36 q 144 -14 199 -14 z "},"G":{"ha":890,"x_min":63,"x_max":861,"o":"m 400 -18 q 228 25 304 -18 q 107 150 151 68 q 63 349 63 232 q 98 552 63 454 q 199 728 133 650 q 357 853 264 807 q 564 899 450 899 q 703 872 647 899 q 758 794 758 846 q 745 745 758 769 q 711 704 732 721 q 668 688 690 688 q 646 694 654 688 q 482 743 574 743 q 318 698 385 743 q 217 579 251 653 q 183 419 183 506 q 256 214 183 290 q 451 138 329 138 q 550 153 504 138 q 625 197 596 168 q 654 268 654 226 q 629 332 654 310 q 564 365 604 354 q 476 378 524 375 q 427 386 443 381 q 411 419 411 392 q 432 475 411 453 q 483 500 453 497 q 583 506 525 504 q 705 509 642 508 q 824 510 768 510 q 851 503 842 510 q 861 478 861 497 q 851 426 861 454 q 822 379 840 399 q 781 360 804 360 l 758 360 q 766 328 763 346 q 769 289 769 311 q 740 173 769 228 q 660 75 711 118 q 542 7 608 32 q 400 -18 475 -18 z "},"H":{"ha":885,"x_min":68,"x_max":825,"o":"m 128 -15 q 74 24 74 -15 q 78 53 74 35 q 119 349 107 199 q 86 343 99 343 q 72 368 72 343 q 89 443 72 401 q 128 504 106 485 q 124 627 128 578 q 111 714 121 676 q 81 786 101 751 q 68 815 68 806 q 87 851 68 833 q 133 881 106 868 q 183 893 160 893 q 242 853 228 893 q 257 750 257 814 q 251 663 256 719 q 239 522 247 606 q 410 531 326 528 q 569 533 493 533 l 672 533 l 672 572 q 640 785 672 693 q 631 818 631 808 q 666 869 631 846 q 740 893 701 893 q 798 862 783 893 q 813 774 813 831 q 806 672 813 736 q 786 517 799 608 q 767 356 774 419 q 760 244 760 293 q 807 108 760 153 q 825 67 825 88 q 788 10 825 35 q 697 -14 750 -14 q 644 4 664 -14 q 625 82 625 22 q 629 144 625 103 q 643 250 633 186 q 653 328 649 290 q 661 399 658 365 q 642 379 651 386 q 618 374 633 372 q 519 378 568 376 q 421 381 469 381 q 228 368 319 381 q 226 335 226 358 q 225 297 225 313 q 231 174 225 238 q 242 60 236 110 q 208 5 246 25 q 128 -15 171 -15 z "},"I":{"ha":357,"x_min":78,"x_max":288,"o":"m 164 -14 q 110 4 131 -14 q 89 78 89 22 q 94 150 89 106 q 106 239 100 194 q 128 410 121 338 q 135 557 135 482 q 127 686 135 626 q 89 789 119 746 q 78 817 78 807 q 97 852 78 833 q 142 883 115 871 q 193 896 169 896 q 251 858 236 896 q 265 763 265 819 q 261 676 265 728 q 252 577 257 625 q 243 503 247 529 q 228 365 233 429 q 222 257 222 301 q 233 168 222 204 q 269 108 243 132 q 288 71 288 92 q 253 12 288 38 q 164 -14 219 -14 z "},"Í":{"ha":357,"x_min":78,"x_max":389,"o":"m 164 -14 q 110 4 131 -14 q 89 78 89 22 q 94 150 89 106 q 106 239 100 194 q 128 410 121 338 q 135 557 135 482 q 127 686 135 626 q 89 789 119 746 q 78 817 78 807 q 97 852 78 833 q 142 883 115 871 q 193 896 169 896 q 251 858 236 896 q 265 763 265 819 q 261 676 265 728 q 252 577 257 625 q 243 503 247 529 q 228 365 233 429 q 222 257 222 301 q 233 168 222 204 q 269 108 243 132 q 288 71 288 92 q 253 12 288 38 q 164 -14 219 -14 m 153 964 q 121 994 121 964 q 129 1025 121 1011 q 190 1115 158 1071 q 254 1193 221 1160 q 318 1225 286 1225 q 365 1204 340 1225 q 389 1154 389 1183 q 382 1126 389 1142 q 360 1096 375 1110 q 277 1031 325 1061 q 179 972 229 1000 q 153 964 165 964 z "},"Î":{"ha":357,"x_min":-17,"x_max":394,"o":"m 164 -14 q 110 4 131 -14 q 89 78 89 22 q 94 150 89 106 q 106 239 100 194 q 128 410 121 338 q 135 557 135 482 q 127 686 135 626 q 89 789 119 746 q 78 817 78 807 q 97 852 78 833 q 142 883 115 871 q 193 896 169 896 q 251 858 236 896 q 265 763 265 819 q 261 676 265 728 q 252 577 257 625 q 243 503 247 529 q 228 365 233 429 q 222 257 222 301 q 233 168 222 204 q 269 108 243 132 q 288 71 288 92 q 253 12 288 38 q 164 -14 219 -14 m 13 971 q -8 980 1 971 q -17 1003 -17 989 q -13 1022 -17 1011 q -1 1046 -10 1033 q 41 1102 14 1071 q 95 1161 68 1133 q 136 1201 122 1189 q 203 1231 174 1231 q 237 1222 221 1231 q 264 1201 253 1213 q 301 1160 278 1188 q 348 1102 325 1133 q 383 1043 371 1071 q 392 1024 390 1033 q 394 1007 394 1014 q 384 983 394 993 q 360 972 374 972 q 347 974 354 972 q 333 981 340 975 q 294 1006 319 988 q 242 1048 269 1025 q 194 1089 215 1071 q 108 1025 153 1058 q 40 981 63 992 q 13 971 25 971 z "},"Ï":{"ha":357,"x_min":-7,"x_max":378,"o":"m 164 -14 q 110 4 131 -14 q 89 78 89 22 q 94 150 89 106 q 106 239 100 194 q 128 410 121 338 q 135 557 135 482 q 127 686 135 626 q 89 789 119 746 q 78 817 78 807 q 97 852 78 833 q 142 883 115 871 q 193 896 169 896 q 251 858 236 896 q 265 763 265 819 q 261 676 265 728 q 252 577 257 625 q 243 503 247 529 q 228 365 233 429 q 222 257 222 301 q 233 168 222 204 q 269 108 243 132 q 288 71 288 92 q 253 12 288 38 q 164 -14 219 -14 m 74 997 q 15 1018 36 997 q -7 1078 -7 1039 q 19 1144 -7 1118 q 83 1169 44 1169 q 163 1089 163 1169 q 138 1024 163 1050 q 74 997 114 997 m 288 997 q 230 1018 251 997 q 208 1078 208 1039 q 234 1144 208 1118 q 299 1169 260 1169 q 378 1089 378 1169 q 353 1024 378 1050 q 288 997 329 997 z "},"Ì":{"ha":357,"x_min":-25,"x_max":288,"o":"m 164 -14 q 110 4 131 -14 q 89 78 89 22 q 94 150 89 106 q 106 239 100 194 q 128 410 121 338 q 135 557 135 482 q 127 686 135 626 q 89 789 119 746 q 78 817 78 807 q 97 852 78 833 q 142 883 115 871 q 193 896 169 896 q 251 858 236 896 q 265 763 265 819 q 261 676 265 728 q 252 577 257 625 q 243 503 247 529 q 228 365 233 429 q 222 257 222 301 q 233 168 222 204 q 269 108 243 132 q 288 71 288 92 q 253 12 288 38 q 164 -14 219 -14 m 211 964 q 185 972 200 964 q 87 1031 135 1000 q 3 1096 39 1061 q -18 1126 -11 1110 q -25 1154 -25 1142 q -1 1204 -25 1183 q 46 1225 24 1225 q 110 1193 78 1225 q 174 1115 143 1160 q 235 1025 206 1071 q 240 1010 238 1018 q 243 994 243 1001 q 211 964 243 964 z "},"J":{"ha":710,"x_min":29,"x_max":657,"o":"m 275 -18 q 92 38 154 -18 q 29 201 29 94 q 56 322 29 278 q 104 388 82 365 q 136 412 124 407 q 157 417 149 417 q 185 407 175 417 q 196 382 196 397 q 192 365 196 372 q 185 351 189 357 q 156 258 156 314 q 200 165 156 194 q 315 136 244 136 q 458 191 414 136 q 510 339 503 246 q 513 415 513 372 q 514 497 514 458 q 490 740 511 643 q 415 744 456 743 q 339 746 375 746 q 143 728 214 746 q 104 722 119 722 q 88 727 93 722 q 83 750 83 732 q 92 799 83 775 q 114 840 100 822 q 150 870 129 861 q 201 882 171 879 q 312 890 249 886 q 456 893 375 893 q 563 890 522 893 q 621 885 604 888 q 649 872 640 882 q 657 840 657 863 q 651 800 657 821 q 633 764 644 779 q 627 427 636 578 q 572 172 618 276 q 275 -18 486 -18 z "},"K":{"ha":799,"x_min":68,"x_max":783,"o":"m 128 -15 q 81 1 90 -15 q 76 49 71 18 q 113 272 97 151 q 128 515 128 393 q 122 664 128 599 q 81 786 115 729 q 72 802 75 794 q 68 815 68 810 q 88 851 68 833 q 136 881 108 868 q 189 893 164 893 q 237 871 222 893 q 254 816 251 849 q 257 750 257 783 q 253 676 257 717 q 246 586 250 635 q 232 447 239 522 q 225 289 225 371 q 232 137 225 196 q 242 60 239 78 q 228 19 246 36 q 182 -6 210 3 q 128 -15 154 -15 m 657 -12 q 551 15 601 -12 q 456 88 500 43 q 376 185 411 132 q 315 289 340 238 q 276 379 289 340 q 264 444 264 417 q 286 518 264 475 q 339 599 304 551 q 419 697 374 646 q 513 793 464 749 q 613 865 563 838 q 706 893 663 893 q 762 870 744 893 q 779 818 779 847 q 769 768 779 794 q 743 724 760 742 q 704 706 726 706 q 678 709 690 706 q 649 713 667 713 q 606 706 631 713 q 553 679 582 699 q 494 630 529 663 q 424 556 460 597 q 357 467 388 514 q 410 372 376 419 q 479 282 443 324 q 605 172 544 207 q 753 138 665 138 q 777 129 771 138 q 783 103 783 121 q 753 25 783 63 q 657 -12 724 -12 z "},"L":{"ha":647,"x_min":68,"x_max":633,"o":"m 322 -18 q 176 3 228 -18 q 106 61 125 24 q 86 150 86 99 q 90 206 86 175 q 100 278 94 238 q 125 549 125 431 q 119 681 125 626 q 82 786 113 736 q 72 803 76 794 q 68 818 68 813 q 88 853 68 835 q 135 883 107 871 q 188 896 163 896 q 247 858 235 896 q 258 751 258 821 q 253 667 258 725 q 236 521 247 610 q 219 372 225 435 q 214 272 214 310 q 227 188 214 217 q 271 149 240 160 q 357 138 301 138 q 471 148 417 138 q 576 181 525 158 q 589 185 583 183 q 599 186 594 186 q 622 171 611 186 q 633 128 633 156 q 567 32 633 67 q 322 -18 478 -18 z "},"M":{"ha":1197,"x_min":61,"x_max":1147,"o":"m 107 -14 q 71 1 81 -14 q 61 35 61 17 q 78 232 61 121 q 121 453 96 343 q 170 626 143 546 q 218 758 197 707 q 288 869 249 831 q 381 907 328 907 q 450 881 419 907 q 486 789 481 856 q 506 626 494 708 q 531 477 517 544 q 560 374 544 410 q 596 342 572 342 q 642 375 622 342 q 681 458 660 406 q 722 570 701 511 q 757 678 742 629 q 798 784 775 731 q 857 873 821 838 q 947 908 893 908 q 1019 874 997 908 q 1040 767 1040 840 q 1036 647 1040 710 q 1033 573 1035 611 q 1031 494 1031 535 q 1037 363 1031 432 q 1062 232 1043 293 q 1118 129 1081 171 q 1138 107 1129 119 q 1147 79 1147 94 q 1110 16 1147 44 q 1026 -12 1074 -12 q 963 15 983 -12 q 929 90 942 43 q 910 215 915 149 q 904 344 904 282 q 912 528 904 444 q 919 653 919 613 q 915 685 919 675 q 894 696 911 696 q 862 678 875 696 q 840 631 849 661 q 800 506 822 572 q 753 375 778 439 q 701 261 729 311 q 633 183 669 203 q 558 163 596 163 q 470 199 500 163 q 426 281 440 236 q 393 437 408 340 q 371 654 378 533 q 338 706 368 706 q 285 656 304 706 q 253 538 268 606 q 228 398 238 471 q 219 254 219 325 q 224 150 219 194 q 229 67 229 106 q 208 21 229 39 q 157 -6 186 3 q 107 -14 128 -14 z "},"N":{"ha":900,"x_min":64,"x_max":840,"o":"m 138 -14 q 85 2 107 -14 q 64 78 64 18 q 70 152 64 108 q 83 243 76 196 q 106 390 94 310 q 117 549 117 469 q 111 676 117 632 q 99 749 106 721 q 94 776 96 764 q 92 804 92 789 q 120 872 92 849 q 183 894 149 894 q 242 877 218 894 q 283 840 265 860 q 499 558 403 706 q 658 254 594 410 q 671 243 665 243 q 682 254 679 243 q 707 549 707 417 q 701 674 707 628 q 685 747 694 721 q 668 788 676 772 q 661 805 664 797 q 658 819 658 813 q 676 853 658 836 q 718 882 693 871 q 767 893 743 893 q 815 871 800 893 q 835 816 831 849 q 840 750 840 783 q 833 653 840 713 q 817 524 826 593 q 802 389 808 456 q 796 271 796 322 q 798 214 796 242 q 803 160 800 186 q 807 99 807 125 q 781 17 807 47 q 711 -12 756 -12 q 651 6 681 -12 q 606 64 621 24 q 459 362 546 217 q 278 613 372 507 q 253 626 263 626 q 235 596 239 626 q 221 481 228 543 q 210 359 214 418 q 206 258 206 300 q 214 177 206 211 q 239 111 222 143 q 254 61 254 83 q 224 10 254 35 q 138 -14 193 -14 z "},"Ñ":{"ha":900,"x_min":64,"x_max":840,"o":"m 138 -14 q 85 2 107 -14 q 64 78 64 18 q 70 152 64 108 q 83 243 76 196 q 106 390 94 310 q 117 549 117 469 q 111 676 117 632 q 99 749 106 721 q 94 776 96 764 q 92 804 92 789 q 120 872 92 849 q 183 894 149 894 q 242 877 218 894 q 283 840 265 860 q 499 558 403 706 q 658 254 594 410 q 671 243 665 243 q 682 254 679 243 q 707 549 707 417 q 701 674 707 628 q 685 747 694 721 q 668 788 676 772 q 661 805 664 797 q 658 819 658 813 q 676 853 658 836 q 718 882 693 871 q 767 893 743 893 q 815 871 800 893 q 835 816 831 849 q 840 750 840 783 q 833 653 840 713 q 817 524 826 593 q 802 389 808 456 q 796 271 796 322 q 798 214 796 242 q 803 160 800 186 q 807 99 807 125 q 781 17 807 47 q 711 -12 756 -12 q 651 6 681 -12 q 606 64 621 24 q 459 362 546 217 q 278 613 372 507 q 253 626 263 626 q 235 596 239 626 q 221 481 228 543 q 210 359 214 418 q 206 258 206 300 q 214 177 206 211 q 239 111 222 143 q 254 61 254 83 q 224 10 254 35 q 138 -14 193 -14 m 286 994 q 256 1015 267 994 q 244 1060 244 1035 q 278 1138 244 1101 q 372 1175 311 1175 q 481 1147 422 1175 q 526 1126 503 1136 q 571 1115 550 1115 q 602 1128 593 1115 q 614 1154 611 1140 q 622 1173 617 1165 q 639 1181 628 1181 q 670 1160 657 1181 q 683 1114 683 1140 q 647 1032 683 1069 q 554 994 611 994 q 503 1002 529 994 q 450 1022 476 1010 q 400 1047 424 1038 q 357 1056 376 1056 q 326 1044 335 1056 q 314 1021 317 1033 q 306 1003 311 1011 q 286 994 300 994 z "},"O":{"ha":883,"x_min":65,"x_max":828,"o":"m 382 -18 q 153 66 239 -18 q 68 314 68 150 q 88 467 68 388 q 156 624 108 546 q 106 600 129 600 q 65 664 65 600 q 85 738 65 710 q 122 782 104 765 q 200 835 153 808 q 311 881 247 863 q 454 899 375 899 q 734 794 640 899 q 828 503 828 689 q 796 299 828 393 q 705 133 764 204 q 564 22 646 63 q 382 -18 482 -18 m 431 138 q 567 169 500 138 q 678 272 635 201 q 722 454 722 342 q 682 623 722 560 q 580 715 642 686 q 450 743 518 743 q 358 730 399 743 q 285 701 317 717 q 217 566 249 646 q 185 397 185 486 q 219 251 185 308 q 310 165 254 193 q 431 138 367 138 z "},"Ó":{"ha":883,"x_min":65,"x_max":828,"o":"m 382 -18 q 153 66 239 -18 q 68 314 68 150 q 88 467 68 388 q 156 624 108 546 q 106 600 129 600 q 65 664 65 600 q 85 738 65 710 q 122 782 104 765 q 200 835 153 808 q 311 881 247 863 q 454 899 375 899 q 734 794 640 899 q 828 503 828 689 q 796 299 828 393 q 705 133 764 204 q 564 22 646 63 q 382 -18 482 -18 m 431 138 q 567 169 500 138 q 678 272 635 201 q 722 454 722 342 q 682 623 722 560 q 580 715 642 686 q 450 743 518 743 q 358 730 399 743 q 285 701 317 717 q 217 566 249 646 q 185 397 185 486 q 219 251 185 308 q 310 165 254 193 q 431 138 367 138 m 444 964 q 413 994 413 964 q 421 1025 413 1011 q 481 1115 450 1071 q 546 1193 513 1160 q 610 1225 578 1225 q 656 1204 632 1225 q 681 1154 681 1183 q 674 1126 681 1142 q 651 1096 667 1110 q 569 1031 617 1061 q 471 972 521 1000 q 444 964 457 964 z "},"Ô":{"ha":883,"x_min":65,"x_max":828,"o":"m 382 -18 q 153 66 239 -18 q 68 314 68 150 q 88 467 68 388 q 156 624 108 546 q 106 600 129 600 q 65 664 65 600 q 85 738 65 710 q 122 782 104 765 q 200 835 153 808 q 311 881 247 863 q 454 899 375 899 q 734 794 640 899 q 828 503 828 689 q 796 299 828 393 q 705 133 764 204 q 564 22 646 63 q 382 -18 482 -18 m 431 138 q 567 169 500 138 q 678 272 635 201 q 722 454 722 342 q 682 623 722 560 q 580 715 642 686 q 450 743 518 743 q 358 730 399 743 q 285 701 317 717 q 217 566 249 646 q 185 397 185 486 q 219 251 185 308 q 310 165 254 193 q 431 138 367 138 m 304 971 q 284 980 293 971 q 275 1003 275 989 q 278 1022 275 1011 q 290 1046 282 1033 q 333 1102 306 1071 q 387 1161 360 1133 q 428 1201 414 1189 q 494 1231 465 1231 q 528 1222 513 1231 q 556 1201 544 1213 q 593 1160 569 1188 q 640 1102 617 1133 q 675 1043 663 1071 q 684 1024 682 1033 q 686 1007 686 1014 q 676 983 686 993 q 651 972 665 972 q 639 974 646 972 q 625 981 632 975 q 586 1006 611 988 q 534 1048 561 1025 q 486 1089 507 1071 q 399 1025 444 1058 q 332 981 354 992 q 304 971 317 971 z "},"Ö":{"ha":883,"x_min":65,"x_max":828,"o":"m 382 -18 q 153 66 239 -18 q 68 314 68 150 q 88 467 68 388 q 156 624 108 546 q 106 600 129 600 q 65 664 65 600 q 85 738 65 710 q 122 782 104 765 q 200 835 153 808 q 311 881 247 863 q 454 899 375 899 q 734 794 640 899 q 828 503 828 689 q 796 299 828 393 q 705 133 764 204 q 564 22 646 63 q 382 -18 482 -18 m 431 138 q 567 169 500 138 q 678 272 635 201 q 722 454 722 342 q 682 623 722 560 q 580 715 642 686 q 450 743 518 743 q 358 730 399 743 q 285 701 317 717 q 217 566 249 646 q 185 397 185 486 q 219 251 185 308 q 310 165 254 193 q 431 138 367 138 m 335 1000 q 277 1021 299 1000 q 256 1081 256 1042 q 281 1147 256 1121 q 346 1172 307 1172 q 403 1151 382 1172 q 425 1092 425 1131 q 401 1026 425 1053 q 335 1000 376 1000 m 611 1000 q 552 1021 574 1000 q 531 1081 531 1042 q 556 1147 531 1121 q 622 1172 582 1172 q 679 1151 658 1172 q 700 1092 700 1131 q 676 1026 700 1053 q 611 1000 651 1000 z "},"Ò":{"ha":883,"x_min":65,"x_max":828,"o":"m 382 -18 q 153 66 239 -18 q 68 314 68 150 q 88 467 68 388 q 156 624 108 546 q 106 600 129 600 q 65 664 65 600 q 85 738 65 710 q 122 782 104 765 q 200 835 153 808 q 311 881 247 863 q 454 899 375 899 q 734 794 640 899 q 828 503 828 689 q 796 299 828 393 q 705 133 764 204 q 564 22 646 63 q 382 -18 482 -18 m 431 138 q 567 169 500 138 q 678 272 635 201 q 722 454 722 342 q 682 623 722 560 q 580 715 642 686 q 450 743 518 743 q 358 730 399 743 q 285 701 317 717 q 217 566 249 646 q 185 397 185 486 q 219 251 185 308 q 310 165 254 193 q 431 138 367 138 m 503 964 q 476 972 492 964 q 378 1031 426 1000 q 294 1096 331 1061 q 274 1126 281 1110 q 267 1154 267 1142 q 291 1204 267 1183 q 338 1225 315 1225 q 401 1193 369 1225 q 466 1115 435 1160 q 526 1025 497 1071 q 532 1010 529 1018 q 535 994 535 1001 q 503 964 535 964 z "},"Ø":{"ha":883,"x_min":65,"x_max":828,"o":"m 169 -94 q 118 -77 142 -94 q 94 -36 94 -60 q 112 16 94 -15 q 147 72 129 47 q 68 314 68 158 q 156 624 68 478 q 106 600 129 600 q 65 664 65 600 q 81 732 65 704 q 122 782 97 760 q 262 865 178 831 q 454 899 346 899 q 555 889 507 899 q 646 860 603 879 q 674 940 661 917 q 726 963 688 963 q 774 951 754 963 q 794 915 794 939 q 782 867 794 896 q 765 832 775 853 q 740 786 754 811 q 828 503 828 685 q 772 239 828 358 q 614 50 715 119 q 382 -18 513 -18 q 309 -12 343 -18 q 246 6 275 -7 q 228 -45 236 -25 q 215 -75 219 -65 q 169 -94 203 -94 m 244 217 q 340 363 285 278 q 456 542 396 449 q 568 721 515 636 q 450 743 515 743 q 285 701 367 743 q 213 558 242 638 q 185 397 185 479 q 244 217 185 288 m 431 138 q 572 171 506 138 q 682 276 639 204 q 713 357 703 313 q 722 454 722 401 q 657 657 722 586 q 499 421 581 547 q 332 154 417 294 q 431 138 376 138 z "},"Õ":{"ha":883,"x_min":65,"x_max":828,"o":"m 382 -18 q 153 66 239 -18 q 68 314 68 150 q 88 467 68 388 q 156 624 108 546 q 106 600 129 600 q 65 664 65 600 q 85 738 65 710 q 122 782 104 765 q 200 835 153 808 q 311 881 247 863 q 454 899 375 899 q 734 794 640 899 q 828 503 828 689 q 796 299 828 393 q 705 133 764 204 q 564 22 646 63 q 382 -18 482 -18 m 431 138 q 567 169 500 138 q 678 272 635 201 q 722 454 722 342 q 682 623 722 560 q 580 715 642 686 q 450 743 518 743 q 358 730 399 743 q 285 701 317 717 q 217 566 249 646 q 185 397 185 486 q 219 251 185 308 q 310 165 254 193 q 431 138 367 138 m 300 994 q 269 1015 281 994 q 258 1060 258 1035 q 292 1138 258 1101 q 386 1175 325 1175 q 494 1147 436 1175 q 540 1126 517 1136 q 585 1115 564 1115 q 616 1128 607 1115 q 628 1154 625 1140 q 636 1173 631 1165 q 653 1181 642 1181 q 684 1160 671 1181 q 697 1114 697 1140 q 661 1032 697 1069 q 568 994 625 994 q 517 1002 543 994 q 464 1022 490 1010 q 414 1047 438 1038 q 371 1056 390 1056 q 340 1044 349 1056 q 328 1021 331 1033 q 319 1003 325 1011 q 300 994 314 994 z "},"Œ":{"ha":1325,"x_min":65,"x_max":1278,"o":"m 382 -18 q 153 66 239 -18 q 68 314 68 150 q 88 467 68 388 q 156 624 108 546 q 106 600 129 600 q 65 664 65 600 q 85 738 65 710 q 122 782 104 765 q 200 835 153 808 q 311 881 247 863 q 454 899 375 899 q 629 867 556 899 q 750 776 703 835 q 772 842 753 815 q 842 876 790 869 q 1089 893 990 893 q 1242 888 1215 893 q 1278 849 1278 882 q 1249 772 1278 810 q 1216 742 1232 750 q 1175 735 1200 733 q 1102 739 1143 738 q 1010 740 1061 740 q 868 736 933 740 l 868 700 q 864 619 868 665 q 853 515 860 572 q 981 520 907 518 q 1150 522 1056 522 q 1180 516 1171 522 q 1189 490 1189 510 q 1177 440 1189 467 q 1147 394 1165 413 q 1108 376 1128 376 q 1006 381 1061 379 q 888 382 951 382 l 833 382 q 825 322 828 349 q 822 275 822 296 q 861 168 822 199 q 989 138 900 138 q 1063 142 1032 138 q 1124 156 1094 146 q 1189 181 1153 165 q 1226 194 1222 194 q 1257 173 1243 194 q 1271 126 1271 151 q 1248 69 1271 96 q 1188 22 1225 42 q 1085 -8 1144 3 q 961 -18 1026 -18 q 782 14 844 -18 q 707 135 719 46 q 565 23 647 64 q 382 -18 483 -18 m 431 138 q 567 169 500 138 q 678 272 635 201 q 722 454 722 342 q 682 623 722 560 q 580 715 642 686 q 450 743 518 743 q 358 730 399 743 q 285 701 317 717 q 217 566 249 646 q 185 397 185 486 q 219 251 185 308 q 310 165 254 193 q 431 138 367 138 z "},"P":{"ha":718,"x_min":60,"x_max":693,"o":"m 156 -14 q 122 -8 139 -14 q 93 18 104 -3 q 82 82 82 39 q 88 170 82 117 q 104 285 94 224 q 120 417 114 347 q 126 557 126 486 q 125 617 126 585 q 119 679 124 649 q 101 670 110 674 q 83 667 92 667 q 60 713 60 667 q 78 783 60 754 q 147 838 97 811 q 262 881 196 864 q 396 899 328 899 q 612 828 531 899 q 693 639 693 757 q 664 506 693 567 q 587 399 635 444 q 483 330 539 354 q 372 306 426 306 q 303 328 321 306 q 285 394 285 351 q 290 433 285 415 q 311 450 294 450 q 324 449 315 450 q 340 444 332 447 q 364 440 349 443 q 399 438 379 438 q 523 481 475 438 q 571 592 571 524 q 518 703 571 663 q 382 743 465 743 q 319 738 351 743 q 256 725 288 733 q 236 517 251 633 q 222 380 228 447 q 215 257 215 313 q 224 172 215 208 q 261 108 233 135 q 281 67 281 89 q 246 11 281 36 q 156 -14 211 -14 z "},"Þ":{"ha":654,"x_min":68,"x_max":624,"o":"m 154 -14 q 101 4 122 -14 q 81 82 81 22 q 84 144 81 106 q 96 239 88 183 q 117 410 110 336 q 125 557 125 483 q 117 697 125 642 q 81 789 108 753 q 68 817 68 808 q 87 852 68 833 q 133 883 106 871 q 183 896 160 896 q 256 767 256 896 q 251 706 256 738 q 300 713 275 711 q 350 715 325 715 q 550 651 476 715 q 624 481 624 588 q 578 326 624 396 q 464 217 533 257 q 326 178 394 178 q 262 197 279 178 q 244 250 244 215 q 251 301 244 283 q 276 311 258 317 q 353 300 310 300 q 467 338 425 300 q 508 436 508 376 q 462 534 508 499 q 335 569 415 569 q 289 567 313 569 q 240 558 265 564 q 220 377 226 453 q 214 257 214 301 q 224 168 214 204 q 260 108 233 132 q 279 67 279 89 q 243 10 279 35 q 154 -14 207 -14 z "},"Q":{"ha":876,"x_min":60,"x_max":1004,"o":"m 849 -244 q 698 -208 768 -244 q 572 -116 628 -171 q 472 -7 515 -61 q 422 -15 447 -12 q 371 -18 396 -18 q 213 17 282 -18 q 103 114 143 51 q 61 258 64 176 q 138 451 60 369 q 260 521 203 521 q 304 501 289 521 q 338 440 319 481 q 416 298 371 369 q 517 156 461 226 q 658 268 603 188 q 711 461 714 349 q 671 618 710 556 q 570 712 632 681 q 436 743 508 743 q 302 713 360 743 q 204 642 244 683 q 140 567 164 601 q 125 556 135 558 q 108 553 115 553 q 80 569 88 553 q 72 611 72 586 q 98 709 71 658 q 176 803 125 760 q 296 872 226 846 q 450 899 365 899 q 717 792 621 899 q 815 500 813 685 q 758 229 818 346 q 594 47 697 113 q 678 -20 631 11 q 778 -69 725 -51 q 881 -87 831 -87 q 947 -79 918 -87 q 981 -71 975 -71 q 998 -91 992 -71 q 1004 -131 1004 -111 q 958 -217 1004 -190 q 849 -244 911 -244 m 382 139 q 304 256 333 200 q 247 376 275 311 q 225 393 238 393 q 188 367 206 393 q 171 303 169 340 q 231 193 172 239 q 382 139 290 147 z "},"R":{"ha":775,"x_min":60,"x_max":750,"o":"m 156 -14 q 122 -8 139 -14 q 93 18 104 -3 q 82 82 82 39 q 87 153 82 110 q 97 239 92 197 q 117 392 108 308 q 126 557 126 475 q 125 618 126 586 q 119 679 124 650 q 101 672 111 675 q 83 668 90 668 q 65 683 69 668 q 60 717 60 697 q 81 788 60 761 q 146 838 103 815 q 267 884 203 869 q 390 899 332 899 q 543 868 476 899 q 647 782 610 838 q 685 649 685 726 q 647 506 685 568 q 549 403 608 443 q 429 351 490 364 q 477 282 451 317 q 529 219 503 247 q 690 138 608 138 q 729 140 713 138 q 744 134 738 142 q 750 104 750 126 q 739 51 750 78 q 701 6 728 24 q 629 -12 675 -12 q 526 24 575 -12 q 435 116 476 60 q 360 235 393 172 q 306 350 328 297 q 296 380 300 365 q 292 408 292 394 q 307 447 292 432 q 338 463 318 458 q 397 467 358 467 q 517 507 471 467 q 563 611 563 547 q 510 713 563 681 q 383 744 458 744 q 256 725 322 744 q 236 518 251 635 q 222 381 228 449 q 215 257 215 313 q 224 172 215 208 q 261 108 233 135 q 281 67 281 89 q 246 11 281 36 q 156 -14 211 -14 z "},"S":{"ha":686,"x_min":19,"x_max":636,"o":"m 272 -18 q 147 2 204 -18 q 54 58 89 22 q 19 143 19 94 q 35 199 19 175 q 76 224 50 224 q 111 211 93 224 q 201 158 146 181 q 318 135 256 135 q 452 167 400 135 q 504 256 504 200 q 456 332 504 308 q 321 376 407 356 q 198 415 257 392 q 101 481 139 439 q 63 594 63 524 q 86 702 63 649 q 156 800 110 756 q 267 872 201 844 q 414 899 332 899 q 526 885 475 899 q 606 846 576 871 q 636 785 636 821 q 621 736 636 757 q 585 703 606 715 q 549 692 564 692 q 511 704 535 692 q 424 737 472 725 q 340 749 376 749 q 230 719 272 749 q 188 649 188 689 q 241 574 188 604 q 433 511 294 544 q 581 442 528 486 q 633 304 633 399 q 588 146 633 219 q 462 27 543 72 q 272 -18 381 -18 z "},"T":{"ha":681,"x_min":11,"x_max":686,"o":"m 321 -14 q 287 -8 304 -14 q 258 18 269 -3 q 247 82 247 39 q 252 157 247 113 q 265 253 257 201 q 284 399 276 322 q 292 557 292 476 q 285 670 292 622 q 269 744 279 718 q 169 738 217 743 q 74 719 122 732 q 52 716 61 718 q 35 714 43 714 q 17 719 22 714 q 11 743 11 724 q 18 792 11 767 q 39 836 25 818 q 72 865 53 856 q 113 876 90 874 q 201 884 147 881 q 320 890 256 888 q 447 893 385 893 q 592 892 549 893 q 651 888 636 890 q 678 876 671 885 q 686 847 686 867 q 653 772 686 810 q 624 747 639 756 q 583 739 608 738 q 518 743 561 742 q 422 744 475 744 q 415 631 421 696 q 400 501 408 567 q 386 374 392 438 q 381 257 381 310 q 390 172 381 208 q 426 108 399 135 q 446 67 446 89 q 411 11 446 36 q 321 -14 376 -14 z "},"U":{"ha":864,"x_min":46,"x_max":808,"o":"m 383 -18 q 165 59 238 -18 q 93 301 93 136 q 95 360 93 329 q 100 419 97 390 q 104 475 103 447 q 106 525 106 503 q 99 669 106 608 q 57 786 92 731 q 46 815 46 804 q 66 851 46 833 q 114 881 86 868 q 167 893 142 893 q 215 871 200 893 q 233 816 229 849 q 238 750 238 783 q 234 674 238 715 q 224 583 231 632 q 213 473 218 531 q 208 357 208 415 q 237 228 208 276 q 315 159 265 181 q 425 138 364 138 q 586 192 532 138 q 661 336 640 247 q 676 428 671 376 q 682 535 682 481 q 673 665 682 603 q 638 775 664 728 q 628 794 632 786 q 624 813 624 803 q 640 851 624 832 q 682 881 657 869 q 733 893 707 893 q 793 856 778 893 q 808 768 808 818 q 803 679 808 738 q 790 554 799 621 q 774 428 782 488 q 758 338 765 369 q 636 77 724 172 q 383 -18 549 -18 z "},"Ú":{"ha":864,"x_min":46,"x_max":808,"o":"m 383 -18 q 165 59 238 -18 q 93 301 93 136 q 95 360 93 329 q 100 419 97 390 q 104 475 103 447 q 106 525 106 503 q 99 669 106 608 q 57 786 92 731 q 46 815 46 804 q 66 851 46 833 q 114 881 86 868 q 167 893 142 893 q 215 871 200 893 q 233 816 229 849 q 238 750 238 783 q 234 674 238 715 q 224 583 231 632 q 213 473 218 531 q 208 357 208 415 q 237 228 208 276 q 315 159 265 181 q 425 138 364 138 q 586 192 532 138 q 661 336 640 247 q 676 428 671 376 q 682 535 682 481 q 673 665 682 603 q 638 775 664 728 q 628 794 632 786 q 624 813 624 803 q 640 851 624 832 q 682 881 657 869 q 733 893 707 893 q 793 856 778 893 q 808 768 808 818 q 803 679 808 738 q 790 554 799 621 q 774 428 782 488 q 758 338 765 369 q 636 77 724 172 q 383 -18 549 -18 m 426 964 q 394 994 394 964 q 404 1025 394 1011 q 463 1115 432 1071 q 528 1193 494 1160 q 592 1225 560 1225 q 638 1204 614 1225 q 663 1154 663 1183 q 656 1126 663 1142 q 633 1096 649 1110 q 551 1031 599 1061 q 453 972 503 1000 q 426 964 439 964 z "},"Û":{"ha":864,"x_min":46,"x_max":808,"o":"m 383 -18 q 165 59 238 -18 q 93 301 93 136 q 95 360 93 329 q 100 419 97 390 q 104 475 103 447 q 106 525 106 503 q 99 669 106 608 q 57 786 92 731 q 46 815 46 804 q 66 851 46 833 q 114 881 86 868 q 167 893 142 893 q 215 871 200 893 q 233 816 229 849 q 238 750 238 783 q 234 674 238 715 q 224 583 231 632 q 213 473 218 531 q 208 357 208 415 q 237 228 208 276 q 315 159 265 181 q 425 138 364 138 q 586 192 532 138 q 661 336 640 247 q 676 428 671 376 q 682 535 682 481 q 673 665 682 603 q 638 775 664 728 q 628 794 632 786 q 624 813 624 803 q 640 851 624 832 q 682 881 657 869 q 733 893 707 893 q 793 856 778 893 q 808 768 808 818 q 803 679 808 738 q 790 554 799 621 q 774 428 782 488 q 758 338 765 369 q 636 77 724 172 q 383 -18 549 -18 m 272 971 q 252 980 261 971 q 243 1003 243 989 q 247 1022 243 1011 q 258 1046 250 1033 q 300 1102 274 1071 q 354 1161 326 1133 q 396 1201 382 1189 q 463 1231 433 1231 q 497 1222 481 1231 q 524 1201 513 1213 q 561 1160 538 1188 q 608 1102 585 1133 q 643 1043 631 1071 q 652 1024 650 1033 q 654 1007 654 1014 q 644 983 654 993 q 619 972 633 972 q 607 974 614 972 q 593 981 600 975 q 554 1006 579 988 q 502 1048 529 1025 q 454 1089 475 1071 q 367 1025 413 1058 q 300 981 322 992 q 272 971 285 971 z "},"Ü":{"ha":864,"x_min":46,"x_max":808,"o":"m 383 -18 q 165 59 238 -18 q 93 301 93 136 q 95 360 93 329 q 100 419 97 390 q 104 475 103 447 q 106 525 106 503 q 99 669 106 608 q 57 786 92 731 q 46 815 46 804 q 66 851 46 833 q 114 881 86 868 q 167 893 142 893 q 215 871 200 893 q 233 816 229 849 q 238 750 238 783 q 234 674 238 715 q 224 583 231 632 q 213 473 218 531 q 208 357 208 415 q 237 228 208 276 q 315 159 265 181 q 425 138 364 138 q 586 192 532 138 q 661 336 640 247 q 676 428 671 376 q 682 535 682 481 q 673 665 682 603 q 638 775 664 728 q 628 794 632 786 q 624 813 624 803 q 640 851 624 832 q 682 881 657 869 q 733 893 707 893 q 793 856 778 893 q 808 768 808 818 q 803 679 808 738 q 790 554 799 621 q 774 428 782 488 q 758 338 765 369 q 636 77 724 172 q 383 -18 549 -18 m 303 1000 q 245 1021 267 1000 q 224 1081 224 1042 q 249 1147 224 1121 q 314 1172 275 1172 q 372 1151 350 1172 q 393 1092 393 1131 q 369 1026 393 1053 q 303 1000 344 1000 m 579 1000 q 520 1021 542 1000 q 499 1081 499 1042 q 524 1147 499 1121 q 590 1172 550 1172 q 647 1151 626 1172 q 668 1092 668 1131 q 644 1026 668 1053 q 579 1000 619 1000 z "},"Ù":{"ha":864,"x_min":46,"x_max":808,"o":"m 383 -18 q 165 59 238 -18 q 93 301 93 136 q 95 360 93 329 q 100 419 97 390 q 104 475 103 447 q 106 525 106 503 q 99 669 106 608 q 57 786 92 731 q 46 815 46 804 q 66 851 46 833 q 114 881 86 868 q 167 893 142 893 q 215 871 200 893 q 233 816 229 849 q 238 750 238 783 q 234 674 238 715 q 224 583 231 632 q 213 473 218 531 q 208 357 208 415 q 237 228 208 276 q 315 159 265 181 q 425 138 364 138 q 586 192 532 138 q 661 336 640 247 q 676 428 671 376 q 682 535 682 481 q 673 665 682 603 q 638 775 664 728 q 628 794 632 786 q 624 813 624 803 q 640 851 624 832 q 682 881 657 869 q 733 893 707 893 q 793 856 778 893 q 808 768 808 818 q 803 679 808 738 q 790 554 799 621 q 774 428 782 488 q 758 338 765 369 q 636 77 724 172 q 383 -18 549 -18 m 471 964 q 444 972 460 964 q 347 1031 394 1000 q 264 1096 300 1061 q 242 1126 250 1110 q 235 1154 235 1142 q 259 1204 235 1183 q 306 1225 283 1225 q 369 1193 338 1225 q 434 1115 403 1160 q 494 1025 465 1071 q 500 1010 497 1018 q 503 994 503 1001 q 471 964 503 964 z "},"V":{"ha":857,"x_min":-8,"x_max":786,"o":"m 333 -22 q 260 9 286 -22 q 231 118 235 40 q 217 281 228 200 q 189 433 207 363 q 126 623 165 536 q 17 765 86 710 q -1 784 6 775 q -8 807 -8 793 q 23 865 -8 838 q 96 893 54 893 q 179 853 144 893 q 242 740 214 813 q 310 485 289 626 q 335 214 332 344 q 346 162 336 175 q 379 149 356 149 q 477 188 429 149 q 565 293 525 226 q 628 444 604 360 q 651 622 651 529 q 644 715 651 679 q 626 771 636 750 q 614 815 614 799 q 633 854 614 836 q 678 884 653 872 q 725 896 704 896 q 765 876 753 896 q 782 825 778 856 q 786 763 786 794 q 764 560 786 667 q 701 349 742 453 q 603 162 660 246 q 479 28 547 78 q 333 -22 411 -22 z "},"W":{"ha":1249,"x_min":4,"x_max":1189,"o":"m 319 -19 q 247 8 272 -19 q 218 111 221 35 q 210 274 217 193 q 188 426 203 354 q 131 617 167 532 q 29 763 94 701 q 11 783 18 774 q 4 806 4 793 q 35 862 4 835 q 107 889 65 889 q 190 847 156 889 q 250 731 225 806 q 296 564 279 654 q 319 380 313 474 q 325 199 325 286 q 333 158 325 168 q 363 149 342 149 q 453 176 408 149 q 535 252 499 204 q 594 358 572 300 q 618 476 617 417 q 597 598 619 539 q 538 699 574 657 q 523 719 528 710 q 518 738 518 728 q 536 781 518 760 q 578 815 554 801 q 618 829 601 829 q 677 778 653 829 q 718 656 701 728 q 751 450 742 564 q 761 210 761 336 q 768 163 761 175 q 799 150 775 150 q 896 186 849 150 q 980 285 943 222 q 1038 430 1017 349 q 1060 601 1060 511 q 1049 712 1060 669 q 1029 772 1039 754 q 1015 817 1015 799 q 1034 856 1015 838 q 1079 888 1053 875 q 1125 900 1106 900 q 1169 874 1156 900 q 1185 811 1182 849 q 1189 740 1189 774 q 1169 540 1189 644 q 1111 335 1149 435 q 1022 156 1074 236 q 904 28 969 76 q 764 -19 839 -19 q 690 3 714 -19 q 660 65 667 25 q 653 160 653 106 q 653 220 653 192 q 654 272 654 249 q 500 55 590 129 q 319 -19 410 -19 z "},"X":{"ha":869,"x_min":-6,"x_max":883,"o":"m 119 -14 q 30 15 65 -14 q -6 93 -6 44 q 20 167 -6 136 q 75 199 46 199 q 95 192 88 199 q 110 172 103 185 q 133 147 117 156 q 168 138 150 138 q 269 215 221 138 q 374 432 318 293 q 278 658 331 572 q 147 743 225 743 q 124 741 136 743 q 97 736 111 739 q 67 753 83 732 q 51 800 51 774 q 88 867 51 840 q 185 893 125 893 q 344 815 282 893 q 456 560 407 738 q 544 728 493 653 q 658 849 594 804 q 796 893 722 893 q 883 821 883 893 q 862 751 883 782 q 815 721 840 721 q 783 731 803 721 q 729 744 754 744 q 614 672 669 744 q 496 447 556 599 q 563 288 528 357 q 639 178 597 218 q 733 139 681 139 q 760 142 749 139 q 781 146 772 144 q 794 149 789 149 q 825 106 825 149 q 809 51 825 78 q 761 6 793 24 q 682 -14 726 -14 q 562 26 610 -14 q 482 133 514 65 q 415 317 449 203 q 285 72 354 157 q 119 -14 217 -14 z "},"Y":{"ha":757,"x_min":1,"x_max":782,"o":"m 338 -6 q 272 13 294 -6 q 250 79 250 32 q 262 180 250 115 q 296 324 274 244 q 269 440 285 379 q 232 554 253 500 q 168 678 206 628 q 79 728 131 728 q 60 726 69 728 q 44 722 51 725 q 16 742 31 719 q 1 794 1 764 q 28 863 1 833 q 103 893 56 893 q 210 855 161 893 q 298 726 260 817 q 360 481 336 636 q 420 616 385 544 q 500 751 456 688 q 596 853 544 814 q 704 893 647 893 q 762 875 742 893 q 782 825 782 857 q 773 778 782 803 q 749 735 764 753 q 717 717 733 717 q 705 717 711 717 q 692 721 699 718 q 660 728 678 728 q 563 667 615 728 q 458 478 510 606 q 406 217 406 343 q 413 159 406 188 q 442 107 421 131 q 456 68 456 86 q 422 16 456 38 q 338 -6 389 -6 z "},"Ý":{"ha":757,"x_min":1,"x_max":782,"o":"m 338 -6 q 272 13 294 -6 q 250 79 250 32 q 262 180 250 115 q 296 324 274 244 q 269 440 285 379 q 232 554 253 500 q 168 678 206 628 q 79 728 131 728 q 60 726 69 728 q 44 722 51 725 q 16 742 31 719 q 1 794 1 764 q 28 863 1 833 q 103 893 56 893 q 210 855 161 893 q 298 726 260 817 q 360 481 336 636 q 420 616 385 544 q 500 751 456 688 q 596 853 544 814 q 704 893 647 893 q 762 875 742 893 q 782 825 782 857 q 773 778 782 803 q 749 735 764 753 q 717 717 733 717 q 705 717 711 717 q 692 721 699 718 q 660 728 678 728 q 563 667 615 728 q 458 478 510 606 q 406 217 406 343 q 413 159 406 188 q 442 107 421 131 q 456 68 456 86 q 422 16 456 38 q 338 -6 389 -6 m 358 964 q 326 994 326 964 q 335 1025 326 1011 q 395 1115 364 1071 q 460 1193 426 1160 q 524 1225 492 1225 q 570 1204 546 1225 q 594 1154 594 1183 q 588 1126 594 1142 q 565 1096 581 1110 q 483 1031 531 1061 q 385 972 435 1000 q 358 964 371 964 z "},"Z":{"ha":767,"x_min":15,"x_max":739,"o":"m 350 -14 q 231 -10 290 -14 q 122 3 171 -7 q 44 37 74 14 q 15 99 15 60 q 33 154 15 129 q 83 210 50 179 q 162 281 113 236 q 269 382 211 326 q 384 492 328 438 q 485 594 440 547 q 553 669 531 642 q 568 703 568 692 q 540 731 568 721 q 477 742 519 738 q 378 746 435 746 q 297 742 340 746 q 213 728 253 738 q 150 704 174 719 q 133 690 138 696 q 118 683 129 683 q 74 713 99 683 q 50 778 50 742 q 81 840 50 817 q 163 876 113 864 q 274 892 214 888 q 393 896 335 896 q 513 893 451 896 q 625 878 574 890 q 708 840 676 867 q 739 767 739 814 q 701 659 739 715 q 603 547 663 603 q 483 436 544 490 q 338 308 411 374 q 213 194 265 243 q 200 174 200 185 q 226 151 200 156 q 292 146 251 149 q 390 143 332 143 q 552 159 500 143 q 629 189 604 175 q 654 203 644 199 q 674 208 664 208 q 713 185 689 208 q 736 121 736 161 q 701 50 736 76 q 608 10 665 24 q 483 -9 550 -4 q 350 -14 415 -14 z "},"a":{"ha":700,"x_min":40,"x_max":667,"o":"m 225 -18 q 91 34 142 -18 q 40 183 40 86 q 67 322 40 253 q 146 446 94 390 q 269 535 197 501 q 432 568 342 568 q 574 540 515 568 q 633 463 633 511 q 631 430 633 450 q 624 397 628 410 q 612 377 619 386 q 592 368 604 368 q 571 372 586 368 q 563 315 565 343 q 560 260 560 288 q 576 166 560 207 q 639 115 592 125 q 659 107 651 113 q 667 83 667 101 q 659 44 667 68 q 630 2 651 21 q 568 -17 608 -17 q 485 23 514 -17 q 456 136 456 63 q 360 25 418 68 q 225 -18 303 -18 m 269 126 q 367 161 325 126 q 433 249 410 196 q 457 322 449 282 q 468 400 465 361 q 414 418 444 411 q 350 425 383 425 q 210 375 265 425 q 156 250 156 325 q 186 160 156 194 q 269 126 217 126 z "},"á":{"ha":700,"x_min":40,"x_max":667,"o":"m 225 -18 q 91 34 142 -18 q 40 183 40 86 q 67 322 40 253 q 146 446 94 390 q 269 535 197 501 q 432 568 342 568 q 574 540 515 568 q 633 463 633 511 q 631 430 633 450 q 624 397 628 410 q 612 377 619 386 q 592 368 604 368 q 571 372 586 368 q 563 315 565 343 q 560 260 560 288 q 576 166 560 207 q 639 115 592 125 q 659 107 651 113 q 667 83 667 101 q 659 44 667 68 q 630 2 651 21 q 568 -17 608 -17 q 485 23 514 -17 q 456 136 456 63 q 360 25 418 68 q 225 -18 303 -18 m 269 126 q 367 161 325 126 q 433 249 410 196 q 457 322 449 282 q 468 400 465 361 q 414 418 444 411 q 350 425 383 425 q 210 375 265 425 q 156 250 156 325 q 186 160 156 194 q 269 126 217 126 m 371 633 q 339 664 339 633 q 347 694 339 681 q 408 785 376 740 q 472 863 439 829 q 536 894 504 894 q 583 874 558 894 q 607 824 607 853 q 600 795 607 811 q 578 765 593 779 q 495 700 543 731 q 397 642 447 669 q 371 633 383 633 z "},"â":{"ha":700,"x_min":40,"x_max":667,"o":"m 225 -18 q 91 34 142 -18 q 40 183 40 86 q 67 322 40 253 q 146 446 94 390 q 269 535 197 501 q 432 568 342 568 q 574 540 515 568 q 633 463 633 511 q 631 430 633 450 q 624 397 628 410 q 612 377 619 386 q 592 368 604 368 q 571 372 586 368 q 563 315 565 343 q 560 260 560 288 q 576 166 560 207 q 639 115 592 125 q 659 107 651 113 q 667 83 667 101 q 659 44 667 68 q 630 2 651 21 q 568 -17 608 -17 q 485 23 514 -17 q 456 136 456 63 q 360 25 418 68 q 225 -18 303 -18 m 269 126 q 367 161 325 126 q 433 249 410 196 q 457 322 449 282 q 468 400 465 361 q 414 418 444 411 q 350 425 383 425 q 210 375 265 425 q 156 250 156 325 q 186 160 156 194 q 269 126 217 126 m 231 640 q 210 649 219 640 q 201 672 201 658 q 205 692 201 681 q 217 715 208 703 q 259 772 232 740 q 313 831 286 803 q 354 871 340 858 q 421 900 392 900 q 455 891 439 900 q 482 871 471 882 q 519 830 496 857 q 566 772 543 803 q 601 713 589 740 q 610 693 608 703 q 613 676 613 683 q 602 652 613 663 q 578 642 592 642 q 565 643 572 642 q 551 650 558 644 q 513 676 538 657 q 460 717 488 694 q 413 758 433 740 q 326 694 371 728 q 258 650 281 661 q 231 640 243 640 z "},"ä":{"ha":700,"x_min":40,"x_max":667,"o":"m 225 -18 q 91 34 142 -18 q 40 183 40 86 q 67 322 40 253 q 146 446 94 390 q 269 535 197 501 q 432 568 342 568 q 574 540 515 568 q 633 463 633 511 q 631 430 633 450 q 624 397 628 410 q 612 377 619 386 q 592 368 604 368 q 571 372 586 368 q 563 315 565 343 q 560 260 560 288 q 576 166 560 207 q 639 115 592 125 q 659 107 651 113 q 667 83 667 101 q 659 44 667 68 q 630 2 651 21 q 568 -17 608 -17 q 485 23 514 -17 q 456 136 456 63 q 360 25 418 68 q 225 -18 303 -18 m 269 126 q 367 161 325 126 q 433 249 410 196 q 457 322 449 282 q 468 400 465 361 q 414 418 444 411 q 350 425 383 425 q 210 375 265 425 q 156 250 156 325 q 186 160 156 194 q 269 126 217 126 m 261 669 q 203 690 225 669 q 182 750 182 711 q 208 816 182 790 q 272 842 233 842 q 330 821 308 842 q 351 761 351 800 q 327 696 351 722 q 261 669 303 669 m 538 669 q 478 690 500 669 q 457 750 457 711 q 483 816 457 790 q 549 842 508 842 q 606 821 585 842 q 626 761 626 800 q 602 696 626 722 q 538 669 578 669 z "},"à":{"ha":700,"x_min":40,"x_max":667,"o":"m 225 -18 q 91 34 142 -18 q 40 183 40 86 q 67 322 40 253 q 146 446 94 390 q 269 535 197 501 q 432 568 342 568 q 574 540 515 568 q 633 463 633 511 q 631 430 633 450 q 624 397 628 410 q 612 377 619 386 q 592 368 604 368 q 571 372 586 368 q 563 315 565 343 q 560 260 560 288 q 576 166 560 207 q 639 115 592 125 q 659 107 651 113 q 667 83 667 101 q 659 44 667 68 q 630 2 651 21 q 568 -17 608 -17 q 485 23 514 -17 q 456 136 456 63 q 360 25 418 68 q 225 -18 303 -18 m 269 126 q 367 161 325 126 q 433 249 410 196 q 457 322 449 282 q 468 400 465 361 q 414 418 444 411 q 350 425 383 425 q 210 375 265 425 q 156 250 156 325 q 186 160 156 194 q 269 126 217 126 m 429 633 q 403 642 418 633 q 305 700 353 669 q 221 765 257 731 q 200 795 207 779 q 193 824 193 811 q 217 874 193 853 q 264 894 242 894 q 328 863 296 894 q 392 785 361 829 q 453 694 424 740 q 458 679 456 688 q 461 664 461 671 q 429 633 461 633 z "},"å":{"ha":700,"x_min":40,"x_max":667,"o":"m 225 -18 q 91 34 142 -18 q 40 183 40 86 q 67 322 40 253 q 146 446 94 390 q 269 535 197 501 q 432 568 342 568 q 574 540 515 568 q 633 463 633 511 q 631 430 633 450 q 624 397 628 410 q 612 377 619 386 q 592 368 604 368 q 571 372 586 368 q 563 315 565 343 q 560 260 560 288 q 576 166 560 207 q 639 115 592 125 q 659 107 651 113 q 667 83 667 101 q 659 44 667 68 q 630 2 651 21 q 568 -17 608 -17 q 485 23 514 -17 q 456 136 456 63 q 360 25 418 68 q 225 -18 303 -18 m 269 126 q 367 161 325 126 q 433 249 410 196 q 457 322 449 282 q 468 400 465 361 q 414 418 444 411 q 350 425 383 425 q 210 375 265 425 q 156 250 156 325 q 186 160 156 194 q 269 126 217 126 m 394 636 q 286 674 326 636 q 246 781 246 713 q 292 901 246 856 q 415 947 339 947 q 522 909 482 947 q 561 804 561 871 q 517 683 561 731 q 394 636 472 636 m 414 735 q 460 749 442 735 q 478 786 478 764 q 456 831 478 813 q 394 849 433 849 q 347 833 365 849 q 329 794 329 818 q 352 751 329 768 q 414 735 375 735 z "},"ã":{"ha":700,"x_min":40,"x_max":667,"o":"m 225 -18 q 91 34 142 -18 q 40 183 40 86 q 67 322 40 253 q 146 446 94 390 q 269 535 197 501 q 432 568 342 568 q 574 540 515 568 q 633 463 633 511 q 631 430 633 450 q 624 397 628 410 q 612 377 619 386 q 592 368 604 368 q 571 372 586 368 q 563 315 565 343 q 560 260 560 288 q 576 166 560 207 q 639 115 592 125 q 659 107 651 113 q 667 83 667 101 q 659 44 667 68 q 630 2 651 21 q 568 -17 608 -17 q 485 23 514 -17 q 456 136 456 63 q 360 25 418 68 q 225 -18 303 -18 m 269 126 q 367 161 325 126 q 433 249 410 196 q 457 322 449 282 q 468 400 465 361 q 414 418 444 411 q 350 425 383 425 q 210 375 265 425 q 156 250 156 325 q 186 160 156 194 q 269 126 217 126 m 226 664 q 196 684 207 664 q 185 729 185 704 q 218 808 185 771 q 313 844 251 844 q 421 817 363 844 q 467 795 443 806 q 511 785 490 785 q 542 797 533 785 q 554 824 551 810 q 563 842 557 835 q 579 850 568 850 q 610 830 597 850 q 624 783 624 810 q 588 701 624 739 q 494 664 551 664 q 443 672 469 664 q 390 692 417 679 q 340 716 364 707 q 297 725 317 725 q 266 714 275 725 q 254 690 257 703 q 246 672 251 681 q 226 664 240 664 z "},"æ":{"ha":942,"x_min":13,"x_max":915,"o":"m 197 -18 q 63 34 113 -18 q 13 183 13 86 q 40 322 13 253 q 118 446 67 390 q 242 535 169 501 q 404 568 314 568 q 507 555 461 568 q 579 517 553 542 q 733 567 647 567 q 863 528 811 567 q 915 417 915 489 q 880 313 915 358 q 788 242 844 268 q 669 217 732 217 q 594 227 629 217 q 535 253 558 238 q 578 152 536 192 q 688 113 619 113 q 769 127 728 113 q 842 167 811 142 q 859 178 850 174 q 878 183 868 183 q 900 174 890 183 q 910 151 910 165 q 895 114 910 135 q 857 71 881 93 q 753 3 810 25 q 636 -18 697 -18 q 497 22 550 -18 q 426 133 443 61 q 332 24 389 67 q 197 -18 275 -18 m 657 308 q 740 328 706 308 q 774 382 774 349 q 753 422 774 407 q 692 438 732 438 q 602 410 640 438 q 547 333 564 382 q 597 315 567 322 q 657 308 628 308 m 242 126 q 340 161 297 126 q 406 249 382 196 q 429 322 421 282 q 440 400 438 361 q 386 418 417 411 q 322 425 356 425 q 183 375 238 425 q 128 250 128 325 q 158 160 128 194 q 242 126 189 126 z "},"b":{"ha":694,"x_min":49,"x_max":640,"o":"m 333 -18 q 245 0 282 -18 q 181 46 208 18 q 148 3 167 22 q 106 -15 129 -15 q 76 -6 90 -15 q 65 18 63 3 q 101 243 86 129 q 115 475 115 357 q 108 660 115 574 q 65 818 101 746 q 53 844 58 832 q 49 868 49 857 q 79 919 49 894 q 144 944 110 944 q 213 883 194 944 q 231 703 231 822 q 222 517 231 601 q 201 374 213 433 q 308 512 240 456 q 460 568 375 568 q 592 512 544 568 q 640 360 640 456 q 618 222 640 289 q 556 100 596 154 q 459 14 515 46 q 333 -18 403 -18 m 365 132 q 488 182 444 132 q 531 297 531 232 q 499 385 531 354 q 417 417 468 417 q 325 385 365 417 q 257 303 285 354 q 214 194 229 253 q 285 148 246 164 q 365 132 325 132 z "},"c":{"ha":569,"x_min":47,"x_max":535,"o":"m 254 -18 q 102 41 157 -18 q 47 206 47 100 q 92 392 47 310 q 214 521 136 474 q 390 568 292 568 q 496 546 457 568 q 535 485 535 524 q 501 417 535 450 q 469 394 489 404 q 438 383 449 383 q 417 393 425 383 q 381 422 403 408 q 318 436 358 436 q 207 390 250 436 q 164 268 164 343 q 203 158 164 200 q 306 117 242 117 q 378 128 339 117 q 449 163 418 140 q 481 176 464 176 q 508 142 508 176 q 463 54 508 96 q 370 2 428 22 q 254 -18 313 -18 z "},"ç":{"ha":569,"x_min":47,"x_max":535,"o":"m 254 -18 q 102 41 157 -18 q 47 206 47 100 q 92 392 47 310 q 214 521 136 474 q 390 568 292 568 q 496 546 457 568 q 535 485 535 524 q 501 417 535 450 q 469 394 489 404 q 438 383 449 383 q 417 393 425 383 q 381 422 403 408 q 318 436 358 436 q 207 390 250 436 q 164 268 164 343 q 203 158 164 200 q 306 117 242 117 q 378 128 339 117 q 449 163 418 140 q 481 176 464 176 q 508 142 508 176 q 463 54 508 96 q 370 2 428 22 q 254 -18 313 -18 m 200 -347 q 141 -332 165 -347 q 117 -289 117 -317 q 136 -268 117 -268 q 212 -251 182 -268 q 242 -201 242 -235 q 206 -151 242 -167 q 182 -136 192 -144 q 172 -118 172 -128 q 176 -105 172 -111 q 185 -90 179 -99 q 215 -47 200 -75 q 238 3 231 -19 l 351 3 q 321 -37 338 -17 q 285 -75 304 -57 q 375 -181 375 -92 q 349 -264 375 -226 q 284 -324 324 -301 q 200 -347 244 -347 z "},"d":{"ha":711,"x_min":47,"x_max":674,"o":"m 226 -18 q 95 38 143 -18 q 47 189 47 93 q 70 328 47 260 q 135 450 93 396 q 232 536 176 504 q 353 568 288 568 q 427 556 394 568 q 485 524 460 543 q 475 693 483 618 q 435 832 467 768 q 426 852 429 843 q 422 869 422 861 q 438 906 422 889 q 478 933 454 922 q 522 944 501 944 q 578 912 560 944 q 603 823 597 879 q 608 694 608 767 q 599 504 608 589 q 581 356 589 419 q 571 283 575 314 q 567 233 567 253 q 651 117 567 135 q 674 88 674 113 q 665 49 674 72 q 632 6 656 25 q 564 -12 608 -12 q 483 28 504 -12 q 463 150 463 68 q 364 31 424 79 q 226 -18 304 -18 m 269 131 q 347 156 308 131 q 417 224 386 181 q 449 284 435 250 q 476 353 464 318 q 319 417 406 417 q 200 372 244 417 q 156 260 156 326 q 189 167 156 203 q 269 131 222 131 z "},"ð":{"ha":618,"x_min":47,"x_max":572,"o":"m 260 -18 q 157 5 206 -18 q 78 81 108 28 q 47 219 47 133 q 82 385 47 308 q 178 508 117 461 q 318 554 239 554 q 394 542 360 554 q 454 511 428 531 q 433 617 450 572 q 393 696 417 663 q 324 659 363 681 q 261 624 285 638 q 206 603 224 603 q 182 620 188 603 q 176 651 176 638 q 183 679 176 669 q 201 696 189 689 q 252 722 213 703 q 329 763 292 742 q 288 789 308 778 q 250 808 268 800 q 200 853 200 828 q 206 884 200 863 q 231 925 213 906 q 288 944 250 944 q 372 914 332 944 q 447 831 413 883 l 492 856 q 536 871 519 871 q 564 855 556 871 q 572 819 572 839 q 544 771 572 785 q 522 759 536 765 q 490 746 508 753 q 535 598 519 678 q 551 435 551 518 q 545 330 551 389 q 521 210 539 271 q 470 97 503 149 q 386 14 438 46 q 260 -18 335 -18 m 275 126 q 363 158 326 126 q 421 242 399 189 q 451 356 443 294 q 303 411 381 411 q 189 365 229 411 q 149 258 149 319 q 185 163 149 199 q 275 126 221 126 z "},"e":{"ha":604,"x_min":47,"x_max":550,"o":"m 271 -18 q 106 42 165 -18 q 47 211 47 103 q 90 390 47 310 q 206 519 133 471 q 367 567 279 567 q 500 526 450 567 q 550 417 550 485 q 517 317 550 363 q 428 244 483 271 q 304 217 372 217 q 168 254 221 217 q 212 151 169 190 q 321 113 254 113 q 403 127 361 113 q 476 167 446 142 q 513 183 496 183 q 535 174 526 183 q 544 151 544 165 q 492 71 544 121 q 271 -18 399 -18 m 292 308 q 375 329 342 308 q 408 382 408 350 q 386 423 408 408 q 325 438 364 438 q 235 410 274 438 q 181 335 197 383 q 231 315 200 322 q 292 308 261 308 z "},"é":{"ha":604,"x_min":47,"x_max":556,"o":"m 271 -18 q 106 42 165 -18 q 47 211 47 103 q 90 390 47 310 q 206 519 133 471 q 367 567 279 567 q 500 526 450 567 q 550 417 550 485 q 517 317 550 363 q 428 244 483 271 q 304 217 372 217 q 168 254 221 217 q 212 151 169 190 q 321 113 254 113 q 403 127 361 113 q 476 167 446 142 q 513 183 496 183 q 535 174 526 183 q 544 151 544 165 q 492 71 544 121 q 271 -18 399 -18 m 292 308 q 375 329 342 308 q 408 382 408 350 q 386 423 408 408 q 325 438 364 438 q 235 410 274 438 q 181 335 197 383 q 231 315 200 322 q 292 308 261 308 m 319 633 q 288 664 288 633 q 296 694 288 681 q 356 785 325 740 q 421 863 388 829 q 485 894 453 894 q 531 874 507 894 q 556 824 556 853 q 549 795 556 811 q 526 765 542 779 q 444 700 492 731 q 346 642 396 669 q 319 633 332 633 z "},"ê":{"ha":604,"x_min":47,"x_max":561,"o":"m 271 -18 q 106 42 165 -18 q 47 211 47 103 q 90 390 47 310 q 206 519 133 471 q 367 567 279 567 q 500 526 450 567 q 550 417 550 485 q 517 317 550 363 q 428 244 483 271 q 304 217 372 217 q 168 254 221 217 q 212 151 169 190 q 321 113 254 113 q 403 127 361 113 q 476 167 446 142 q 513 183 496 183 q 535 174 526 183 q 544 151 544 165 q 492 71 544 121 q 271 -18 399 -18 m 292 308 q 375 329 342 308 q 408 382 408 350 q 386 423 408 408 q 325 438 364 438 q 235 410 274 438 q 181 335 197 383 q 231 315 200 322 q 292 308 261 308 m 179 640 q 159 649 168 640 q 150 672 150 658 q 153 692 150 681 q 165 715 157 703 q 208 772 181 740 q 262 831 235 803 q 303 871 289 858 q 369 900 340 900 q 403 891 388 900 q 431 871 419 882 q 468 830 444 857 q 515 772 492 803 q 550 713 538 740 q 559 693 557 703 q 561 676 561 683 q 551 652 561 663 q 526 642 540 642 q 514 643 521 642 q 500 650 507 644 q 461 676 486 657 q 409 717 436 694 q 361 758 382 740 q 274 694 319 728 q 207 650 229 661 q 179 640 192 640 z "},"ë":{"ha":604,"x_min":47,"x_max":575,"o":"m 271 -18 q 106 42 165 -18 q 47 211 47 103 q 90 390 47 310 q 206 519 133 471 q 367 567 279 567 q 500 526 450 567 q 550 417 550 485 q 517 317 550 363 q 428 244 483 271 q 304 217 372 217 q 168 254 221 217 q 212 151 169 190 q 321 113 254 113 q 403 127 361 113 q 476 167 446 142 q 513 183 496 183 q 535 174 526 183 q 544 151 544 165 q 492 71 544 121 q 271 -18 399 -18 m 292 308 q 375 329 342 308 q 408 382 408 350 q 386 423 408 408 q 325 438 364 438 q 235 410 274 438 q 181 335 197 383 q 231 315 200 322 q 292 308 261 308 m 210 669 q 152 690 174 669 q 131 750 131 711 q 156 816 131 790 q 221 842 182 842 q 278 821 257 842 q 300 761 300 800 q 276 696 300 722 q 210 669 251 669 m 486 669 q 427 690 449 669 q 406 750 406 711 q 431 816 406 790 q 497 842 457 842 q 554 821 533 842 q 575 761 575 800 q 551 696 575 722 q 486 669 526 669 z "},"è":{"ha":604,"x_min":47,"x_max":550,"o":"m 271 -18 q 106 42 165 -18 q 47 211 47 103 q 90 390 47 310 q 206 519 133 471 q 367 567 279 567 q 500 526 450 567 q 550 417 550 485 q 517 317 550 363 q 428 244 483 271 q 304 217 372 217 q 168 254 221 217 q 212 151 169 190 q 321 113 254 113 q 403 127 361 113 q 476 167 446 142 q 513 183 496 183 q 535 174 526 183 q 544 151 544 165 q 492 71 544 121 q 271 -18 399 -18 m 292 308 q 375 329 342 308 q 408 382 408 350 q 386 423 408 408 q 325 438 364 438 q 235 410 274 438 q 181 335 197 383 q 231 315 200 322 q 292 308 261 308 m 378 633 q 351 642 367 633 q 253 700 301 669 q 169 765 206 731 q 149 795 156 779 q 142 824 142 811 q 166 874 142 853 q 213 894 190 894 q 276 863 244 894 q 341 785 310 829 q 401 694 372 740 q 407 679 404 688 q 410 664 410 671 q 378 633 410 633 z "},"f":{"ha":425,"x_min":36,"x_max":571,"o":"m 135 -267 q 94 -253 108 -267 q 82 -206 81 -240 q 85 -131 82 -185 q 95 -5 89 -78 q 109 147 101 68 q 124 300 117 226 q 136 426 131 374 q 110 424 122 425 q 85 421 97 424 q 64 418 71 418 q 42 438 47 418 q 36 476 36 458 q 42 511 36 497 q 69 533 49 525 q 102 543 82 539 q 144 550 122 547 q 166 706 151 632 q 211 831 181 779 q 298 914 243 883 q 410 944 353 944 q 488 928 451 944 q 548 884 525 913 q 571 819 571 856 q 558 776 571 793 q 528 760 544 760 q 513 763 521 760 q 496 768 504 765 q 458 780 481 775 q 408 785 435 785 q 323 756 354 785 q 276 676 292 726 q 250 558 260 625 q 313 564 279 561 q 367 567 346 567 q 419 556 400 567 q 438 517 438 546 q 431 474 438 499 q 413 431 425 450 q 383 413 400 413 q 360 417 376 413 q 313 424 342 419 q 239 429 283 428 q 230 297 233 369 q 226 143 226 224 q 232 -8 226 56 q 243 -112 238 -72 q 247 -144 246 -131 q 249 -167 249 -158 q 229 -228 249 -207 q 183 -258 210 -250 q 135 -267 157 -267 z "},"g":{"ha":618,"x_min":7,"x_max":593,"o":"m 233 -383 q 68 -340 129 -383 q 7 -229 7 -297 q 38 -140 7 -179 q 121 -101 69 -101 q 150 -118 150 -101 q 147 -140 150 -128 q 143 -165 143 -153 q 188 -223 143 -204 q 294 -242 232 -242 q 374 -233 333 -242 q 441 -208 414 -225 q 468 -161 468 -190 q 436 -114 468 -129 q 356 -91 404 -99 q 256 -77 307 -83 q 169 -57 206 -71 q 101 -19 124 -42 q 79 38 79 3 q 158 142 79 103 q 90 208 113 165 q 67 304 67 251 q 102 432 67 372 q 208 530 138 492 q 383 568 278 568 q 479 559 431 568 q 560 526 528 550 q 593 456 593 501 q 586 419 593 439 q 560 399 579 399 q 538 402 551 399 q 513 408 524 406 q 517 378 515 394 q 519 343 519 361 q 464 195 519 261 q 301 117 408 129 q 244 108 263 114 q 225 86 225 101 q 242 66 225 72 q 285 57 258 60 q 435 33 369 50 q 537 -20 500 17 q 574 -125 574 -57 q 527 -262 574 -204 q 403 -351 481 -319 q 233 -383 325 -383 m 286 238 q 386 272 350 238 q 422 363 422 307 q 419 394 422 378 q 414 421 417 410 q 371 430 392 428 q 331 432 350 432 q 215 404 257 432 q 174 328 174 376 q 204 261 174 285 q 286 238 235 238 z "},"h":{"ha":718,"x_min":49,"x_max":682,"o":"m 110 -15 q 76 -6 90 -15 q 65 18 63 3 q 101 244 86 129 q 115 475 115 358 q 108 661 115 578 q 64 821 101 744 q 53 847 57 836 q 49 868 49 858 q 80 919 49 894 q 146 944 111 944 q 213 883 194 944 q 231 703 231 822 q 214 453 231 560 q 185 292 197 347 l 190 289 q 258 426 218 363 q 350 529 297 490 q 472 568 403 568 q 584 524 546 568 q 622 414 622 479 q 617 360 622 386 q 604 311 611 335 q 592 266 597 289 q 586 219 586 243 q 607 149 586 176 q 663 111 628 122 q 677 103 672 108 q 682 86 682 99 q 674 50 682 74 q 643 6 665 26 q 578 -14 621 -14 q 492 26 522 -14 q 461 128 461 65 q 467 190 461 158 q 482 251 474 222 q 494 306 489 281 q 500 350 500 332 q 433 414 500 414 q 335 374 378 414 q 263 274 293 335 q 214 150 233 214 l 214 103 q 184 18 214 51 q 110 -15 154 -15 z "},"i":{"ha":344,"x_min":43,"x_max":293,"o":"m 169 690 q 107 714 131 692 q 83 776 83 736 q 113 847 85 819 q 183 872 140 874 q 247 849 224 871 q 268 786 269 826 q 240 717 267 744 q 169 690 214 690 m 171 -14 q 106 9 129 -14 q 82 88 82 32 q 88 150 82 119 q 103 210 94 181 q 119 272 113 240 q 125 340 125 304 q 118 388 125 365 q 88 422 111 411 q 56 442 69 432 q 43 469 43 453 q 61 511 43 489 q 109 549 79 533 q 171 565 139 565 q 222 547 206 565 q 243 501 238 529 q 249 444 249 474 q 242 358 249 400 q 228 279 235 315 q 219 231 222 253 q 217 189 217 208 q 233 137 217 154 q 281 104 250 119 q 293 83 293 97 q 282 49 293 72 q 244 6 271 25 q 171 -14 217 -14 z "},"ı":{"ha":344,"x_min":43,"x_max":293,"o":"m 171 -14 q 106 9 129 -14 q 82 88 82 32 q 88 150 82 119 q 103 210 94 181 q 119 272 113 240 q 125 340 125 304 q 118 388 125 365 q 88 422 111 411 q 56 442 69 432 q 43 469 43 453 q 61 511 43 489 q 109 549 79 533 q 171 565 139 565 q 222 547 206 565 q 243 501 238 529 q 249 444 249 474 q 242 358 249 400 q 228 279 235 315 q 219 231 222 253 q 217 189 217 208 q 233 137 217 154 q 281 104 250 119 q 293 83 293 97 q 282 49 293 72 q 244 6 271 25 q 171 -14 217 -14 z "},"í":{"ha":344,"x_min":43,"x_max":368,"o":"m 171 -14 q 106 9 129 -14 q 82 88 82 32 q 88 150 82 119 q 103 210 94 181 q 119 272 113 240 q 125 340 125 304 q 118 388 125 365 q 88 422 111 411 q 56 442 69 432 q 43 469 43 453 q 61 511 43 489 q 109 549 79 533 q 171 565 139 565 q 222 547 206 565 q 243 501 238 529 q 249 444 249 474 q 242 358 249 400 q 228 279 235 315 q 219 231 222 253 q 217 189 217 208 q 233 137 217 154 q 281 104 250 119 q 293 83 293 97 q 282 49 293 72 q 244 6 271 25 q 171 -14 217 -14 m 132 633 q 100 664 100 633 q 108 694 100 681 q 169 785 138 740 q 233 863 200 829 q 297 894 265 894 q 344 874 319 894 q 368 824 368 853 q 361 795 368 811 q 339 765 354 779 q 256 700 304 731 q 158 642 208 669 q 132 633 144 633 z "},"î":{"ha":344,"x_min":-37,"x_max":374,"o":"m 171 -14 q 106 9 129 -14 q 82 88 82 32 q 88 150 82 119 q 103 210 94 181 q 119 272 113 240 q 125 340 125 304 q 118 388 125 365 q 88 422 111 411 q 56 442 69 432 q 43 469 43 453 q 61 511 43 489 q 109 549 79 533 q 171 565 139 565 q 222 547 206 565 q 243 501 238 529 q 249 444 249 474 q 242 358 249 400 q 228 279 235 315 q 219 231 222 253 q 217 189 217 208 q 233 137 217 154 q 281 104 250 119 q 293 83 293 97 q 282 49 293 72 q 244 6 271 25 q 171 -14 217 -14 m -8 640 q -28 649 -19 640 q -37 672 -37 658 q -34 692 -37 681 q -22 715 -31 703 q 20 772 -7 740 q 74 831 47 803 q 115 871 101 858 q 182 900 153 900 q 216 891 200 900 q 243 871 232 882 q 281 830 257 857 q 327 772 304 803 q 363 713 350 740 q 372 693 369 703 q 374 676 374 683 q 363 652 374 663 q 339 642 353 642 q 326 643 333 642 q 313 650 319 644 q 274 676 299 657 q 222 717 249 694 q 174 758 194 740 q 87 694 132 728 q 19 650 42 661 q -8 640 4 640 z "},"ï":{"ha":344,"x_min":-28,"x_max":357,"o":"m 171 -14 q 106 9 129 -14 q 82 88 82 32 q 88 150 82 119 q 103 210 94 181 q 119 272 113 240 q 125 340 125 304 q 118 388 125 365 q 88 422 111 411 q 56 442 69 432 q 43 469 43 453 q 61 511 43 489 q 109 549 79 533 q 171 565 139 565 q 222 547 206 565 q 243 501 238 529 q 249 444 249 474 q 242 358 249 400 q 228 279 235 315 q 219 231 222 253 q 217 189 217 208 q 233 137 217 154 q 281 104 250 119 q 293 83 293 97 q 282 49 293 72 q 244 6 271 25 q 171 -14 217 -14 m 53 667 q -6 688 15 667 q -28 747 -28 708 q -2 813 -28 788 q 63 839 24 839 q 142 758 142 839 q 117 693 142 719 q 53 667 93 667 m 267 667 q 209 688 231 667 q 188 747 188 708 q 213 813 188 788 q 278 839 239 839 q 357 758 357 839 q 333 693 357 719 q 267 667 308 667 z "},"ì":{"ha":344,"x_min":-46,"x_max":293,"o":"m 171 -14 q 106 9 129 -14 q 82 88 82 32 q 88 150 82 119 q 103 210 94 181 q 119 272 113 240 q 125 340 125 304 q 118 388 125 365 q 88 422 111 411 q 56 442 69 432 q 43 469 43 453 q 61 511 43 489 q 109 549 79 533 q 171 565 139 565 q 222 547 206 565 q 243 501 238 529 q 249 444 249 474 q 242 358 249 400 q 228 279 235 315 q 219 231 222 253 q 217 189 217 208 q 233 137 217 154 q 281 104 250 119 q 293 83 293 97 q 282 49 293 72 q 244 6 271 25 q 171 -14 217 -14 m 190 633 q 164 642 179 633 q 66 700 114 669 q -18 765 18 731 q -39 795 -32 779 q -46 824 -46 811 q -22 874 -46 853 q 25 894 3 894 q 89 863 57 894 q 153 785 122 829 q 214 694 185 740 q 219 679 217 688 q 222 664 222 671 q 190 633 222 633 z "},"j":{"ha":342,"x_min":-183,"x_max":257,"o":"m 157 690 q 94 714 118 692 q 72 776 71 736 q 101 847 74 819 q 172 872 129 874 q 235 849 213 871 q 256 786 257 826 q 228 717 254 744 q 157 690 201 690 m -50 -383 q -144 -354 -104 -383 q -183 -272 -183 -325 q -162 -207 -183 -231 q -117 -183 -140 -183 q -85 -197 -100 -183 q -56 -217 -72 -210 q -17 -224 -40 -224 q 59 -190 35 -224 q 93 -103 83 -156 q 115 64 111 -14 q 119 229 119 142 q 113 363 119 317 q 75 425 107 410 q 44 444 54 436 q 35 467 35 453 q 53 510 35 488 q 103 547 72 532 q 168 563 133 563 q 226 542 208 563 q 248 489 243 521 q 251 421 253 457 q 237 138 250 272 q 188 -114 224 4 q 94 -312 151 -240 q -50 -383 36 -383 z "},"k":{"ha":694,"x_min":49,"x_max":636,"o":"m 106 -15 q 76 -6 90 -15 q 65 18 63 3 q 101 244 86 129 q 115 475 115 358 q 108 661 115 578 q 64 821 101 744 q 53 847 57 836 q 49 868 49 858 q 79 919 49 894 q 144 944 110 944 q 213 883 194 944 q 231 703 231 822 q 214 453 231 560 q 185 292 197 347 l 190 289 q 261 420 218 357 q 360 525 304 483 q 483 567 417 567 q 584 528 549 567 q 619 435 619 489 q 574 321 619 371 q 454 238 528 271 q 506 163 472 190 q 590 136 539 136 q 618 139 607 136 q 636 104 636 143 q 628 54 636 82 q 595 6 619 26 q 522 -14 571 -14 q 416 24 457 -14 q 352 119 375 63 q 317 231 329 175 q 351 285 306 282 q 433 314 400 290 q 467 376 467 338 q 424 421 467 421 q 367 401 396 421 q 315 353 339 381 q 275 299 290 325 q 239 228 254 263 q 214 158 224 193 l 214 103 q 184 18 214 51 q 106 -15 154 -15 z "},"l":{"ha":317,"x_min":49,"x_max":279,"o":"m 156 -14 q 96 8 115 -14 q 76 86 76 31 q 81 154 76 113 q 90 244 85 196 q 105 369 99 304 q 111 494 111 435 q 103 670 111 579 q 61 829 96 761 q 49 869 49 857 q 65 904 49 888 q 104 933 81 921 q 150 944 128 944 q 204 912 186 944 q 228 823 222 879 q 233 694 233 767 q 224 504 233 585 q 207 363 215 424 q 197 286 201 322 q 192 221 192 250 q 208 151 192 172 q 260 108 224 129 q 274 98 269 103 q 279 83 279 93 q 268 49 279 72 q 230 6 257 25 q 156 -14 203 -14 z "},"m":{"ha":1064,"x_min":26,"x_max":1028,"o":"m 131 -15 q 86 18 81 -15 q 112 140 101 78 q 122 258 122 201 q 113 366 122 332 q 89 413 104 400 q 51 433 74 426 q 34 444 42 438 q 26 464 26 451 q 42 507 26 483 q 85 548 57 531 q 150 565 114 565 q 215 533 197 565 q 233 447 233 500 q 226 369 233 413 q 213 292 219 326 l 215 290 q 270 426 238 364 q 349 528 303 489 q 457 567 396 567 q 556 524 519 567 q 592 400 592 482 l 592 369 q 690 511 632 454 q 829 568 747 568 q 933 524 896 568 q 971 413 971 479 q 965 362 971 386 q 953 314 960 338 q 942 268 947 292 q 936 221 936 244 q 1007 113 936 138 q 1022 103 1017 108 q 1028 86 1028 99 q 1020 50 1028 74 q 990 6 1013 26 q 926 -14 968 -14 q 843 26 872 -14 q 814 126 814 65 q 819 190 814 157 q 833 254 825 224 q 845 307 840 282 q 850 350 850 332 q 834 399 850 383 q 792 414 818 414 q 712 386 747 414 q 649 314 676 358 q 603 217 622 269 q 605 184 604 204 q 606 149 606 164 q 602 93 606 122 q 589 44 599 64 q 556 1 578 18 q 499 -15 535 -15 q 469 -9 483 -15 q 456 11 456 -3 q 464 60 456 17 q 481 168 472 104 q 489 293 489 232 q 475 385 489 360 q 433 411 461 411 q 367 382 399 411 q 310 307 336 353 q 266 211 285 261 q 236 118 247 161 l 236 103 q 208 18 236 51 q 131 -15 179 -15 z "},"n":{"ha":744,"x_min":26,"x_max":708,"o":"m 131 -15 q 86 18 81 -15 q 112 140 101 78 q 122 258 122 201 q 113 366 122 332 q 89 413 104 400 q 51 433 74 426 q 34 444 42 438 q 26 464 26 451 q 42 507 26 483 q 85 548 57 531 q 150 565 114 565 q 215 533 197 565 q 233 447 233 500 q 226 369 233 413 q 213 292 219 326 l 217 290 q 284 427 244 364 q 376 529 324 490 q 499 568 429 568 q 611 524 572 568 q 650 413 650 479 q 644 360 650 385 q 631 311 638 335 q 619 265 624 289 q 614 218 614 242 q 689 111 614 139 q 708 86 708 103 q 700 50 708 74 q 669 6 692 26 q 604 -14 647 -14 q 518 26 549 -14 q 488 126 488 65 q 495 197 488 161 q 511 263 503 232 q 522 309 517 286 q 526 350 526 332 q 460 414 526 414 q 360 372 403 414 q 286 265 317 329 q 236 136 256 201 l 236 103 q 208 18 236 51 q 131 -15 179 -15 z "},"ñ":{"ha":744,"x_min":26,"x_max":708,"o":"m 131 -15 q 86 18 81 -15 q 112 140 101 78 q 122 258 122 201 q 113 366 122 332 q 89 413 104 400 q 51 433 74 426 q 34 444 42 438 q 26 464 26 451 q 42 507 26 483 q 85 548 57 531 q 150 565 114 565 q 215 533 197 565 q 233 447 233 500 q 226 369 233 413 q 213 292 219 326 l 217 290 q 284 427 244 364 q 376 529 324 490 q 499 568 429 568 q 611 524 572 568 q 650 413 650 479 q 644 360 650 385 q 631 311 638 335 q 619 265 624 289 q 614 218 614 242 q 689 111 614 139 q 708 86 708 103 q 700 50 708 74 q 669 6 692 26 q 604 -14 647 -14 q 518 26 549 -14 q 488 126 488 65 q 495 197 488 161 q 511 263 503 232 q 522 309 517 286 q 526 350 526 332 q 460 414 526 414 q 360 372 403 414 q 286 265 317 329 q 236 136 256 201 l 236 103 q 208 18 236 51 q 131 -15 179 -15 m 206 664 q 175 684 186 664 q 164 729 164 704 q 197 808 164 771 q 292 844 231 844 q 400 817 342 844 q 446 795 422 806 q 490 785 469 785 q 522 797 513 785 q 533 824 531 810 q 542 842 536 835 q 558 850 547 850 q 590 830 576 850 q 603 783 603 810 q 567 701 603 739 q 474 664 531 664 q 422 672 449 664 q 369 692 396 679 q 319 716 343 707 q 276 725 296 725 q 245 714 254 725 q 233 690 236 703 q 225 672 231 681 q 206 664 219 664 z "},"o":{"ha":633,"x_min":47,"x_max":579,"o":"m 272 -18 q 119 34 176 -18 q 61 188 61 86 q 74 279 61 235 q 110 363 88 324 q 76 349 88 349 q 53 367 60 349 q 47 404 47 386 q 60 455 47 436 q 86 483 74 474 q 178 538 115 508 q 328 568 240 568 q 513 501 447 568 q 579 315 579 435 q 540 147 579 222 q 433 26 501 71 q 272 -18 364 -18 m 315 124 q 433 167 385 124 q 481 283 481 211 q 432 390 481 358 q 319 422 383 422 q 267 417 290 422 q 222 403 243 411 q 188 340 203 375 q 172 264 172 306 q 214 159 172 194 q 315 124 256 124 z "},"ó":{"ha":633,"x_min":47,"x_max":579,"o":"m 272 -18 q 119 34 176 -18 q 61 188 61 86 q 74 279 61 235 q 110 363 88 324 q 76 349 88 349 q 53 367 60 349 q 47 404 47 386 q 60 455 47 436 q 86 483 74 474 q 178 538 115 508 q 328 568 240 568 q 513 501 447 568 q 579 315 579 435 q 540 147 579 222 q 433 26 501 71 q 272 -18 364 -18 m 315 124 q 433 167 385 124 q 481 283 481 211 q 432 390 481 358 q 319 422 383 422 q 267 417 290 422 q 222 403 243 411 q 188 340 203 375 q 172 264 172 306 q 214 159 172 194 q 315 124 256 124 m 297 633 q 265 664 265 633 q 274 694 265 681 q 334 785 303 740 q 399 863 365 829 q 463 894 431 894 q 509 874 485 894 q 533 824 533 853 q 526 795 533 811 q 504 765 519 779 q 422 700 469 731 q 324 642 374 669 q 297 633 310 633 z "},"ô":{"ha":633,"x_min":47,"x_max":579,"o":"m 272 -18 q 119 34 176 -18 q 61 188 61 86 q 74 279 61 235 q 110 363 88 324 q 76 349 88 349 q 53 367 60 349 q 47 404 47 386 q 60 455 47 436 q 86 483 74 474 q 178 538 115 508 q 328 568 240 568 q 513 501 447 568 q 579 315 579 435 q 540 147 579 222 q 433 26 501 71 q 272 -18 364 -18 m 315 124 q 433 167 385 124 q 481 283 481 211 q 432 390 481 358 q 319 422 383 422 q 267 417 290 422 q 222 403 243 411 q 188 340 203 375 q 172 264 172 306 q 214 159 172 194 q 315 124 256 124 m 157 640 q 137 649 146 640 q 128 672 128 658 q 131 692 128 681 q 143 715 135 703 q 185 772 158 740 q 240 831 213 803 q 281 871 267 858 q 347 900 318 900 q 381 891 365 900 q 408 871 397 882 q 446 830 422 857 q 492 772 469 803 q 528 713 515 740 q 537 693 535 703 q 539 676 539 683 q 528 652 539 663 q 504 642 518 642 q 492 643 499 642 q 478 650 485 644 q 439 676 464 657 q 387 717 414 694 q 339 758 360 740 q 252 694 297 728 q 185 650 207 661 q 157 640 169 640 z "},"ö":{"ha":633,"x_min":47,"x_max":579,"o":"m 272 -18 q 119 34 176 -18 q 61 188 61 86 q 74 279 61 235 q 110 363 88 324 q 76 349 88 349 q 53 367 60 349 q 47 404 47 386 q 60 455 47 436 q 86 483 74 474 q 178 538 115 508 q 328 568 240 568 q 513 501 447 568 q 579 315 579 435 q 540 147 579 222 q 433 26 501 71 q 272 -18 364 -18 m 315 124 q 433 167 385 124 q 481 283 481 211 q 432 390 481 358 q 319 422 383 422 q 267 417 290 422 q 222 403 243 411 q 188 340 203 375 q 172 264 172 306 q 214 159 172 194 q 315 124 256 124 m 188 669 q 130 690 151 669 q 108 750 108 711 q 134 816 108 790 q 199 842 160 842 q 256 821 235 842 q 278 761 278 800 q 253 696 278 722 q 188 669 229 669 m 464 669 q 405 690 426 669 q 383 750 383 711 q 409 816 383 790 q 475 842 435 842 q 532 821 511 842 q 553 761 553 800 q 528 696 553 722 q 464 669 504 669 z "},"ò":{"ha":633,"x_min":47,"x_max":579,"o":"m 272 -18 q 119 34 176 -18 q 61 188 61 86 q 74 279 61 235 q 110 363 88 324 q 76 349 88 349 q 53 367 60 349 q 47 404 47 386 q 60 455 47 436 q 86 483 74 474 q 178 538 115 508 q 328 568 240 568 q 513 501 447 568 q 579 315 579 435 q 540 147 579 222 q 433 26 501 71 q 272 -18 364 -18 m 315 124 q 433 167 385 124 q 481 283 481 211 q 432 390 481 358 q 319 422 383 422 q 267 417 290 422 q 222 403 243 411 q 188 340 203 375 q 172 264 172 306 q 214 159 172 194 q 315 124 256 124 m 356 633 q 329 642 344 633 q 231 700 279 669 q 147 765 183 731 q 126 795 133 779 q 119 824 119 811 q 144 874 119 853 q 190 894 168 894 q 254 863 222 894 q 319 785 288 829 q 379 694 350 740 q 385 679 382 688 q 388 664 388 671 q 356 633 388 633 z "},"ø":{"ha":643,"x_min":40,"x_max":603,"o":"m 117 -83 q 67 -65 93 -83 q 40 -25 40 -47 q 60 19 40 -7 q 97 65 79 44 q 65 188 65 114 q 78 279 65 235 q 114 363 92 324 q 81 349 92 349 q 57 367 64 349 q 50 404 50 386 q 64 455 50 436 q 90 483 78 474 q 182 538 119 508 q 332 568 244 568 q 468 538 410 568 q 485 572 479 557 q 496 600 490 586 q 506 616 500 613 q 528 619 511 619 q 577 607 551 619 q 603 571 603 594 q 585 519 603 551 q 546 465 568 488 q 574 397 564 435 q 583 315 583 360 q 544 147 583 222 q 437 26 506 71 q 276 -18 368 -18 q 175 0 217 -18 q 150 -54 157 -31 q 139 -77 144 -71 q 117 -83 133 -83 m 197 183 q 288 297 238 232 q 382 417 339 361 q 353 421 368 419 q 324 422 339 422 q 269 417 293 422 q 226 403 246 411 q 192 340 207 375 q 176 264 176 306 q 197 183 176 215 m 318 124 q 436 167 389 124 q 483 283 483 211 q 461 364 483 336 q 406 297 439 338 q 338 211 372 256 q 274 129 303 167 q 318 124 292 124 z "},"õ":{"ha":633,"x_min":47,"x_max":579,"o":"m 272 -18 q 119 34 176 -18 q 61 188 61 86 q 74 279 61 235 q 110 363 88 324 q 76 349 88 349 q 53 367 60 349 q 47 404 47 386 q 60 455 47 436 q 86 483 74 474 q 178 538 115 508 q 328 568 240 568 q 513 501 447 568 q 579 315 579 435 q 540 147 579 222 q 433 26 501 71 q 272 -18 364 -18 m 315 124 q 433 167 385 124 q 481 283 481 211 q 432 390 481 358 q 319 422 383 422 q 267 417 290 422 q 222 403 243 411 q 188 340 203 375 q 172 264 172 306 q 214 159 172 194 q 315 124 256 124 m 153 664 q 122 684 133 664 q 111 729 111 704 q 144 808 111 771 q 239 844 178 844 q 347 817 289 844 q 393 795 369 806 q 438 785 417 785 q 469 797 460 785 q 481 824 478 810 q 489 842 483 835 q 506 850 494 850 q 537 830 524 850 q 550 783 550 810 q 514 701 550 739 q 421 664 478 664 q 369 672 396 664 q 317 692 343 679 q 267 716 290 707 q 224 725 243 725 q 192 714 201 725 q 181 690 183 703 q 172 672 178 681 q 153 664 167 664 z "},"œ":{"ha":974,"x_min":19,"x_max":947,"o":"m 246 -18 q 92 34 150 -18 q 35 188 35 86 q 83 363 35 285 q 50 349 61 349 q 26 367 33 349 q 19 404 19 386 q 33 455 19 436 q 60 483 47 474 q 151 538 89 508 q 301 568 214 568 q 446 533 388 568 q 531 433 504 499 q 630 530 571 493 q 765 567 689 567 q 895 528 843 567 q 947 417 947 489 q 912 313 947 358 q 820 242 876 268 q 701 217 764 217 q 626 227 661 217 q 567 253 590 238 q 610 152 568 192 q 719 113 651 113 q 801 127 760 113 q 874 167 843 142 q 891 178 882 174 q 910 183 900 183 q 932 174 922 183 q 942 151 942 165 q 927 114 942 135 q 889 71 913 93 q 785 3 842 25 q 668 -18 729 -18 q 475 86 525 -18 q 376 10 435 38 q 246 -18 318 -18 m 689 308 q 772 328 738 308 q 806 382 806 349 q 785 422 806 407 q 724 438 764 438 q 634 410 672 438 q 579 333 596 382 q 630 315 599 322 q 689 308 661 308 m 288 124 q 406 167 358 124 q 453 283 453 211 q 405 390 453 358 q 293 422 357 422 q 239 417 263 422 q 196 403 215 411 q 161 340 176 375 q 146 264 146 306 q 188 159 146 194 q 288 124 229 124 z "},"p":{"ha":717,"x_min":26,"x_max":663,"o":"m 140 -383 q 75 -360 99 -383 q 51 -278 51 -337 q 60 -176 51 -237 q 82 -47 69 -115 q 101 67 92 7 q 116 184 110 126 q 122 288 122 242 q 110 379 122 340 q 63 429 99 418 q 38 442 49 435 q 26 464 26 449 q 42 507 26 483 q 85 548 57 531 q 150 565 114 565 q 215 533 197 565 q 233 447 233 500 q 232 416 233 432 q 228 383 231 400 q 334 515 268 461 q 483 568 400 568 q 615 512 567 568 q 663 360 663 456 q 640 222 663 289 q 578 100 618 154 q 481 14 538 46 q 356 -18 425 -18 q 268 -1 306 -18 q 203 44 231 17 q 192 -43 197 8 q 188 -139 188 -94 q 199 -219 188 -190 q 246 -264 211 -249 q 261 -286 261 -271 q 250 -321 261 -297 q 213 -364 239 -344 q 140 -383 188 -383 m 388 132 q 510 182 467 132 q 553 297 553 232 q 522 385 553 354 q 440 417 492 417 q 347 385 388 417 q 278 304 307 354 q 232 197 250 254 q 388 132 301 132 z "},"þ":{"ha":686,"x_min":21,"x_max":632,"o":"m 106 -383 q 44 -360 67 -383 q 21 -278 21 -337 q 26 -204 21 -246 q 38 -115 31 -162 q 58 20 47 -50 q 79 156 69 90 q 99 319 89 226 q 110 494 110 411 q 102 670 110 588 q 60 829 94 753 q 47 867 47 857 q 63 905 47 888 q 102 933 79 922 q 147 944 125 944 q 203 912 185 944 q 226 823 221 879 q 232 694 232 767 q 225 531 232 603 q 208 401 218 458 q 311 521 249 474 q 451 568 374 568 q 584 512 536 568 q 632 360 632 456 q 610 222 632 289 q 547 100 588 154 q 451 14 507 46 q 325 -18 394 -18 q 238 -1 275 -18 q 172 44 200 17 q 162 -44 167 8 q 157 -144 157 -96 q 163 -203 157 -182 q 183 -242 169 -225 q 215 -263 199 -260 q 231 -286 231 -267 q 219 -319 231 -296 q 181 -363 208 -343 q 106 -383 154 -383 m 357 132 q 479 182 436 132 q 522 297 522 232 q 492 385 522 354 q 410 417 461 417 q 317 385 357 417 q 248 304 276 354 q 201 197 219 254 q 357 132 271 132 z "},"q":{"ha":646,"x_min":47,"x_max":581,"o":"m 454 -383 q 392 -361 415 -383 q 368 -278 369 -339 q 387 -110 367 -214 q 431 104 407 -7 q 342 15 392 49 q 226 -18 293 -18 q 95 39 143 -18 q 47 199 47 96 q 68 332 47 267 q 131 451 89 397 q 235 536 172 504 q 379 568 297 568 q 474 554 431 568 q 546 517 518 540 q 575 481 569 497 q 581 444 581 464 q 573 346 581 404 q 554 231 565 288 q 535 133 543 174 q 515 -5 522 68 q 507 -139 507 -78 q 515 -213 507 -183 q 557 -261 524 -243 q 572 -270 565 -265 q 578 -285 578 -275 q 567 -320 578 -296 q 529 -364 556 -344 q 454 -383 503 -383 m 269 131 q 347 155 308 131 q 417 222 386 179 q 453 294 438 254 q 471 382 468 335 q 410 405 449 393 q 328 417 372 417 q 201 372 246 417 q 156 261 156 326 q 189 167 156 203 q 269 131 222 131 z "},"r":{"ha":485,"x_min":32,"x_max":481,"o":"m 136 -15 q 101 -8 114 -15 q 92 18 88 0 q 117 140 107 78 q 128 258 128 201 q 119 366 128 332 q 94 413 110 400 q 57 433 79 426 q 40 444 47 438 q 32 464 32 451 q 47 507 32 483 q 90 548 63 531 q 154 565 118 565 q 220 533 201 565 q 239 447 239 500 q 301 535 264 503 q 393 568 338 568 q 456 551 431 568 q 481 497 481 535 q 456 427 481 460 q 407 394 432 394 q 397 396 403 394 q 388 403 392 397 q 343 425 369 425 q 272 372 303 425 q 239 226 242 319 q 241 156 240 192 q 242 103 242 119 q 213 18 242 51 q 136 -15 185 -15 z "},"s":{"ha":553,"x_min":40,"x_max":499,"o":"m 236 -18 q 140 -3 185 -18 q 68 40 96 13 q 40 107 40 68 q 51 147 40 128 q 85 165 61 165 q 111 158 97 165 q 175 133 136 144 q 257 121 214 121 q 343 135 306 121 q 381 174 381 149 q 352 201 381 193 q 257 219 324 210 q 168 239 211 228 q 97 277 125 250 q 69 357 69 304 q 98 456 69 408 q 183 536 126 504 q 322 568 240 568 q 406 558 365 568 q 472 529 446 549 q 499 481 499 510 q 481 435 499 456 q 441 401 464 414 q 403 388 418 388 q 376 403 392 388 q 324 430 353 422 q 268 438 296 438 q 201 425 226 438 q 175 393 175 413 q 197 364 175 375 q 250 348 218 353 q 311 339 282 343 q 439 301 392 328 q 486 206 486 274 q 456 101 486 153 q 370 15 426 49 q 236 -18 314 -18 z "},"ß":{"ha":733,"x_min":47,"x_max":686,"o":"m 135 -196 q 69 -172 92 -196 q 47 -86 47 -149 q 53 92 47 -7 q 69 291 60 190 q 92 480 79 392 q 117 625 104 568 q 213 856 146 768 q 393 944 279 944 q 535 892 483 944 q 588 758 588 840 q 557 638 588 697 q 490 525 526 579 q 479 492 479 507 q 500 465 479 476 q 600 409 558 436 q 664 347 642 382 q 686 260 686 313 q 646 127 686 189 q 538 27 606 65 q 383 -11 469 -11 q 282 17 307 -11 q 257 79 257 46 q 278 151 257 117 q 325 186 299 186 q 351 176 342 186 q 392 150 367 164 q 467 136 418 136 q 543 154 514 136 q 572 206 572 172 q 562 240 572 225 q 536 265 551 254 q 461 308 510 285 q 368 350 413 331 q 335 376 344 361 q 326 410 326 390 q 335 446 326 431 q 353 476 343 461 q 419 583 388 524 q 450 699 450 643 q 426 771 450 742 q 351 800 403 800 q 271 761 296 800 q 231 669 246 722 q 203 519 213 603 q 191 349 194 436 q 188 183 188 263 q 190 57 188 104 q 197 -15 192 10 q 210 -50 203 -39 q 239 -76 222 -71 q 256 -100 256 -82 q 244 -135 256 -111 q 208 -177 233 -158 q 135 -196 182 -196 z "},"t":{"ha":465,"x_min":35,"x_max":444,"o":"m 256 -18 q 134 38 171 -18 q 97 183 97 94 q 101 246 97 215 q 108 307 104 276 q 117 367 113 338 q 124 422 121 396 q 65 414 94 414 q 35 439 35 414 q 58 503 35 465 q 117 579 82 542 q 188 642 153 617 q 249 668 224 668 q 279 615 279 668 q 277 587 279 601 q 272 557 275 572 q 326 567 299 563 q 378 571 353 571 q 427 560 410 571 q 444 517 444 549 q 428 450 444 483 q 393 417 413 417 q 379 418 389 417 q 356 422 369 419 q 310 431 338 426 q 243 435 282 435 q 226 347 233 392 q 218 265 218 301 q 258 156 218 185 q 375 126 299 126 q 408 119 399 126 q 418 92 418 111 q 371 14 418 46 q 256 -18 324 -18 z "},"u":{"ha":718,"x_min":38,"x_max":692,"o":"m 226 -18 q 119 22 157 -18 q 81 139 81 63 q 96 250 81 193 q 107 297 103 274 q 111 344 111 321 q 74 424 111 406 q 38 465 38 443 q 56 510 38 488 q 103 547 75 532 q 158 561 131 561 q 238 432 238 561 q 231 355 238 390 q 217 288 225 319 q 208 243 211 265 q 204 204 204 221 q 272 135 204 135 q 392 203 336 135 q 483 393 447 271 l 482 419 q 506 525 479 489 q 586 561 533 561 q 632 532 632 561 q 628 507 632 522 q 618 471 625 492 q 594 362 604 419 q 585 256 585 304 q 601 166 585 201 q 664 118 618 131 q 684 110 676 117 q 692 85 692 104 q 664 19 692 51 q 583 -12 636 -12 q 482 131 482 -12 q 486 206 482 156 l 483 207 q 226 -18 396 -18 z "},"ú":{"ha":718,"x_min":38,"x_max":692,"o":"m 226 -18 q 119 22 157 -18 q 81 139 81 63 q 96 250 81 193 q 107 297 103 274 q 111 344 111 321 q 74 424 111 406 q 38 465 38 443 q 56 510 38 488 q 103 547 75 532 q 158 561 131 561 q 238 432 238 561 q 231 355 238 390 q 217 288 225 319 q 208 243 211 265 q 204 204 204 221 q 272 135 204 135 q 392 203 336 135 q 483 393 447 271 l 482 419 q 506 525 479 489 q 586 561 533 561 q 632 532 632 561 q 628 507 632 522 q 618 471 625 492 q 594 362 604 419 q 585 256 585 304 q 601 166 585 201 q 664 118 618 131 q 684 110 676 117 q 692 85 692 104 q 664 19 692 51 q 583 -12 636 -12 q 482 131 482 -12 q 486 206 482 156 l 483 207 q 226 -18 396 -18 m 336 633 q 304 664 304 633 q 313 694 304 681 q 373 785 342 740 q 438 863 404 829 q 501 894 469 894 q 548 874 524 894 q 572 824 572 853 q 565 795 572 811 q 543 765 558 779 q 460 700 508 731 q 363 642 413 669 q 336 633 349 633 z "},"û":{"ha":718,"x_min":38,"x_max":692,"o":"m 226 -18 q 119 22 157 -18 q 81 139 81 63 q 96 250 81 193 q 107 297 103 274 q 111 344 111 321 q 74 424 111 406 q 38 465 38 443 q 56 510 38 488 q 103 547 75 532 q 158 561 131 561 q 238 432 238 561 q 231 355 238 390 q 217 288 225 319 q 208 243 211 265 q 204 204 204 221 q 272 135 204 135 q 392 203 336 135 q 483 393 447 271 l 482 419 q 506 525 479 489 q 586 561 533 561 q 632 532 632 561 q 628 507 632 522 q 618 471 625 492 q 594 362 604 419 q 585 256 585 304 q 601 166 585 201 q 664 118 618 131 q 684 110 676 117 q 692 85 692 104 q 664 19 692 51 q 583 -12 636 -12 q 482 131 482 -12 q 486 206 482 156 l 483 207 q 226 -18 396 -18 m 196 640 q 176 649 185 640 q 167 672 167 658 q 170 692 167 681 q 182 715 174 703 q 224 772 197 740 q 278 831 251 803 q 319 871 306 858 q 386 900 357 900 q 420 891 404 900 q 447 871 436 882 q 485 830 461 857 q 531 772 508 803 q 567 713 554 740 q 576 693 574 703 q 578 676 578 683 q 567 652 578 663 q 543 642 557 642 q 531 643 538 642 q 517 650 524 644 q 478 676 503 657 q 426 717 453 694 q 378 758 399 740 q 291 694 336 728 q 224 650 246 661 q 196 640 208 640 z "},"ü":{"ha":718,"x_min":38,"x_max":692,"o":"m 226 -18 q 119 22 157 -18 q 81 139 81 63 q 96 250 81 193 q 107 297 103 274 q 111 344 111 321 q 74 424 111 406 q 38 465 38 443 q 56 510 38 488 q 103 547 75 532 q 158 561 131 561 q 238 432 238 561 q 231 355 238 390 q 217 288 225 319 q 208 243 211 265 q 204 204 204 221 q 272 135 204 135 q 392 203 336 135 q 483 393 447 271 l 482 419 q 506 525 479 489 q 586 561 533 561 q 632 532 632 561 q 628 507 632 522 q 618 471 625 492 q 594 362 604 419 q 585 256 585 304 q 601 166 585 201 q 664 118 618 131 q 684 110 676 117 q 692 85 692 104 q 664 19 692 51 q 583 -12 636 -12 q 482 131 482 -12 q 486 206 482 156 l 483 207 q 226 -18 396 -18 m 226 669 q 169 690 190 669 q 147 750 147 711 q 173 816 147 790 q 238 842 199 842 q 295 821 274 842 q 317 761 317 800 q 292 696 317 722 q 226 669 268 669 m 503 669 q 444 690 465 669 q 422 750 422 711 q 448 816 422 790 q 514 842 474 842 q 571 821 550 842 q 592 761 592 800 q 567 696 592 722 q 503 669 543 669 z "},"ù":{"ha":718,"x_min":38,"x_max":692,"o":"m 226 -18 q 119 22 157 -18 q 81 139 81 63 q 96 250 81 193 q 107 297 103 274 q 111 344 111 321 q 74 424 111 406 q 38 465 38 443 q 56 510 38 488 q 103 547 75 532 q 158 561 131 561 q 238 432 238 561 q 231 355 238 390 q 217 288 225 319 q 208 243 211 265 q 204 204 204 221 q 272 135 204 135 q 392 203 336 135 q 483 393 447 271 l 482 419 q 506 525 479 489 q 586 561 533 561 q 632 532 632 561 q 628 507 632 522 q 618 471 625 492 q 594 362 604 419 q 585 256 585 304 q 601 166 585 201 q 664 118 618 131 q 684 110 676 117 q 692 85 692 104 q 664 19 692 51 q 583 -12 636 -12 q 482 131 482 -12 q 486 206 482 156 l 483 207 q 226 -18 396 -18 m 394 633 q 368 642 383 633 q 270 700 318 669 q 186 765 222 731 q 165 795 172 779 q 158 824 158 811 q 183 874 158 853 q 229 894 207 894 q 293 863 261 894 q 358 785 326 829 q 418 694 389 740 q 424 679 421 688 q 426 664 426 671 q 394 633 426 633 z "},"v":{"ha":621,"x_min":1,"x_max":579,"o":"m 249 -19 q 184 3 211 -19 q 151 89 157 26 q 140 193 149 136 q 117 301 131 250 q 85 382 103 353 q 63 405 75 397 q 28 415 51 413 q 7 425 13 417 q 1 451 1 433 q 33 535 1 508 q 104 563 64 563 q 174 535 146 563 q 217 464 201 508 q 238 366 232 419 q 244 258 244 313 q 244 212 244 236 q 243 171 243 188 q 249 147 243 156 q 274 139 256 139 q 325 152 296 139 q 383 190 354 165 q 430 249 411 215 q 449 325 449 283 q 441 375 449 349 q 417 419 433 401 q 392 448 400 438 q 385 472 385 458 q 408 518 385 497 q 462 551 431 539 q 517 564 493 564 q 568 531 557 564 q 579 457 579 497 q 551 297 579 381 q 476 142 524 214 q 370 25 429 69 q 249 -19 311 -19 z "},"w":{"ha":939,"x_min":1,"x_max":897,"o":"m 243 -19 q 177 3 204 -19 q 146 89 150 26 q 134 194 143 136 q 113 304 125 253 q 83 382 100 356 q 62 405 74 397 q 26 415 50 413 q 1 451 1 417 q 32 535 1 508 q 101 563 63 563 q 169 535 143 563 q 210 463 196 508 q 231 363 225 418 q 238 250 238 307 q 237 209 238 229 q 236 169 236 189 q 242 147 236 156 q 269 138 247 138 q 342 153 300 138 q 415 207 383 169 q 446 307 446 244 q 436 360 446 339 q 410 401 426 382 q 400 415 404 408 q 396 432 396 422 q 417 474 396 458 q 466 498 439 490 q 511 506 493 506 q 540 497 529 506 q 556 461 550 488 q 564 422 561 443 q 567 372 567 400 q 563 303 567 329 q 556 256 560 276 q 549 220 551 238 q 547 179 547 203 q 557 146 547 154 q 588 138 567 138 q 717 192 667 138 q 767 326 767 247 q 758 378 767 354 q 729 425 750 403 q 711 448 718 439 q 704 471 704 457 q 727 517 704 496 q 781 551 750 538 q 838 564 813 564 q 886 529 875 564 q 897 450 897 494 q 876 294 897 375 q 814 141 854 213 q 715 25 774 69 q 583 -19 657 -19 q 481 24 508 -19 q 457 128 453 67 q 359 22 415 64 q 243 -19 303 -19 z "},"x":{"ha":638,"x_min":0,"x_max":625,"o":"m 106 -14 q 30 10 60 -14 q 0 76 0 33 q 27 149 0 121 q 76 178 54 178 q 99 161 92 178 q 119 140 107 146 q 144 135 132 135 q 208 169 181 135 q 260 264 236 204 q 197 369 238 325 q 99 413 157 413 q 85 412 90 413 q 75 411 79 411 q 54 424 65 411 q 43 468 43 438 q 75 540 43 517 q 146 564 107 564 q 253 513 204 564 q 332 385 301 463 q 395 474 358 433 q 474 540 432 515 q 557 564 517 564 q 610 545 594 564 q 625 503 625 526 q 615 457 625 481 q 592 417 606 433 q 563 400 578 400 q 543 404 554 400 q 519 410 533 407 q 490 414 506 414 q 430 388 456 414 q 368 292 404 361 q 408 219 383 254 q 469 160 433 183 q 550 136 504 136 q 565 137 558 136 q 578 138 572 138 q 591 131 586 138 q 596 104 596 125 q 586 52 596 79 q 551 6 576 25 q 479 -14 526 -14 q 393 13 428 -14 q 337 82 358 39 q 300 172 315 125 q 220 39 263 92 q 106 -14 178 -14 z "},"y":{"ha":671,"x_min":-47,"x_max":628,"o":"m 92 -383 q -6 -353 35 -383 q -47 -271 -47 -322 q -23 -202 -47 -231 q 38 -174 1 -174 q 61 -179 54 -174 q 72 -192 68 -185 q 98 -223 83 -210 q 138 -236 113 -236 q 202 -212 171 -236 q 260 -158 233 -189 q 317 -83 283 -132 q 383 29 350 -33 q 326 -9 353 3 q 276 -21 300 -21 q 219 1 247 -21 q 185 82 192 22 q 169 183 181 128 q 140 291 157 239 q 97 379 122 343 q 75 404 88 396 q 39 415 63 413 q 17 425 22 417 q 13 451 13 433 q 40 532 13 501 q 115 563 68 563 q 197 519 172 563 q 240 413 222 475 q 255 347 247 388 q 269 258 263 306 q 278 168 275 211 q 313 138 279 138 q 397 165 357 138 q 463 238 438 193 q 489 331 489 282 q 482 381 489 358 q 458 419 475 403 q 436 447 444 436 q 428 471 428 457 q 450 515 428 494 q 503 550 472 536 q 558 564 535 564 q 614 524 600 564 q 621 438 628 485 q 588 283 613 372 q 523 97 563 194 q 433 -91 483 0 q 325 -250 382 -182 q 217 -347 276 -310 q 92 -383 157 -383 z "},"ý":{"ha":671,"x_min":-47,"x_max":628,"o":"m 92 -383 q -6 -353 35 -383 q -47 -271 -47 -322 q -23 -202 -47 -231 q 38 -174 1 -174 q 61 -179 54 -174 q 72 -192 68 -185 q 98 -223 83 -210 q 138 -236 113 -236 q 202 -212 171 -236 q 260 -158 233 -189 q 317 -83 283 -132 q 383 29 350 -33 q 326 -9 353 3 q 276 -21 300 -21 q 219 1 247 -21 q 185 82 192 22 q 169 183 181 128 q 140 291 157 239 q 97 379 122 343 q 75 404 88 396 q 39 415 63 413 q 17 425 22 417 q 13 451 13 433 q 40 532 13 501 q 115 563 68 563 q 197 519 172 563 q 240 413 222 475 q 255 347 247 388 q 269 258 263 306 q 278 168 275 211 q 313 138 279 138 q 397 165 357 138 q 463 238 438 193 q 489 331 489 282 q 482 381 489 358 q 458 419 475 403 q 436 447 444 436 q 428 471 428 457 q 450 515 428 494 q 503 550 472 536 q 558 564 535 564 q 614 524 600 564 q 621 438 628 485 q 588 283 613 372 q 523 97 563 194 q 433 -91 483 0 q 325 -250 382 -182 q 217 -347 276 -310 q 92 -383 157 -383 m 310 633 q 278 664 278 633 q 286 694 278 681 q 347 785 315 740 q 411 863 378 829 q 475 894 443 894 q 522 874 497 894 q 546 824 546 853 q 539 795 546 811 q 517 765 532 779 q 434 700 482 731 q 336 642 386 669 q 310 633 322 633 z "},"ÿ":{"ha":671,"x_min":-47,"x_max":628,"o":"m 92 -383 q -6 -353 35 -383 q -47 -271 -47 -322 q -23 -202 -47 -231 q 38 -174 1 -174 q 61 -179 54 -174 q 72 -192 68 -185 q 98 -223 83 -210 q 138 -236 113 -236 q 202 -212 171 -236 q 260 -158 233 -189 q 317 -83 283 -132 q 383 29 350 -33 q 326 -9 353 3 q 276 -21 300 -21 q 219 1 247 -21 q 185 82 192 22 q 169 183 181 128 q 140 291 157 239 q 97 379 122 343 q 75 404 88 396 q 39 415 63 413 q 17 425 22 417 q 13 451 13 433 q 40 532 13 501 q 115 563 68 563 q 197 519 172 563 q 240 413 222 475 q 255 347 247 388 q 269 258 263 306 q 278 168 275 211 q 313 138 279 138 q 397 165 357 138 q 463 238 438 193 q 489 331 489 282 q 482 381 489 358 q 458 419 475 403 q 436 447 444 436 q 428 471 428 457 q 450 515 428 494 q 503 550 472 536 q 558 564 535 564 q 614 524 600 564 q 621 438 628 485 q 588 283 613 372 q 523 97 563 194 q 433 -91 483 0 q 325 -250 382 -182 q 217 -347 276 -310 q 92 -383 157 -383 m 200 669 q 142 690 164 669 q 121 750 121 711 q 147 816 121 790 q 211 842 172 842 q 269 821 247 842 q 290 761 290 800 q 266 696 290 722 q 200 669 242 669 m 476 669 q 417 690 439 669 q 396 750 396 711 q 422 816 396 790 q 488 842 447 842 q 544 821 524 842 q 565 761 565 800 q 541 696 565 722 q 476 669 517 669 z "},"z":{"ha":603,"x_min":28,"x_max":549,"o":"m 282 -15 q 194 -12 233 -15 q 126 -4 156 -10 q 77 11 96 1 q 47 33 58 21 q 33 60 39 43 q 28 90 28 76 q 63 165 28 135 q 146 228 99 196 l 331 356 q 368 397 368 385 q 285 428 368 428 q 196 415 229 428 q 150 383 163 401 q 135 369 142 374 q 118 364 129 364 q 76 387 97 364 q 54 449 54 410 q 89 519 54 494 q 180 555 124 544 q 300 565 236 565 q 419 558 369 565 q 499 531 468 550 q 534 492 522 517 q 546 439 546 467 q 498 350 546 392 q 365 257 450 308 l 210 163 q 196 143 196 154 q 215 126 196 128 q 250 124 229 125 q 296 124 271 124 q 471 153 408 124 q 504 165 494 165 q 534 147 519 165 q 549 99 549 128 q 475 8 549 32 q 282 -15 401 -15 z "},"ª":{"ha":461,"x_min":26,"x_max":442,"o":"m 150 467 q 60 501 94 467 q 26 599 26 535 q 58 719 26 661 q 148 815 90 778 q 285 853 206 853 q 381 833 340 853 q 421 774 421 814 q 413 729 421 756 q 392 703 404 703 q 375 708 386 703 q 371 646 371 678 q 383 585 371 610 q 421 554 394 560 q 442 535 442 551 q 436 508 442 525 q 417 479 431 492 q 376 467 403 467 q 319 495 338 467 q 301 565 301 524 l 301 568 q 238 495 276 524 q 150 467 200 467 m 183 579 q 237 598 214 579 q 274 646 260 617 q 288 686 283 665 q 293 729 292 707 q 263 740 281 736 q 228 744 246 744 q 150 717 181 744 q 119 646 119 689 q 137 597 119 615 q 183 579 154 579 z "},"º":{"ha":428,"x_min":38,"x_max":400,"o":"m 193 469 q 90 505 129 469 q 50 608 50 540 q 75 711 50 664 q 56 703 63 703 q 42 722 46 703 q 38 753 38 742 q 47 788 38 775 q 67 808 57 801 q 129 844 88 825 q 231 864 171 864 q 356 819 311 864 q 400 693 400 775 q 374 580 400 631 q 302 499 349 529 q 193 469 256 469 m 219 582 q 288 606 260 582 q 317 672 317 631 q 289 731 317 713 q 225 750 261 750 q 194 747 208 750 q 168 739 179 743 q 150 703 158 722 q 142 660 142 683 q 165 601 142 621 q 219 582 188 582 z "},"⁄":{"ha":329,"x_min":-200,"x_max":529,"o":"m -136 -6 q -177 9 -154 -6 q -200 44 -200 24 q -178 93 -200 63 q -138 144 -161 117 q -82 211 -115 172 q -1 308 -49 250 q 115 450 47 365 q 194 550 153 497 q 275 653 236 603 q 342 742 314 703 q 371 784 354 758 q 402 835 388 810 q 422 874 417 861 q 442 892 429 888 q 468 897 454 897 q 509 887 489 897 q 529 856 529 876 q 510 803 529 838 q 451 725 492 769 q 406 670 435 704 q 342 594 376 636 q 272 510 307 553 q 208 431 238 467 q 81 272 129 332 q 5 175 32 211 q -40 115 -22 139 q -79 54 -65 81 q -100 13 -93 28 q -115 -2 -104 1 q -136 -6 -125 -6 z "},"½":{"ha":1246,"x_min":50,"x_max":1160,"o":"m 249 318 q 193 339 210 318 q 176 403 176 360 q 181 510 176 447 q 193 640 185 572 q 214 764 201 707 q 154 740 188 750 q 93 729 121 729 q 63 738 75 729 q 50 768 50 746 q 56 805 50 783 q 72 829 63 826 q 171 849 124 836 q 257 888 218 863 q 286 897 271 897 q 311 890 297 897 q 325 874 325 883 q 324 862 325 871 q 319 840 322 853 q 303 728 314 801 q 292 560 292 654 q 294 503 292 535 q 303 445 296 472 q 329 404 311 418 q 338 396 335 400 q 340 383 340 392 q 333 359 340 375 q 307 331 326 343 q 249 318 288 318 m 272 -6 q 231 9 254 -6 q 208 44 208 24 q 231 93 208 63 q 270 144 247 117 q 326 211 293 172 q 406 308 358 250 q 522 450 454 365 q 603 550 561 497 q 683 653 644 603 q 750 742 722 703 q 778 784 763 758 q 810 835 794 810 q 831 874 825 861 q 850 892 838 888 q 876 897 863 897 q 917 887 897 897 q 938 856 938 876 q 919 803 938 838 q 860 725 900 769 q 814 670 843 704 q 750 594 785 636 q 681 510 715 553 q 617 431 646 467 q 489 272 538 332 q 413 175 440 211 q 368 115 386 139 q 329 54 343 81 q 308 13 315 28 q 294 -2 304 1 q 272 -6 283 -6 m 943 -10 q 826 -2 872 -10 q 765 25 781 6 q 751 65 751 43 q 758 88 751 79 q 783 107 765 97 q 943 242 869 156 q 994 319 975 281 q 1013 389 1013 357 q 992 444 1013 425 q 936 463 972 463 q 883 453 908 463 q 839 432 857 443 q 820 422 829 426 q 803 417 811 417 q 781 431 789 417 q 774 463 774 444 q 785 498 774 483 q 815 525 796 513 q 886 559 851 549 q 956 569 921 569 q 1083 529 1035 569 q 1131 421 1131 489 q 1091 292 1131 363 q 983 160 1051 222 q 943 126 963 142 q 906 99 924 111 q 941 97 918 97 q 979 96 964 96 q 1065 107 1040 96 q 1103 128 1089 118 q 1114 135 1108 132 q 1125 139 1119 139 q 1150 122 1140 139 q 1160 81 1160 104 q 1109 12 1160 33 q 943 -10 1058 -10 z "},"¼":{"ha":1154,"x_min":50,"x_max":1074,"o":"m 249 318 q 193 339 210 318 q 176 403 176 360 q 181 510 176 447 q 193 640 185 572 q 214 764 201 707 q 154 740 188 750 q 93 729 121 729 q 63 738 75 729 q 50 768 50 746 q 56 805 50 783 q 72 829 63 826 q 171 849 124 836 q 257 888 218 863 q 286 897 271 897 q 311 890 297 897 q 325 874 325 883 q 324 862 325 871 q 319 840 322 853 q 303 728 314 801 q 292 560 292 654 q 294 503 292 535 q 303 445 296 472 q 329 404 311 418 q 338 396 335 400 q 340 383 340 392 q 333 359 340 375 q 307 331 326 343 q 249 318 288 318 m 272 -6 q 231 9 254 -6 q 208 44 208 24 q 231 93 208 63 q 270 144 247 117 q 326 211 293 172 q 406 308 358 250 q 522 450 454 365 q 603 550 561 497 q 683 653 644 603 q 750 742 722 703 q 778 784 763 758 q 810 835 794 810 q 831 874 825 861 q 850 892 838 888 q 876 897 863 897 q 917 887 897 897 q 938 856 938 876 q 919 803 938 838 q 860 725 900 769 q 814 670 843 704 q 750 594 785 636 q 681 510 715 553 q 617 431 646 467 q 489 272 538 332 q 413 175 440 211 q 368 115 386 139 q 329 54 343 81 q 308 13 315 28 q 294 -2 304 1 q 272 -6 283 -6 m 938 -7 q 892 7 911 -7 q 874 64 874 21 q 876 102 874 79 q 881 151 878 125 l 719 149 q 675 172 693 149 q 657 219 657 194 q 676 279 657 243 q 746 377 701 328 q 838 469 790 426 q 921 538 886 511 q 959 562 943 553 q 990 571 975 571 q 1015 558 1010 571 q 1019 524 1019 546 q 1012 423 1019 493 q 990 263 1004 353 l 1029 263 q 1065 259 1057 263 q 1074 243 1074 256 q 1066 208 1074 229 q 1047 169 1058 186 q 1022 153 1036 153 q 1001 153 1013 153 q 978 151 989 153 q 984 101 978 119 q 1013 71 990 82 q 1022 54 1022 65 q 1015 32 1022 47 q 990 5 1008 17 q 938 -7 972 -7 m 790 250 q 840 254 815 253 q 890 257 865 256 q 897 301 893 272 q 904 356 901 329 q 907 392 907 382 q 900 404 907 404 q 883 397 894 404 q 828 348 858 379 q 774 279 799 317 q 769 267 769 274 q 790 250 769 250 z "},"¾":{"ha":1179,"x_min":69,"x_max":1085,"o":"m 297 -6 q 256 9 279 -6 q 233 44 233 24 q 256 93 233 63 q 295 144 272 117 q 351 211 318 172 q 433 308 385 250 q 549 450 481 365 q 628 550 586 497 q 708 653 669 603 q 775 742 747 703 q 804 784 788 758 q 835 835 821 810 q 856 874 850 861 q 875 892 863 888 q 901 897 888 897 q 942 887 922 897 q 963 856 963 876 q 944 803 963 838 q 885 725 925 769 q 839 670 868 704 q 775 594 810 636 q 706 510 740 553 q 642 431 671 467 q 514 272 563 332 q 438 175 465 211 q 393 115 411 139 q 354 54 368 81 q 333 13 340 28 q 319 -2 329 1 q 297 -6 308 -6 m 221 317 q 112 344 153 317 q 69 417 71 371 q 85 464 69 444 q 117 483 100 483 q 149 463 131 483 q 189 436 158 451 q 265 421 219 421 q 339 439 311 421 q 367 488 367 457 q 315 550 367 528 q 279 560 297 557 q 246 564 261 563 q 214 583 219 567 q 204 622 204 606 q 211 640 204 633 q 229 650 218 646 q 299 685 267 661 q 332 742 332 708 q 311 777 332 768 q 260 786 290 786 q 178 768 213 786 q 155 758 165 763 q 138 753 144 753 q 119 763 128 753 q 111 796 111 774 q 118 827 111 813 q 147 856 125 842 q 204 883 171 872 q 278 893 238 893 q 392 860 351 893 q 432 774 432 826 q 408 696 432 731 q 349 642 385 661 q 451 513 451 614 q 422 414 451 458 q 341 343 393 369 q 221 317 289 317 m 950 -7 q 904 7 924 -7 q 885 64 885 21 q 887 102 885 79 q 892 151 889 125 l 732 149 q 687 172 704 149 q 669 219 669 194 q 674 247 669 232 q 688 279 679 261 q 758 377 714 328 q 851 469 803 426 q 933 538 899 511 q 971 562 954 553 q 1003 571 988 571 q 1027 558 1022 571 q 1032 524 1032 546 q 1024 423 1032 493 q 1003 263 1015 353 l 1042 263 q 1077 259 1069 263 q 1085 243 1085 256 q 1077 208 1085 229 q 1058 169 1069 186 q 1035 153 1047 153 q 1013 153 1025 153 q 989 151 1001 153 q 995 101 989 119 q 1024 71 1001 82 q 1035 54 1035 65 q 1028 32 1035 47 q 1002 5 1021 17 q 950 -7 983 -7 m 803 250 q 853 254 828 253 q 903 257 878 256 q 909 301 906 272 q 915 356 913 329 q 918 392 918 382 q 913 404 918 404 q 896 397 907 404 q 840 348 871 379 q 785 279 810 317 q 782 267 782 271 q 803 250 782 250 z "},"¹":{"ha":382,"x_min":19,"x_max":311,"o":"m 218 417 q 164 437 181 417 q 147 500 147 457 q 151 607 147 544 q 164 737 156 669 q 183 861 172 804 q 124 837 157 847 q 64 826 92 826 q 33 835 46 826 q 19 865 19 843 q 26 902 19 881 q 43 926 33 924 q 142 947 94 933 q 228 985 189 960 q 257 994 242 994 q 282 988 268 994 q 296 971 296 981 q 294 959 296 968 q 290 938 293 950 q 274 825 285 899 q 263 657 263 751 q 265 601 263 632 q 274 542 267 569 q 300 501 282 515 q 311 482 311 493 q 304 458 311 474 q 277 429 297 442 q 218 417 257 417 z "},"²":{"ha":469,"x_min":33,"x_max":442,"o":"m 224 413 q 108 419 153 413 q 47 447 63 426 q 37 466 40 456 q 33 486 33 476 q 40 509 33 500 q 64 528 46 518 q 224 663 150 576 q 293 811 293 744 q 273 865 293 847 q 217 883 253 883 q 165 874 190 883 q 119 853 139 864 q 101 843 110 847 q 83 839 92 839 q 63 852 71 839 q 54 883 54 865 q 66 919 54 906 q 96 947 78 933 q 167 981 132 971 q 238 990 203 990 q 365 950 317 990 q 413 843 413 910 q 372 713 413 783 q 265 582 332 643 q 225 547 244 563 q 186 519 206 532 q 223 517 200 518 q 260 517 246 517 q 346 528 321 517 q 383 550 371 540 q 395 556 389 553 q 407 560 401 560 q 431 542 421 560 q 442 501 442 525 q 391 433 442 454 q 224 413 340 413 z "},"³":{"ha":442,"x_min":31,"x_max":414,"o":"m 183 414 q 73 441 114 414 q 31 514 32 468 q 46 561 31 542 q 78 581 61 581 q 110 560 92 581 q 150 533 119 549 q 226 518 181 518 q 300 536 272 518 q 328 585 328 554 q 316 620 328 604 q 276 647 304 636 q 240 657 258 654 q 207 661 222 660 q 175 682 182 663 q 165 719 165 701 q 172 737 165 731 q 190 747 179 743 q 260 782 228 758 q 293 839 293 806 q 272 874 293 865 q 221 883 251 883 q 139 865 174 883 q 116 855 126 860 q 99 850 106 850 q 81 860 89 850 q 72 893 72 871 q 80 925 72 911 q 108 953 88 939 q 165 980 132 969 q 239 990 199 990 q 353 957 313 990 q 393 871 393 924 q 369 794 393 829 q 310 739 346 758 q 414 610 414 711 q 384 511 414 556 q 303 440 354 467 q 183 414 251 414 z "},"⁴":{"ha":465,"x_min":18,"x_max":435,"o":"m 299 415 q 253 428 272 415 q 235 485 235 442 q 237 523 235 500 q 242 574 239 546 l 82 569 q 36 593 54 569 q 18 642 18 617 q 38 700 18 665 q 108 798 63 749 q 201 890 153 847 q 283 958 249 932 q 320 983 304 974 q 351 992 336 992 q 376 980 371 992 q 382 946 382 968 q 374 844 382 914 q 351 683 365 774 l 390 683 q 426 681 418 683 q 435 664 435 678 q 427 628 435 650 q 408 591 419 607 q 383 575 397 575 q 362 575 374 575 q 339 574 350 575 q 345 522 339 540 q 374 492 351 503 q 383 476 383 488 q 376 453 383 468 q 351 427 369 439 q 299 415 333 415 m 151 672 q 201 676 176 675 q 251 679 226 678 q 258 722 254 694 q 265 777 263 750 q 268 814 268 804 q 261 825 268 825 q 246 818 256 825 q 190 769 221 800 q 135 700 160 738 q 131 688 131 694 q 151 672 131 669 z "},"*":{"ha":532,"x_min":24,"x_max":507,"o":"m 260 703 q 241 710 249 703 q 222 735 233 718 q 195 794 208 763 q 182 850 182 825 q 199 892 182 876 q 246 907 217 907 q 291 883 278 907 q 304 819 304 858 q 297 749 304 788 q 287 714 294 725 q 260 703 279 703 m 346 661 q 319 673 328 661 q 311 694 311 685 q 331 728 311 706 q 374 771 350 750 q 414 800 399 792 q 447 810 429 810 q 491 787 475 810 q 507 744 507 764 q 471 692 507 713 q 433 678 460 686 q 381 666 407 671 q 346 661 356 661 m 103 622 q 24 681 24 622 q 40 727 24 708 q 83 746 57 746 q 133 734 103 746 q 194 707 164 722 q 223 688 214 697 q 229 664 232 679 q 217 642 226 649 q 183 632 207 636 q 142 625 164 628 q 103 622 121 622 m 414 463 q 356 497 381 463 q 311 571 331 531 q 299 606 299 592 q 308 626 299 617 q 329 635 318 635 q 344 632 336 635 q 363 625 353 629 q 441 579 407 603 q 475 524 475 556 q 456 482 475 501 q 414 463 438 463 m 194 422 q 151 439 172 422 q 129 482 129 456 q 152 539 129 510 q 203 597 175 568 q 240 619 224 619 q 263 611 253 619 q 272 583 272 603 q 265 517 272 553 q 247 461 257 481 q 194 422 225 422 z "},"\\":{"ha":510,"x_min":40,"x_max":513,"o":"m 429 -272 q 398 -258 411 -272 q 374 -208 385 -243 q 343 -105 360 -167 q 301 53 326 -43 q 233 294 275 149 q 195 427 215 358 q 156 558 175 496 q 122 664 136 621 q 94 748 108 713 q 72 801 81 783 q 51 846 61 829 q 40 878 40 863 q 67 933 40 908 q 119 957 94 957 q 169 917 150 957 q 210 803 188 878 q 228 734 217 781 q 256 627 240 688 q 290 501 272 567 q 326 374 308 436 q 387 169 363 251 q 427 36 411 88 q 453 -47 443 -15 q 474 -100 464 -78 q 489 -137 483 -122 q 506 -174 500 -160 q 513 -200 513 -187 q 483 -253 513 -233 q 429 -272 454 -272 z "},"·":{"ha":299,"x_min":57,"x_max":242,"o":"m 144 261 q 81 283 104 261 q 57 346 57 306 q 85 416 57 389 q 156 443 113 443 q 219 421 196 443 q 242 358 242 399 q 215 289 242 317 q 144 261 189 261 z "},"•":{"ha":432,"x_min":67,"x_max":364,"o":"m 207 174 q 104 210 142 174 q 67 310 67 246 q 110 423 67 379 q 226 467 154 467 q 328 431 292 467 q 364 331 364 396 q 321 218 364 263 q 207 174 278 174 z "},":":{"ha":365,"x_min":81,"x_max":285,"o":"m 192 361 q 128 386 153 361 q 104 450 104 411 q 131 517 104 490 q 199 543 158 543 q 261 519 238 543 q 285 457 285 496 q 259 388 285 415 q 192 361 233 361 m 168 -12 q 105 13 129 -12 q 81 76 81 38 q 107 143 81 117 q 175 169 133 169 q 238 146 214 169 q 261 83 261 122 q 235 15 261 42 q 168 -12 208 -12 z "},",":{"ha":342,"x_min":51,"x_max":263,"o":"m 82 -215 q 60 -209 69 -215 q 51 -189 51 -203 q 82 -146 51 -169 q 130 -80 114 -118 q 146 -18 146 -42 q 141 -2 146 -8 q 117 14 136 4 q 90 43 99 24 q 81 82 81 63 q 106 142 81 115 q 174 169 131 169 q 238 144 213 169 q 263 61 263 118 q 245 -33 263 14 q 203 -119 228 -81 q 151 -182 178 -158 q 82 -215 114 -215 z "},"…":{"ha":992,"x_min":81,"x_max":911,"o":"m 168 -15 q 105 10 129 -15 q 81 74 81 35 q 107 140 81 114 q 175 167 133 167 q 238 143 214 167 q 261 82 261 119 q 235 12 261 39 q 168 -15 208 -15 m 493 -15 q 430 10 454 -15 q 406 74 406 35 q 433 140 406 114 q 500 167 460 167 q 563 143 539 167 q 586 82 586 119 q 560 12 586 39 q 493 -15 535 -15 m 817 -15 q 753 10 778 -15 q 729 74 729 35 q 756 140 729 114 q 824 167 783 167 q 888 143 864 167 q 911 82 911 119 q 885 12 911 39 q 817 -15 858 -15 z "},"!":{"ha":363,"x_min":81,"x_max":292,"o":"m 181 239 q 149 247 157 239 q 140 271 140 254 q 140 283 140 275 q 142 304 140 290 q 146 372 144 332 q 147 460 147 413 q 136 636 147 578 q 118 721 125 694 q 114 751 114 744 q 140 801 114 774 q 217 828 165 828 q 278 792 265 828 q 292 678 292 757 q 285 546 292 618 q 268 411 278 474 q 250 315 258 349 q 222 251 238 264 q 181 239 206 239 m 168 -11 q 105 14 129 -11 q 81 78 81 39 q 107 144 81 118 q 175 171 133 171 q 238 147 214 171 q 261 85 261 124 q 235 16 261 43 q 168 -11 208 -11 z "},"¡":{"ha":358,"x_min":56,"x_max":293,"o":"m 194 383 q 132 408 156 383 q 110 471 108 432 q 138 539 111 513 q 206 563 165 565 q 269 536 246 561 q 292 472 293 511 q 263 406 290 431 q 194 383 235 382 m 129 -274 q 68 -236 81 -272 q 58 -119 56 -200 q 70 12 61 -60 q 92 146 79 83 q 113 242 104 208 q 144 305 128 293 q 186 315 161 317 q 217 306 210 314 q 225 282 225 299 q 224 269 225 278 q 222 249 224 261 q 217 181 219 222 q 211 92 214 140 q 216 -85 207 -26 q 231 -171 225 -143 q 234 -187 233 -181 q 235 -201 235 -194 q 208 -249 235 -222 q 129 -274 181 -275 z "},"#":{"ha":750,"x_min":29,"x_max":718,"o":"m 183 -14 q 153 -7 161 -14 q 144 17 144 0 q 151 68 144 36 q 167 136 157 100 q 101 131 129 132 q 57 129 74 129 q 29 161 29 129 q 42 216 29 189 q 76 243 54 243 q 89 240 81 243 q 119 233 99 238 q 183 228 140 228 l 210 382 q 141 376 169 378 q 96 375 113 375 q 68 407 68 375 q 80 461 68 435 q 115 488 92 488 q 128 485 119 488 q 158 478 138 483 q 222 474 179 474 q 226 528 226 506 q 224 553 226 544 q 218 568 222 561 q 215 582 215 576 q 235 611 215 596 q 286 626 256 626 q 323 617 313 626 q 333 585 333 608 q 328 546 333 576 q 317 476 324 515 l 476 483 q 478 506 478 494 q 479 528 479 518 q 477 553 479 544 q 471 568 475 561 q 467 582 467 575 q 488 611 467 596 q 539 626 508 626 q 575 617 565 626 q 585 585 585 608 q 581 551 585 578 q 571 488 578 524 q 626 491 600 490 q 661 492 653 492 q 706 484 693 492 q 718 453 718 476 q 701 401 718 421 q 669 381 685 381 q 659 381 664 381 q 649 383 654 382 q 617 390 639 386 q 553 396 596 394 l 526 243 q 585 247 557 246 q 622 247 614 247 q 667 240 654 247 q 681 208 681 232 q 663 155 681 175 q 631 135 646 135 q 610 139 621 135 q 578 145 600 142 q 514 150 557 149 q 510 117 513 139 q 507 86 507 96 q 509 62 507 72 q 513 44 511 51 q 515 26 515 33 q 493 -5 515 4 q 435 -14 471 -14 q 396 17 396 -14 q 403 73 396 36 q 421 150 411 110 l 260 143 q 256 113 258 129 q 254 82 254 96 q 258 46 254 57 q 263 26 263 33 q 240 -5 263 4 q 183 -14 218 -14 m 274 231 l 438 238 l 464 396 l 300 388 l 274 231 z "},".":{"ha":342,"x_min":81,"x_max":261,"o":"m 168 -12 q 105 13 129 -12 q 81 76 81 38 q 107 143 81 117 q 175 169 133 169 q 238 146 214 169 q 261 83 261 122 q 235 15 261 42 q 168 -12 208 -12 z "},"?":{"ha":532,"x_min":74,"x_max":521,"o":"m 226 229 q 153 260 179 229 q 128 333 128 290 q 171 427 128 390 q 296 510 214 464 q 366 562 336 533 q 396 629 396 590 q 361 692 396 672 q 283 711 326 711 q 215 696 243 711 q 186 658 186 681 q 199 637 186 644 q 225 624 211 629 q 239 604 239 619 q 221 549 239 576 q 160 522 203 522 q 101 544 128 522 q 74 614 74 567 q 108 716 74 667 q 200 798 142 765 q 331 831 258 831 q 469 784 417 831 q 521 665 521 738 q 481 547 521 597 q 383 450 442 497 q 324 399 349 424 q 299 354 299 374 q 305 336 299 344 q 317 321 311 328 q 332 292 332 308 q 299 249 332 269 q 226 229 265 229 m 232 -10 q 169 15 193 -10 q 144 79 144 40 q 171 146 144 119 q 239 172 197 172 q 301 149 278 172 q 325 86 325 125 q 299 17 325 44 q 232 -10 272 -10 z "},"¿":{"ha":518,"x_min":-3,"x_max":446,"o":"m 281 375 q 217 399 242 375 q 193 460 193 422 q 219 529 193 503 q 286 556 246 556 q 351 531 326 556 q 375 468 375 507 q 348 401 375 428 q 281 375 321 375 m 188 -283 q 50 -237 103 -283 q -3 -118 -3 -190 q 37 0 -3 -50 q 136 97 76 50 q 195 149 171 125 q 219 192 219 174 q 214 211 219 203 q 201 225 208 219 q 186 254 186 240 q 220 297 186 278 q 292 317 254 317 q 365 288 339 317 q 390 214 390 258 q 347 120 390 157 q 222 38 304 83 q 152 -14 182 15 q 122 -83 122 -43 q 158 -145 122 -126 q 235 -164 193 -164 q 303 -149 275 -164 q 332 -112 332 -135 q 320 -90 332 -97 q 293 -78 308 -82 q 281 -57 281 -74 q 299 -3 281 -29 q 358 24 317 24 q 419 3 392 24 q 446 -67 446 -18 q 412 -169 446 -119 q 319 -251 378 -219 q 188 -283 261 -283 z "},"\"":{"ha":499,"x_min":81,"x_max":415,"o":"m 122 551 q 89 606 93 551 q 83 688 85 639 q 81 781 81 736 q 92 872 81 842 q 156 901 103 901 q 211 842 211 901 q 204 771 211 814 q 188 683 197 728 q 171 603 179 638 q 154 565 165 578 q 122 551 143 551 m 326 550 q 293 604 297 550 q 286 686 289 638 q 283 779 283 735 q 295 870 283 840 q 360 900 307 900 q 415 840 415 900 q 408 769 415 813 q 392 681 401 726 q 375 601 383 636 q 326 550 363 550 z "},"'":{"ha":294,"x_min":81,"x_max":211,"o":"m 122 551 q 89 606 93 551 q 83 688 85 639 q 81 781 81 736 q 92 872 81 842 q 156 901 103 901 q 211 842 211 901 q 204 771 211 814 q 188 683 197 728 q 171 603 179 638 q 154 565 165 578 q 122 551 143 551 z "},";":{"ha":365,"x_min":51,"x_max":285,"o":"m 192 361 q 128 386 153 361 q 104 450 104 411 q 131 517 104 490 q 199 543 158 543 q 261 519 238 543 q 285 457 285 496 q 259 388 285 415 q 192 361 233 361 m 82 -215 q 60 -209 69 -215 q 51 -189 51 -203 q 82 -146 51 -169 q 130 -80 114 -118 q 146 -18 146 -42 q 141 -2 146 -8 q 117 14 136 4 q 90 43 99 24 q 81 82 81 63 q 106 142 81 115 q 174 169 131 169 q 238 144 213 169 q 263 61 263 118 q 245 -33 263 14 q 203 -119 228 -81 q 151 -182 178 -158 q 82 -215 114 -215 z "},"/":{"ha":519,"x_min":-67,"x_max":518,"o":"m 7 -281 q -43 -268 -19 -281 q -67 -229 -67 -256 q -53 -175 -67 -208 q -10 -72 -37 -132 q 59 83 17 -12 q 164 328 101 178 q 219 461 190 392 q 275 595 249 531 q 318 706 301 660 q 349 790 338 753 q 367 850 361 828 q 378 892 374 874 q 383 918 382 910 q 409 945 389 933 q 456 957 429 957 q 500 945 482 957 q 518 906 518 933 q 506 845 518 882 q 474 756 494 808 q 443 685 464 732 q 395 580 422 639 q 340 456 368 521 q 286 332 311 392 q 201 123 235 207 q 146 -12 167 39 q 113 -96 125 -64 q 84 -187 90 -154 q 69 -239 78 -219 q 47 -269 64 -258 q 7 -281 29 -281 z "},"_":{"ha":667,"x_min":0,"x_max":667,"o":"m 0 -281 l 0 -174 l 667 -174 l 667 -281 l 0 -281 z "},"{":{"ha":561,"x_min":108,"x_max":513,"o":"m 317 -286 q 206 -233 244 -286 q 168 -101 168 -179 q 178 -6 168 -61 q 200 103 188 50 q 216 183 210 146 q 222 243 222 221 q 200 306 222 281 q 140 343 178 331 q 108 389 108 353 q 144 450 108 440 q 211 495 181 463 q 242 583 242 528 q 231 692 242 625 q 221 775 225 732 q 217 856 217 818 q 237 969 217 918 q 295 1049 257 1019 q 385 1079 333 1079 q 474 1053 435 1079 q 513 993 513 1026 q 502 964 513 979 q 468 944 492 949 q 364 890 393 928 q 335 783 335 851 q 341 721 335 750 q 354 664 347 692 q 366 617 361 640 q 371 569 371 594 q 349 480 371 517 q 297 423 326 443 q 246 397 268 403 q 292 378 267 393 q 335 333 317 363 q 354 257 354 303 q 346 197 354 226 q 326 135 338 167 q 303 57 314 97 q 293 -31 293 17 q 322 -109 293 -79 q 413 -151 350 -139 q 442 -169 433 -157 q 450 -194 450 -181 q 431 -238 450 -217 q 381 -273 411 -260 q 317 -286 351 -286 z "},"}":{"ha":560,"x_min":49,"x_max":451,"o":"m 175 -286 q 87 -260 125 -286 q 49 -201 49 -235 q 59 -172 49 -187 q 92 -151 69 -157 q 196 -98 167 -136 q 225 8 225 -60 q 219 72 225 42 q 206 128 214 101 q 194 174 199 151 q 189 222 189 197 q 211 313 189 276 q 263 369 233 349 q 315 394 293 389 q 269 415 294 399 q 224 460 243 431 q 206 535 206 490 q 214 597 206 567 q 233 657 222 626 q 256 735 246 694 q 267 822 267 775 q 238 901 267 871 q 149 944 210 931 q 118 960 126 949 q 110 986 110 972 q 129 1031 110 1010 q 179 1065 149 1051 q 244 1079 210 1079 q 353 1025 315 1079 q 392 893 392 971 q 382 797 392 853 q 360 689 372 742 q 344 609 351 646 q 338 550 338 572 q 360 486 338 511 q 419 450 382 461 q 445 433 439 444 q 451 403 451 422 q 417 342 451 354 q 349 297 381 329 q 318 208 318 265 q 329 100 318 169 q 340 17 336 61 q 344 -64 344 -26 q 324 -176 344 -125 q 266 -256 304 -226 q 175 -286 228 -286 z "},"[":{"ha":557,"x_min":179,"x_max":568,"o":"m 356 -286 q 301 -285 329 -286 q 247 -283 274 -285 q 189 -246 199 -281 q 179 -164 179 -211 q 181 -35 179 -121 q 189 165 183 50 q 201 411 194 281 q 217 675 210 554 q 230 877 224 796 q 238 982 236 958 q 258 1053 243 1022 q 315 1083 272 1083 q 406 1083 360 1083 q 490 1079 453 1082 q 540 1069 526 1076 q 560 1042 553 1064 q 568 996 568 1019 q 546 947 568 957 q 479 933 524 936 q 368 921 418 929 q 341 778 353 861 q 322 600 329 694 q 310 411 314 506 q 305 283 307 351 q 303 150 303 215 q 306 -6 303 67 q 315 -121 310 -78 q 367 -131 340 -126 q 425 -140 394 -136 q 488 -154 467 -146 q 508 -194 508 -162 q 498 -245 508 -219 q 469 -278 488 -271 q 426 -284 457 -282 q 356 -286 396 -286 z "},"]":{"ha":558,"x_min":-11,"x_max":379,"o":"m 242 -286 q 152 -285 199 -286 q 69 -282 106 -285 q 17 -274 32 -279 q -3 -244 4 -267 q -11 -200 -11 -222 q 11 -151 -11 -161 q 79 -137 33 -140 q 189 -125 140 -133 q 216 19 204 -64 q 236 196 228 101 q 249 385 244 290 q 253 513 251 446 q 254 647 254 581 q 251 801 254 729 q 243 917 249 874 q 190 927 218 922 q 132 936 163 932 q 71 951 92 943 q 50 990 50 960 q 60 1041 50 1015 q 88 1074 69 1067 q 131 1081 100 1079 q 201 1083 163 1083 q 311 1079 260 1083 q 369 1042 360 1076 q 379 960 379 1007 q 376 832 379 918 q 369 631 374 746 q 356 385 364 515 q 341 121 349 242 q 328 -81 333 0 q 319 -185 322 -161 q 301 -256 315 -226 q 242 -286 286 -286 z "},"(":{"ha":556,"x_min":160,"x_max":535,"o":"m 374 -287 q 335 -278 356 -287 q 296 -239 315 -268 q 235 -117 267 -196 q 181 69 203 -39 q 160 307 160 176 q 186 590 160 456 q 257 836 213 725 q 356 1024 301 947 q 392 1061 371 1043 q 442 1079 414 1079 q 495 1057 469 1079 q 535 989 521 1035 q 451 892 497 951 q 364 751 406 832 q 296 572 322 671 q 269 357 269 472 q 301 124 269 229 q 382 -59 333 18 q 478 -182 431 -136 q 429 -265 457 -242 q 374 -287 401 -287 z "},")":{"ha":556,"x_min":21,"x_max":396,"o":"m 115 -287 q 62 -266 89 -287 q 21 -199 35 -244 q 104 -101 58 -161 q 192 39 150 -42 q 260 219 233 119 q 286 433 286 318 q 254 667 286 563 q 175 850 222 772 q 79 972 128 928 q 128 1056 99 1033 q 183 1079 157 1079 q 221 1069 201 1079 q 260 1029 240 1058 q 322 909 290 988 q 374 723 353 831 q 396 483 396 615 q 370 201 396 336 q 300 -46 344 65 q 200 -233 256 -157 q 165 -270 186 -253 q 115 -287 143 -287 z "},"—":{"ha":1333,"x_min":40,"x_max":1293,"o":"m 69 215 q 45 228 50 215 q 40 258 40 240 q 56 329 40 303 q 76 347 63 340 q 125 354 90 354 l 1267 354 q 1288 344 1282 354 q 1293 319 1293 335 q 1288 285 1293 306 q 1272 251 1283 265 q 1239 236 1260 236 l 646 236 q 288 231 415 236 q 117 218 160 225 q 88 216 99 217 q 69 215 76 215 z "},"–":{"ha":667,"x_min":40,"x_max":628,"o":"m 69 217 q 45 230 50 217 q 40 261 40 243 q 44 301 40 285 q 56 329 49 317 q 74 347 63 340 q 117 354 86 354 l 601 354 q 622 344 617 354 q 628 319 628 335 q 624 285 628 306 q 611 250 621 265 q 582 235 601 235 l 363 235 q 115 222 193 235 q 69 217 81 217 z "},"-":{"ha":457,"x_min":40,"x_max":417,"o":"m 61 213 q 40 253 40 213 q 45 302 40 276 q 61 344 50 328 q 71 353 64 349 q 90 358 78 358 l 390 358 q 412 351 407 358 q 417 328 417 343 q 413 289 417 313 q 399 247 408 265 q 372 229 389 229 l 249 229 q 160 225 200 229 q 93 217 119 221 q 61 213 72 213 z "},"­":{"ha":457,"x_min":40,"x_max":417,"o":"m 61 213 q 40 253 40 213 q 45 302 40 276 q 61 344 50 328 q 71 353 64 349 q 90 358 78 358 l 390 358 q 412 351 407 358 q 417 328 417 343 q 413 289 417 313 q 399 247 408 265 q 372 229 389 229 l 249 229 q 160 225 200 229 q 93 217 119 221 q 61 213 72 213 z "},"«":{"ha":658,"x_min":74,"x_max":599,"o":"m 301 31 q 257 47 282 31 q 201 95 233 64 q 142 158 169 126 q 101 206 114 189 q 74 272 74 239 q 81 310 74 290 q 107 350 89 329 q 152 399 122 367 q 217 463 182 431 q 278 511 251 494 q 301 521 289 518 q 319 524 314 524 q 348 513 340 524 q 356 492 356 503 q 353 477 356 486 q 347 461 350 468 q 315 415 339 446 q 263 349 292 385 q 208 279 235 313 q 257 210 232 247 q 302 142 282 172 q 329 94 322 111 q 338 65 338 78 q 327 40 338 50 q 301 31 317 31 m 544 31 q 500 47 524 31 q 444 95 475 64 q 385 158 413 126 q 344 206 357 189 q 315 272 315 239 q 323 310 315 290 q 349 350 331 329 q 394 399 364 367 q 460 463 425 431 q 519 511 494 494 q 544 521 532 518 q 563 524 556 524 q 590 513 582 524 q 599 492 599 503 q 589 461 599 478 q 558 415 581 446 q 506 349 535 385 q 450 279 478 313 q 499 210 474 247 q 545 142 525 172 q 572 94 565 111 q 581 65 581 78 q 570 40 581 50 q 544 31 560 31 z "},"»":{"ha":658,"x_min":60,"x_max":585,"o":"m 96 31 q 68 42 76 31 q 60 63 60 53 q 69 93 60 76 q 101 140 78 110 q 153 208 124 171 q 208 276 182 244 q 159 346 185 310 q 114 413 133 382 q 86 460 94 444 q 79 489 79 478 q 90 515 79 506 q 115 524 100 524 q 158 508 135 524 q 215 460 183 492 q 275 398 247 429 q 315 350 303 367 q 343 283 343 314 q 335 245 343 265 q 310 206 328 225 q 265 157 296 189 q 199 93 233 125 q 139 44 165 61 q 115 33 126 36 q 96 31 103 31 m 339 31 q 311 42 319 31 q 303 63 303 53 q 313 93 303 76 q 344 140 321 110 q 395 208 367 171 q 450 276 424 244 q 402 346 428 310 q 357 413 376 382 q 329 460 338 444 q 321 489 321 476 q 332 515 321 506 q 357 524 343 524 q 401 508 375 524 q 458 460 426 492 q 517 398 489 429 q 557 350 544 367 q 578 315 572 332 q 585 283 585 299 q 578 245 585 265 q 551 206 571 225 q 507 157 538 189 q 442 93 476 125 q 382 44 408 61 q 358 33 369 36 q 339 31 346 31 z "},"‹":{"ha":415,"x_min":74,"x_max":356,"o":"m 301 31 q 257 47 282 31 q 201 95 233 64 q 142 158 169 126 q 101 206 114 189 q 74 272 74 239 q 81 310 74 290 q 107 350 89 329 q 152 399 122 367 q 217 463 182 431 q 278 511 251 494 q 301 521 289 518 q 319 524 314 524 q 348 513 340 524 q 356 492 356 503 q 353 477 356 486 q 347 461 350 468 q 315 415 339 446 q 263 349 292 385 q 208 279 235 313 q 257 210 232 247 q 302 142 282 172 q 329 94 322 111 q 338 65 338 78 q 327 40 338 50 q 301 31 317 31 z "},"›":{"ha":417,"x_min":60,"x_max":343,"o":"m 96 31 q 68 42 76 31 q 60 63 60 53 q 69 93 60 76 q 101 140 78 110 q 153 208 124 171 q 208 276 182 244 q 159 346 185 310 q 114 413 133 382 q 86 460 94 444 q 79 489 79 478 q 90 515 79 506 q 115 524 100 524 q 158 508 135 524 q 215 460 183 492 q 275 398 247 429 q 315 350 303 367 q 343 283 343 314 q 335 245 343 265 q 310 206 328 225 q 265 157 296 189 q 199 93 233 125 q 139 44 165 61 q 115 33 126 36 q 96 31 103 31 z "},"„":{"ha":499,"x_min":40,"x_max":447,"o":"m 68 -201 q 49 -195 57 -201 q 40 -178 40 -189 q 68 -136 40 -157 q 114 -73 99 -108 q 129 -15 129 -37 q 124 1 129 -6 q 103 15 119 7 q 76 44 85 25 q 67 81 67 63 q 91 138 67 113 q 154 164 115 164 q 217 140 193 164 q 240 61 240 115 q 224 -28 240 17 q 184 -110 208 -74 q 135 -169 160 -147 q 68 -201 99 -201 m 275 -201 q 256 -195 264 -201 q 247 -178 247 -189 q 275 -136 247 -157 q 321 -73 306 -108 q 336 -15 336 -37 q 331 1 336 -6 q 310 15 326 7 q 283 44 292 25 q 274 81 274 63 q 298 138 274 113 q 361 164 322 164 q 424 140 400 164 q 447 61 447 115 q 431 -28 447 17 q 390 -110 414 -74 q 342 -169 365 -147 q 275 -201 303 -201 z "},"“":{"ha":511,"x_min":44,"x_max":461,"o":"m 129 546 q 68 570 92 546 q 44 649 44 594 q 60 739 44 694 q 101 820 76 783 q 150 879 126 857 q 217 911 186 911 q 236 905 228 911 q 244 886 244 899 q 237 867 244 876 q 217 846 229 857 q 170 783 186 819 q 154 724 154 746 q 159 709 154 715 q 182 694 164 703 q 208 666 200 685 q 217 629 217 647 q 193 572 217 597 q 129 546 169 546 m 347 546 q 285 570 308 546 q 261 649 261 594 q 277 739 261 694 q 318 820 293 783 q 367 879 343 857 q 433 911 403 911 q 453 905 444 911 q 461 886 461 899 q 453 867 461 876 q 433 846 446 857 q 388 783 403 819 q 372 724 372 746 q 377 709 372 715 q 399 694 382 703 q 426 666 417 685 q 435 629 435 647 q 411 572 435 597 q 347 546 388 546 z "},"”":{"ha":511,"x_min":38,"x_max":454,"o":"m 65 544 q 46 550 54 544 q 38 568 38 556 q 45 589 38 579 q 65 610 53 599 q 111 673 96 638 q 126 731 126 708 q 122 747 126 740 q 100 760 117 753 q 73 789 82 771 q 64 825 64 807 q 88 883 64 857 q 151 910 113 910 q 214 885 190 910 q 238 807 238 861 q 222 717 238 763 q 181 635 206 672 q 132 576 157 599 q 97 553 115 561 q 65 544 79 544 m 283 544 q 263 550 272 544 q 254 568 254 556 q 262 589 254 579 q 283 610 269 599 q 328 673 313 638 q 344 731 344 708 q 340 747 344 740 q 317 760 335 753 q 290 789 299 771 q 282 825 282 807 q 306 883 282 857 q 369 910 331 910 q 431 885 407 910 q 454 807 454 861 q 438 717 454 763 q 398 635 422 672 q 350 576 374 599 q 283 544 314 544 z "},"‘":{"ha":294,"x_min":44,"x_max":244,"o":"m 129 546 q 68 570 92 546 q 44 649 44 594 q 60 739 44 694 q 101 820 76 783 q 150 879 126 857 q 217 911 186 911 q 236 905 228 911 q 244 886 244 899 q 237 867 244 876 q 217 846 229 857 q 170 783 186 819 q 154 724 154 746 q 159 709 154 715 q 182 694 164 703 q 208 666 200 685 q 217 629 217 647 q 193 572 217 597 q 129 546 169 546 z "},"’":{"ha":294,"x_min":38,"x_max":238,"o":"m 65 544 q 46 549 54 544 q 38 568 38 554 q 45 589 38 579 q 65 610 53 599 q 111 673 96 638 q 126 729 126 708 q 122 747 126 740 q 100 760 117 753 q 73 789 82 771 q 64 825 64 807 q 88 883 64 857 q 151 908 113 908 q 214 885 190 908 q 238 806 238 861 q 222 717 238 761 q 181 635 206 672 q 132 576 157 599 q 97 552 115 560 q 65 544 79 544 z "},"‚":{"ha":294,"x_min":36,"x_max":236,"o":"m 64 -201 q 45 -195 54 -201 q 36 -178 36 -189 q 44 -156 36 -167 q 64 -136 51 -146 q 110 -73 94 -108 q 125 -15 125 -37 q 120 1 125 -6 q 99 15 115 7 q 72 44 81 25 q 63 81 63 63 q 87 138 63 113 q 150 164 111 164 q 213 140 189 164 q 236 61 236 115 q 220 -28 236 17 q 180 -110 204 -74 q 131 -169 156 -147 q 64 -201 94 -201 z "}," ":{"ha":375,"x_min":0,"x_max":0,"o":""}," ":{"ha":375,"x_min":0,"x_max":0,"o":""},"¢":{"ha":633,"x_min":83,"x_max":578,"o":"m 325 -100 q 294 -88 303 -100 q 285 -42 285 -76 q 285 -19 285 -32 q 288 7 286 -7 q 139 76 194 14 q 83 250 83 139 q 113 393 83 326 q 194 508 142 460 q 317 579 246 557 q 313 619 315 600 q 311 653 311 638 q 328 684 311 671 q 374 697 344 697 q 407 672 400 697 q 411 593 414 646 q 534 569 490 593 q 578 508 578 544 q 567 473 578 490 q 544 443 557 456 q 519 422 532 431 q 493 413 506 413 q 456 429 475 413 q 433 444 446 438 q 403 457 421 451 q 397 356 400 417 q 390 238 393 296 q 386 142 388 179 q 451 162 422 149 q 497 186 479 175 q 532 200 515 200 q 560 163 560 200 q 551 122 560 143 q 518 81 542 100 q 383 15 468 32 q 385 -24 385 -8 q 386 -51 386 -40 q 369 -87 386 -75 q 325 -100 353 -100 m 299 147 q 305 243 301 185 q 312 360 308 301 q 317 460 315 419 q 226 401 257 447 q 196 300 196 356 q 225 201 196 240 q 299 147 254 161 z "},"¤":{"ha":661,"x_min":50,"x_max":615,"o":"m 114 25 q 72 46 93 25 q 50 88 50 67 q 69 126 50 108 q 94 149 81 138 q 122 171 108 160 q 106 221 113 193 q 99 282 99 249 q 110 360 99 324 q 139 429 121 397 q 104 456 121 442 q 75 483 88 469 q 51 525 51 504 q 73 567 51 544 q 117 589 94 589 q 153 569 138 589 q 207 503 182 540 q 273 535 238 524 q 349 547 308 547 q 409 540 379 547 q 465 517 439 532 q 487 542 476 531 q 508 565 497 554 q 550 586 528 586 q 592 565 571 586 q 614 522 614 544 q 594 485 614 503 q 539 440 572 463 q 556 391 550 418 q 563 332 563 364 q 553 256 563 293 q 524 186 543 218 q 592 131 564 161 q 615 89 615 110 q 594 48 615 71 q 550 25 572 25 q 514 44 529 25 q 485 77 499 60 q 458 114 472 94 q 391 78 428 92 q 313 65 354 65 q 197 93 250 65 q 177 69 188 82 q 156 49 167 57 q 114 25 135 25 m 332 189 q 422 222 385 190 q 458 308 458 253 q 419 394 458 365 q 331 424 381 424 q 240 392 278 424 q 201 306 203 361 q 242 218 201 247 q 332 189 283 189 z "},"$":{"ha":699,"x_min":47,"x_max":632,"o":"m 321 -133 q 287 -119 297 -133 q 276 -61 276 -106 q 277 -27 276 -46 q 279 11 278 -8 q 163 32 215 13 q 78 85 110 51 q 47 165 47 119 q 62 219 47 199 q 99 239 76 239 q 117 235 110 239 q 131 226 125 232 q 289 158 197 171 q 295 260 292 204 q 304 386 299 317 q 197 422 247 400 q 115 483 146 444 q 83 583 83 522 q 111 694 83 639 q 191 793 139 750 q 317 854 243 836 q 315 878 317 861 q 313 911 314 894 q 311 933 311 928 q 331 971 311 953 q 383 989 351 989 q 425 958 419 989 q 428 867 431 928 q 574 834 515 865 q 632 758 632 803 q 613 712 632 733 q 569 677 594 690 q 526 664 544 664 q 499 676 515 664 q 472 694 490 683 q 418 715 454 706 q 413 614 417 669 q 407 510 410 558 q 523 474 474 496 q 600 415 572 453 q 628 313 628 376 q 599 189 628 249 q 515 85 569 129 q 385 22 461 42 q 389 -31 388 -3 q 390 -72 390 -58 q 372 -118 390 -103 q 321 -133 353 -133 m 311 535 q 315 636 314 586 q 317 722 317 686 q 235 692 267 717 q 203 631 203 667 q 233 572 203 596 q 311 535 264 549 m 390 160 q 486 199 453 171 q 519 269 519 228 q 490 331 519 310 q 399 367 460 351 q 394 249 396 300 q 390 160 392 199 z "},"€":{"ha":853,"x_min":21,"x_max":840,"o":"m 486 -18 q 258 68 347 -18 q 154 304 169 154 q 49 304 76 303 q 21 328 21 307 q 39 378 21 361 q 78 394 57 394 l 153 394 q 158 448 154 422 q 168 500 163 474 q 83 500 107 499 q 56 524 56 503 q 74 574 56 557 q 113 590 92 590 q 147 590 124 590 q 197 588 171 589 q 297 747 233 676 q 449 858 361 817 q 649 899 538 899 q 785 878 729 899 q 840 806 840 858 q 813 738 840 768 q 750 708 785 708 q 728 715 740 708 q 658 742 697 733 q 579 750 619 750 q 408 703 476 750 q 303 586 339 657 q 382 589 333 588 q 488 592 431 590 q 601 594 546 593 q 700 594 657 594 q 742 586 733 594 q 750 558 750 578 q 731 511 750 528 q 693 494 713 494 q 569 495 640 494 q 423 498 499 496 q 275 501 347 500 q 268 443 269 475 q 268 392 267 411 q 393 396 322 394 q 536 398 464 397 q 665 399 608 399 q 707 390 699 399 q 715 363 715 381 q 697 315 715 331 q 658 299 678 299 q 590 299 638 299 q 486 301 543 300 q 375 303 429 303 q 285 306 321 304 q 376 178 313 226 q 536 131 439 131 q 661 153 606 131 q 743 194 717 175 q 789 215 769 215 q 819 175 819 215 q 774 83 819 128 q 653 10 729 39 q 486 -18 578 -18 z "},"£":{"ha":706,"x_min":49,"x_max":682,"o":"m 117 -11 q 68 11 88 -11 q 49 75 49 33 q 81 169 49 135 q 164 210 114 203 q 185 272 175 238 q 194 347 194 307 q 192 376 194 363 q 188 404 190 390 q 153 402 174 403 q 117 401 132 401 q 78 406 93 401 q 63 429 63 411 q 78 476 63 457 q 111 494 93 494 q 131 494 117 494 q 157 492 146 493 q 144 547 149 521 q 139 600 139 574 q 178 748 139 682 q 281 853 217 814 q 422 893 346 893 q 520 875 474 893 q 596 824 567 857 q 625 747 625 792 q 602 687 625 707 q 563 667 579 667 q 543 673 553 667 q 517 693 533 679 q 458 736 492 714 q 375 758 424 758 q 289 730 324 758 q 254 654 254 701 q 261 613 254 635 q 278 571 268 592 q 308 492 297 528 q 419 497 365 494 q 515 499 472 499 q 556 490 546 499 q 567 463 567 482 q 552 415 567 431 q 515 399 538 399 q 442 401 497 399 q 324 406 386 403 q 310 307 324 358 q 267 185 296 256 q 356 150 311 164 q 467 136 400 136 q 544 144 503 136 q 624 183 586 153 q 649 196 639 196 q 673 172 664 196 q 682 124 682 147 q 665 63 682 94 q 611 11 649 32 q 510 -10 574 -10 q 361 13 439 -10 q 217 67 283 36 q 174 12 199 35 q 117 -11 149 -11 z "},"¥":{"ha":785,"x_min":10,"x_max":789,"o":"m 346 -6 q 280 13 301 -6 q 258 79 258 32 q 263 136 258 103 q 276 213 267 169 l 81 211 q 57 235 57 211 q 73 285 57 268 q 106 301 89 301 q 149 301 117 301 q 221 299 181 300 q 296 297 261 299 l 304 324 q 295 365 300 343 q 283 408 290 386 l 90 407 q 68 431 68 407 q 83 481 68 464 q 117 497 99 497 q 172 497 132 497 q 261 493 211 496 q 251 525 256 510 q 240 554 247 540 q 176 678 214 628 q 86 728 138 728 q 69 726 78 728 q 51 722 60 725 q 24 742 39 719 q 10 794 10 764 q 37 863 10 833 q 111 893 64 893 q 219 855 169 893 q 306 726 268 817 q 368 481 344 636 q 428 616 393 544 q 508 751 464 688 q 604 853 553 814 q 713 893 656 893 q 769 875 750 893 q 789 825 789 857 q 780 778 789 803 q 756 735 771 753 q 724 717 742 717 q 713 717 718 717 q 700 721 707 718 q 686 726 693 724 q 668 728 679 728 q 574 672 625 728 q 474 496 522 615 q 549 499 513 499 q 615 500 586 500 q 660 491 651 500 q 668 465 668 482 q 653 418 668 433 q 619 403 638 403 q 543 404 592 403 q 444 408 494 406 q 428 353 435 381 q 418 297 422 325 q 515 301 467 300 q 604 303 564 303 q 649 294 640 303 q 657 269 657 285 q 642 223 657 239 q 610 207 626 207 q 524 209 579 207 q 414 213 468 211 q 422 156 415 183 q 450 107 429 129 q 464 68 464 86 q 431 16 464 38 q 346 -6 397 -6 z "},"∕":{"ha":393,"x_min":-93,"x_max":488,"o":"m -15 -164 q -68 -151 -43 -164 q -93 -110 -93 -137 q -90 -86 -93 -99 q -82 -57 -87 -74 q -39 44 -65 -14 q 30 194 -12 101 q 135 433 72 288 q 191 567 163 497 q 246 700 219 636 q 290 811 272 764 q 320 892 310 856 q 335 950 331 928 q 344 990 342 974 q 350 1015 347 1007 q 376 1040 356 1029 q 422 1050 396 1050 q 469 1038 450 1050 q 488 997 488 1026 q 476 938 488 975 q 444 853 464 901 q 413 783 435 829 q 365 679 392 738 q 311 558 339 621 q 258 436 283 494 q 172 229 206 311 q 117 97 138 147 q 83 14 96 46 q 58 -75 63 -42 q 46 -126 53 -108 q -15 -164 32 -164 z "},"+":{"ha":693,"x_min":75,"x_max":618,"o":"m 314 60 q 285 67 294 60 q 278 96 276 75 l 286 283 l 111 282 q 83 290 90 282 q 75 317 75 299 q 80 350 75 331 q 96 385 85 369 q 124 400 107 401 l 293 396 l 293 556 q 311 592 293 581 q 351 608 329 604 q 386 613 374 613 q 414 605 406 613 q 421 576 422 597 l 413 399 l 583 401 q 612 393 606 401 q 618 368 618 385 q 613 335 618 356 q 598 299 608 315 q 572 282 588 282 l 404 283 l 407 104 q 390 78 407 88 q 350 64 372 68 q 314 60 328 60 z "},"−":{"ha":693,"x_min":89,"x_max":604,"o":"m 125 288 q 89 321 89 288 q 93 355 89 335 q 108 390 97 375 q 140 406 119 406 l 569 406 q 597 398 590 406 q 604 374 604 390 q 599 341 604 361 q 585 304 594 321 q 560 288 575 288 l 125 288 z "},"×":{"ha":693,"x_min":103,"x_max":593,"o":"m 504 92 q 478 107 490 92 l 344 254 l 207 101 q 185 93 199 93 q 153 102 172 93 q 120 125 135 111 q 106 153 106 139 q 118 179 106 165 l 269 326 l 117 478 q 103 504 103 492 q 118 533 103 518 q 153 557 133 547 q 189 567 174 567 q 211 557 201 567 l 347 404 l 486 556 q 513 568 497 568 q 567 548 540 568 q 593 508 593 528 q 579 482 593 496 l 422 331 l 578 182 q 590 154 590 168 q 561 113 590 133 q 504 92 532 92 z "},"÷":{"ha":693,"x_min":76,"x_max":617,"o":"m 349 469 q 285 492 308 469 q 261 553 261 514 q 289 624 261 597 q 360 650 317 650 q 423 628 400 650 q 446 567 446 607 q 419 497 446 525 q 349 469 393 469 m 113 290 q 84 298 92 290 q 76 324 76 306 q 81 357 76 338 q 95 392 85 376 q 126 408 106 408 l 583 408 q 610 401 604 408 q 617 376 617 393 q 613 343 617 364 q 599 306 608 322 q 574 290 589 290 l 113 290 m 335 47 q 272 69 296 47 q 249 131 249 92 q 276 201 249 174 q 347 228 303 228 q 410 206 388 228 q 432 144 432 185 q 406 74 432 101 q 335 47 379 47 z "},"=":{"ha":693,"x_min":83,"x_max":611,"o":"m 132 396 q 96 429 96 396 q 100 463 96 443 q 115 498 104 482 q 147 514 126 514 l 576 514 q 604 506 597 514 q 611 482 611 499 q 606 449 611 469 q 592 412 601 428 q 567 396 582 396 l 132 396 m 118 182 q 91 190 99 182 q 83 215 83 197 q 88 249 83 229 q 102 283 92 268 q 133 299 113 299 l 563 299 q 590 291 583 299 q 597 267 597 283 q 592 234 597 254 q 578 198 588 214 q 553 182 568 182 l 118 182 z "},">":{"ha":693,"x_min":76,"x_max":611,"o":"m 114 74 q 84 87 92 74 q 76 121 76 100 q 95 189 78 165 q 142 222 113 213 l 463 338 l 125 463 q 96 483 107 471 q 86 517 85 496 q 105 578 88 547 q 150 608 122 608 q 192 597 167 608 q 278 558 225 583 q 390 504 332 532 q 495 451 447 476 q 564 413 543 426 q 610 340 611 378 q 558 268 607 300 q 502 238 540 257 q 415 195 464 218 q 315 150 367 172 q 220 110 264 128 q 150 82 176 92 q 114 74 128 74 z "},"<":{"ha":693,"x_min":78,"x_max":617,"o":"m 557 74 q 521 82 544 74 q 452 110 494 92 q 360 150 410 128 q 264 195 311 172 q 179 238 217 218 q 125 268 142 257 q 81 340 78 300 q 93 377 82 360 q 131 413 104 394 q 202 451 153 426 q 312 504 251 476 q 428 558 372 532 q 517 597 483 583 q 557 608 542 608 q 601 578 586 608 q 617 517 617 547 q 572 463 615 478 l 225 339 l 540 222 q 583 189 569 213 q 597 121 597 165 q 588 87 597 100 q 557 74 578 74 z "},"±":{"ha":693,"x_min":83,"x_max":613,"o":"m 314 172 q 285 180 294 172 q 278 208 276 188 l 286 364 l 118 363 q 91 371 99 363 q 83 397 83 379 q 88 431 83 411 q 104 467 93 451 q 132 482 115 483 l 293 478 l 293 606 q 311 641 293 629 q 351 657 329 653 q 386 661 374 661 q 414 653 406 661 q 421 625 422 646 l 413 481 l 578 483 q 606 475 599 483 q 613 450 613 467 q 607 417 613 438 q 591 379 601 396 q 565 363 581 363 l 404 365 l 407 217 q 390 190 407 200 q 350 176 372 181 q 314 172 328 172 m 125 6 q 89 39 89 6 q 93 73 89 53 q 108 108 97 93 q 140 124 119 124 l 569 124 q 597 116 590 124 q 604 92 604 108 q 599 59 604 79 q 585 22 594 39 q 560 6 575 6 l 125 6 z "},"~":{"ha":685,"x_min":78,"x_max":608,"o":"m 443 264 q 380 275 411 264 q 321 297 349 286 q 272 317 296 308 q 224 325 247 325 q 181 315 197 325 q 153 294 165 306 q 135 281 144 286 q 114 275 125 275 q 90 283 103 275 q 78 317 78 292 q 100 378 78 349 q 159 428 122 408 q 239 447 196 447 q 302 437 272 447 q 361 415 332 426 q 410 397 385 406 q 457 388 435 388 q 506 401 485 388 q 539 432 526 415 q 567 450 551 450 q 595 437 582 450 q 608 400 608 424 q 585 335 608 367 q 524 284 561 304 q 443 264 486 264 z "},"¬":{"ha":693,"x_min":67,"x_max":607,"o":"m 521 165 q 486 201 486 165 l 486 382 l 103 382 q 67 415 67 382 q 71 449 67 429 q 86 483 75 468 q 117 499 97 499 l 563 499 q 607 453 607 499 l 607 217 q 591 185 607 196 q 555 169 575 174 q 521 165 535 165 z "},"µ":{"ha":726,"x_min":38,"x_max":700,"o":"m 156 -337 q 110 -321 125 -337 q 88 -260 94 -304 q 75 -72 75 -169 q 81 71 75 0 q 100 206 88 142 q 113 290 110 254 q 117 347 117 325 q 78 421 117 401 q 49 439 61 429 q 38 463 38 449 q 55 505 38 482 q 101 544 72 528 q 161 561 129 561 q 221 527 204 561 q 238 440 238 493 q 234 374 238 408 q 225 313 231 340 q 217 228 217 261 q 235 165 217 193 q 293 136 253 136 q 360 160 329 136 q 415 224 390 185 q 458 308 439 263 q 490 396 478 353 l 490 426 q 513 524 490 488 q 594 561 536 561 q 640 532 640 561 q 634 497 640 522 q 620 442 628 471 q 608 392 613 413 q 598 332 603 369 q 593 251 593 294 q 609 165 593 197 q 672 118 625 133 q 692 111 683 117 q 700 88 700 106 q 692 49 700 72 q 660 6 683 25 q 593 -12 638 -12 q 518 18 547 -12 q 489 131 489 49 q 491 169 489 150 q 494 206 493 188 l 492 207 q 449 96 474 147 q 388 14 424 44 q 296 -17 351 -17 q 188 31 231 -17 q 194 -43 190 -8 q 207 -110 199 -78 q 227 -180 214 -147 q 254 -243 240 -212 q 263 -262 260 -253 q 267 -278 267 -271 q 232 -319 267 -301 q 156 -337 197 -337 z "},"%":{"ha":950,"x_min":26,"x_max":922,"o":"m 192 -42 q 139 -28 161 -42 q 117 11 117 -14 q 144 81 117 40 q 197 157 171 122 q 269 251 228 197 q 351 359 311 306 q 417 447 392 413 q 491 550 453 497 q 563 651 529 603 q 621 736 597 700 q 672 817 651 781 q 703 879 692 853 q 722 910 713 901 q 761 919 732 919 q 814 906 792 919 q 836 868 836 893 q 810 798 836 839 q 756 721 783 757 q 689 635 728 685 q 609 528 650 585 q 529 419 568 472 q 484 358 511 394 q 428 281 457 321 q 374 204 400 240 q 332 143 349 168 q 281 63 301 99 q 250 0 261 28 q 231 -32 242 -22 q 192 -42 221 -42 m 207 468 q 119 488 161 468 q 52 549 78 507 q 26 658 26 592 q 53 778 26 725 q 126 863 79 832 q 238 893 174 893 q 326 874 285 893 q 392 813 367 854 q 417 704 417 771 q 390 584 417 638 q 317 499 364 531 q 207 468 271 468 m 224 583 q 296 610 265 583 q 326 683 326 636 q 294 757 326 732 q 219 781 261 782 q 149 753 179 781 q 118 682 118 726 q 151 608 117 632 q 224 583 185 583 m 713 -18 q 626 1 667 -18 q 559 63 585 21 q 533 171 533 104 q 560 290 533 238 q 633 374 586 343 q 744 406 681 406 q 832 386 792 406 q 897 325 872 367 q 922 217 922 283 q 896 97 922 150 q 823 13 869 44 q 713 -18 776 -18 m 731 96 q 801 122 771 96 q 832 194 832 149 q 800 268 832 243 q 725 292 768 293 q 655 265 685 292 q 625 193 625 238 q 657 120 624 144 q 731 96 690 96 z "},"@":{"ha":1025,"x_min":76,"x_max":953,"o":"m 451 -143 q 253 -98 338 -143 q 122 29 168 -53 q 76 221 76 111 q 116 419 76 325 q 225 586 156 513 q 387 701 294 660 q 583 743 479 743 q 770 704 686 743 q 903 593 854 665 q 953 419 953 521 q 935 301 953 360 q 883 195 917 243 q 803 118 850 147 q 699 89 757 89 q 620 118 640 89 q 600 199 600 147 l 600 204 q 528 119 572 153 q 426 86 485 86 q 326 126 364 86 q 288 238 288 165 q 324 374 288 308 q 426 483 360 440 q 582 526 492 526 q 689 506 644 526 q 733 449 733 485 q 731 419 733 439 q 725 390 728 400 q 717 376 722 382 q 701 369 711 369 q 688 372 696 369 q 683 333 685 354 q 682 290 682 313 q 693 219 682 251 q 736 186 704 186 q 795 213 769 186 q 835 281 821 239 q 850 367 850 322 q 808 502 850 446 q 697 588 765 558 q 550 618 629 618 q 408 590 475 618 q 292 514 342 563 q 213 401 242 465 q 185 267 185 338 q 232 110 185 174 q 358 13 279 46 q 532 -19 436 -19 q 683 1 615 -19 q 700 6 692 6 q 719 -2 713 6 q 725 -21 725 -10 q 704 -64 725 -40 q 647 -106 683 -87 q 553 -133 606 -124 q 451 -143 500 -143 m 464 208 q 528 231 500 208 q 572 288 556 253 q 588 338 582 311 q 596 393 593 365 q 560 401 581 397 q 517 406 539 406 q 424 372 461 406 q 388 289 388 339 q 408 231 388 253 q 464 208 429 208 z "},"&":{"ha":897,"x_min":42,"x_max":868,"o":"m 311 -18 q 116 47 190 -18 q 42 222 42 111 q 103 400 42 326 q 267 519 165 474 q 241 601 251 561 q 231 682 231 642 q 261 799 231 751 q 340 872 292 847 q 443 897 389 897 q 537 876 494 897 q 606 817 579 856 q 632 724 632 778 q 602 622 632 667 q 522 541 572 576 q 408 478 471 506 q 493 349 444 415 q 592 235 542 283 q 653 304 629 268 q 676 378 676 340 q 663 415 676 406 q 636 428 650 424 q 610 440 619 433 q 601 461 601 446 q 618 515 601 486 q 661 564 635 543 q 718 585 688 585 q 768 559 746 585 q 790 463 790 533 q 762 319 790 392 q 671 176 733 247 q 740 153 707 153 q 778 161 765 153 q 800 179 790 169 q 814 190 807 186 q 831 194 821 194 q 868 138 868 194 q 852 70 868 106 q 803 11 836 35 q 715 -12 769 -12 q 628 8 667 -12 q 554 65 590 29 q 440 3 499 25 q 311 -18 381 -18 m 367 560 q 462 619 425 588 q 499 689 499 651 q 479 735 499 717 q 424 754 460 754 q 364 730 386 754 q 342 664 342 706 q 348 617 342 644 q 367 560 354 589 m 332 129 q 401 136 364 129 q 469 157 438 143 q 410 243 443 192 q 349 347 378 294 q 304 436 321 400 q 202 360 239 406 q 165 263 165 315 q 211 166 165 203 q 332 129 257 129 z "},"¶":{"ha":688,"x_min":38,"x_max":681,"o":"m 208 -276 q 126 -263 165 -276 q 63 -222 88 -250 q 38 -150 38 -193 q 54 -92 38 -119 q 107 -64 71 -64 q 139 -78 125 -64 q 192 -105 161 -96 q 250 -114 224 -114 q 343 -81 300 -114 q 403 26 386 -49 q 416 157 414 78 q 417 315 418 236 q 276 281 350 281 q 120 348 178 281 q 63 540 63 415 q 106 728 63 646 q 233 859 149 811 q 438 907 317 907 q 517 901 475 907 q 597 885 560 896 q 657 856 633 874 q 681 811 681 838 q 674 776 681 799 q 656 735 668 754 q 624 717 643 717 q 601 720 617 717 q 567 729 586 724 q 562 458 568 594 q 542 204 556 322 q 506 7 529 86 q 392 -198 468 -119 q 208 -276 317 -276 z "},"§":{"ha":674,"x_min":53,"x_max":617,"o":"m 261 -275 q 158 -256 206 -275 q 81 -200 110 -236 q 53 -117 53 -164 q 65 -68 53 -89 q 96 -47 76 -47 q 126 -60 113 -47 q 198 -108 153 -86 q 293 -129 243 -129 q 401 -99 360 -129 q 442 -18 442 -69 q 401 51 442 32 q 289 90 361 71 q 179 130 232 106 q 93 200 126 154 q 60 321 60 246 q 88 434 60 385 q 163 517 117 483 q 133 568 144 540 q 121 635 121 596 q 155 764 121 700 q 253 870 189 828 q 410 913 318 913 q 538 883 485 913 q 590 801 590 854 q 565 740 590 763 q 521 717 540 717 q 494 726 510 717 q 441 753 481 736 q 353 769 401 769 q 265 742 296 769 q 233 682 233 714 q 261 626 233 650 q 335 586 289 603 q 435 553 382 569 q 567 483 517 528 q 617 347 617 438 q 591 228 617 279 q 519 142 565 178 q 556 21 556 101 q 519 -124 556 -57 q 417 -233 483 -192 q 261 -275 351 -275 m 436 200 q 482 249 464 222 q 500 313 500 276 q 460 385 500 365 q 349 425 421 406 q 294 442 321 433 q 242 463 267 451 q 193 415 211 440 q 175 357 175 390 q 203 292 175 317 q 278 250 232 267 q 378 218 325 233 q 408 210 393 215 q 436 200 422 206 z "},"©":{"ha":989,"x_min":83,"x_max":906,"o":"m 465 -18 q 326 4 394 -18 q 203 74 258 26 q 116 194 149 121 q 83 369 83 268 q 140 609 83 503 q 297 776 197 715 q 524 838 396 838 q 663 815 594 838 q 785 744 731 792 q 873 624 840 697 q 906 450 906 551 q 873 265 906 350 q 781 117 840 181 q 642 17 722 53 q 465 -18 561 -18 m 494 106 q 658 144 585 107 q 774 251 731 182 q 817 413 817 319 q 771 578 817 511 q 651 681 725 646 q 493 717 576 717 q 335 677 406 717 q 223 567 264 638 q 182 404 182 497 q 225 239 182 306 q 340 139 268 172 q 494 106 413 106 m 451 185 q 331 230 375 185 q 286 354 286 275 q 324 497 286 432 q 425 602 363 563 q 561 642 488 642 q 640 624 610 642 q 671 576 671 607 q 663 549 671 563 q 643 522 656 535 q 620 505 635 515 q 594 494 606 494 q 581 500 588 494 q 568 511 575 506 q 540 531 554 524 q 506 538 525 538 q 419 497 456 538 q 383 400 383 457 q 413 322 383 351 q 490 292 443 292 q 552 305 522 292 q 600 328 582 318 q 613 335 606 331 q 626 339 619 339 q 650 311 650 339 q 614 242 650 274 q 542 201 588 217 q 451 185 496 185 z "},"®":{"ha":533,"x_min":22,"x_max":511,"o":"m 249 436 q 141 460 193 436 q 56 535 89 485 q 22 667 22 586 q 56 809 22 746 q 150 908 90 872 q 285 944 210 944 q 392 920 340 944 q 478 845 444 896 q 511 714 511 794 q 478 573 511 636 q 385 473 444 510 q 249 436 326 436 m 265 514 q 398 563 343 515 q 453 689 453 610 q 426 787 453 747 q 356 847 399 826 q 265 868 313 868 q 136 817 189 867 q 83 686 83 768 q 109 590 83 629 q 176 533 135 551 q 265 514 218 514 m 200 578 q 171 610 171 578 q 176 656 171 628 q 182 724 182 685 l 182 743 l 178 743 q 163 763 163 743 q 192 801 163 788 q 226 813 207 808 q 268 817 246 817 q 333 799 308 817 q 358 747 357 781 q 341 697 360 717 q 293 672 322 678 q 329 641 313 649 q 369 633 346 633 q 382 615 382 633 q 370 588 382 597 q 339 578 358 578 q 288 601 314 578 q 249 664 263 624 q 245 677 247 671 q 243 686 243 683 q 251 704 243 696 q 276 710 258 710 q 302 718 292 710 q 313 736 313 726 q 268 761 313 761 q 251 760 260 761 q 236 758 243 760 q 230 703 235 733 q 225 650 225 674 q 233 622 225 629 q 243 607 243 614 q 231 585 243 593 q 200 578 218 578 z "},"™":{"ha":758,"x_min":19,"x_max":749,"o":"m 308 544 q 283 561 283 544 q 290 639 283 594 q 307 724 297 683 q 324 791 314 760 q 342 838 335 822 q 374 885 356 871 q 414 899 393 899 q 449 889 431 899 q 471 844 468 879 q 481 759 474 804 q 497 694 488 714 q 506 688 499 688 q 517 694 513 688 q 540 747 526 711 q 561 810 553 782 q 598 875 575 851 q 654 899 621 899 q 694 885 682 899 q 707 838 707 872 q 706 821 707 831 q 706 800 706 811 q 703 771 704 786 q 703 740 703 756 q 709 663 703 704 q 738 599 715 622 q 745 590 742 594 q 749 579 749 585 q 729 556 749 565 q 682 546 710 546 q 642 583 653 546 q 632 632 635 606 q 629 683 629 658 q 631 728 629 707 q 635 765 633 749 q 637 785 636 775 q 638 800 638 794 q 628 817 638 817 q 610 792 617 817 q 587 720 600 758 q 561 660 574 682 q 527 620 546 629 q 489 611 508 611 q 446 626 460 611 q 425 657 432 640 q 412 718 417 681 q 404 800 407 756 q 394 813 404 813 q 383 801 388 813 q 365 734 374 771 q 357 653 357 697 q 358 627 357 639 q 360 606 358 615 q 362 590 361 597 q 363 575 363 582 q 342 551 363 558 q 308 544 321 544 m 140 544 q 110 550 122 544 q 99 582 99 556 q 101 608 99 593 q 106 642 103 624 q 113 699 110 668 q 117 763 117 731 q 117 789 117 776 q 115 814 117 801 q 83 810 97 813 q 57 804 68 807 q 42 801 50 803 q 29 799 33 799 q 22 801 25 799 q 19 813 19 803 q 23 842 19 824 q 32 869 26 861 q 45 883 39 881 q 58 888 51 886 q 117 894 79 890 q 190 897 156 897 q 255 897 235 897 q 278 894 275 896 q 289 875 289 890 q 285 851 289 865 q 278 828 282 836 q 250 813 268 813 q 226 813 243 813 q 189 815 208 814 q 178 727 183 776 q 172 650 172 678 q 176 617 172 632 q 190 592 181 603 q 197 578 197 585 q 179 554 197 564 q 140 544 161 544 z "},"°":{"ha":467,"x_min":67,"x_max":400,"o":"m 219 532 q 114 571 161 532 q 67 694 67 610 q 117 838 67 781 q 247 894 167 894 q 354 857 308 894 q 400 733 400 819 q 351 590 400 647 q 219 532 301 532 m 235 631 q 297 653 271 631 q 322 715 322 675 q 296 776 322 756 q 235 797 269 797 q 172 774 199 797 q 146 711 146 751 q 174 650 146 669 q 235 631 201 631 z "},"|":{"ha":342,"x_min":81,"x_max":258,"o":"m 150 -281 q 99 -264 118 -281 q 81 -196 81 -247 q 83 -127 81 -164 q 90 -39 85 -90 q 102 98 96 18 q 115 292 108 178 q 122 433 119 360 q 126 572 125 506 q 128 690 128 639 q 123 786 128 749 q 111 850 118 824 q 107 868 107 865 q 135 905 107 883 q 199 926 163 926 q 248 888 238 926 q 258 760 258 849 q 255 689 258 736 q 247 583 251 642 q 237 458 242 524 q 229 335 232 393 q 219 126 224 210 q 214 -10 215 43 q 213 -97 213 -62 q 217 -156 213 -131 q 225 -199 221 -182 q 229 -215 228 -207 q 231 -229 231 -222 q 208 -265 231 -249 q 150 -281 186 -281 z "},"¦":{"ha":342,"x_min":81,"x_max":258,"o":"m 181 438 q 138 447 153 438 q 124 483 122 457 q 127 594 126 540 q 128 690 128 649 q 122 794 128 760 q 111 847 115 829 q 107 868 107 860 q 135 905 107 883 q 199 926 163 926 q 248 888 238 926 q 258 760 258 849 q 253 648 258 726 q 239 482 247 569 q 220 446 236 454 q 181 438 204 438 m 154 -281 q 98 -264 115 -281 q 81 -196 81 -247 q 88 -46 81 -142 q 107 169 96 50 q 126 207 110 199 q 167 215 143 215 q 208 205 194 215 q 221 168 222 194 q 215 4 217 65 q 213 -97 213 -57 q 216 -153 213 -128 q 225 -197 219 -178 q 229 -214 228 -206 q 231 -229 231 -222 q 206 -265 231 -249 q 154 -281 182 -281 z "},"^":{"ha":693,"x_min":81,"x_max":617,"o":"m 581 414 q 553 424 567 414 q 516 459 540 432 q 462 522 492 486 q 402 594 432 558 q 351 656 372 629 q 296 593 326 628 q 235 525 265 558 q 181 467 206 492 q 144 433 157 442 q 115 422 129 422 q 91 433 101 422 q 81 464 81 444 q 83 489 81 475 q 94 517 86 503 q 134 583 107 542 q 193 668 161 624 q 253 749 225 713 q 293 799 281 785 q 357 833 328 833 q 396 822 378 833 q 424 794 414 810 q 460 745 435 782 q 517 663 486 708 q 572 574 547 617 q 607 504 597 531 q 615 479 614 490 q 617 458 617 468 q 606 426 617 439 q 581 414 596 414 z "},"´":{"ha":533,"x_min":215,"x_max":483,"o":"m 247 633 q 215 664 215 633 q 225 694 215 681 q 284 785 253 740 q 349 863 315 829 q 413 894 381 894 q 459 874 435 894 q 483 824 483 853 q 476 795 483 811 q 454 765 469 779 q 372 700 419 731 q 274 642 324 669 q 247 633 260 633 z "},"¸":{"ha":533,"x_min":115,"x_max":374,"o":"m 199 -342 q 140 -326 164 -342 q 115 -283 115 -311 q 135 -262 115 -262 q 210 -246 181 -262 q 240 -196 240 -229 q 204 -146 240 -161 q 181 -131 190 -139 q 171 -112 171 -122 q 174 -99 171 -106 q 183 -85 178 -93 q 214 -42 199 -69 q 236 8 229 -14 l 350 8 q 319 -31 336 -11 q 283 -69 303 -51 q 374 -175 374 -86 q 348 -258 374 -221 q 283 -319 322 -296 q 199 -342 243 -342 z "},"ˆ":{"ha":533,"x_min":64,"x_max":475,"o":"m 93 640 q 73 649 82 640 q 64 672 64 658 q 67 692 64 681 q 79 715 71 703 q 121 772 94 740 q 175 831 147 803 q 217 871 203 858 q 283 900 254 900 q 317 891 301 900 q 344 871 333 882 q 382 830 358 857 q 428 772 406 803 q 464 713 451 740 q 473 693 471 703 q 475 676 475 683 q 465 652 475 663 q 440 642 454 642 q 428 643 435 642 q 414 650 421 644 q 375 676 400 657 q 323 717 350 694 q 275 758 296 740 q 188 694 233 728 q 121 650 143 661 q 93 640 106 640 z "},"¨":{"ha":533,"x_min":44,"x_max":489,"o":"m 124 669 q 66 690 88 669 q 44 750 44 711 q 70 816 44 790 q 135 842 96 842 q 192 821 171 842 q 214 761 214 800 q 190 696 214 722 q 124 669 165 669 m 400 669 q 341 690 363 669 q 319 750 319 711 q 345 816 319 790 q 411 842 371 842 q 468 821 447 842 q 489 761 489 800 q 465 696 489 722 q 400 669 440 669 z "},"`":{"ha":533,"x_min":56,"x_max":324,"o":"m 292 633 q 265 642 281 633 q 168 700 215 669 q 85 765 121 731 q 63 795 71 779 q 56 824 56 811 q 80 874 56 853 q 126 894 104 894 q 190 863 158 894 q 255 785 224 829 q 315 694 286 740 q 321 679 318 688 q 324 664 324 671 q 292 633 324 633 z "},"¯":{"ha":533,"x_min":68,"x_max":465,"o":"m 97 685 q 77 698 86 683 q 68 735 68 713 q 74 772 68 754 q 99 797 81 790 q 148 805 111 801 q 233 810 185 808 q 326 814 281 813 q 400 815 371 815 q 449 808 432 815 q 465 772 465 800 q 456 714 465 744 q 426 685 446 683 q 352 690 397 688 q 258 690 307 692 q 172 689 221 690 q 97 685 124 688 z "},"˚":{"ha":533,"x_min":108,"x_max":424,"o":"m 257 636 q 149 674 189 636 q 108 781 108 713 q 155 901 108 856 q 278 947 201 947 q 384 909 344 947 q 424 804 424 871 q 379 683 424 731 q 257 636 335 636 m 276 735 q 322 749 304 735 q 340 786 340 764 q 318 831 340 813 q 257 849 296 849 q 210 833 228 849 q 192 794 192 818 q 215 751 192 768 q 276 735 238 735 z "},"˜":{"ha":533,"x_min":47,"x_max":486,"o":"m 89 664 q 58 684 69 664 q 47 729 47 704 q 81 808 47 771 q 175 844 114 844 q 283 817 225 844 q 329 795 306 806 q 374 785 353 785 q 405 797 396 785 q 417 824 414 810 q 425 842 419 835 q 442 850 431 850 q 473 830 460 850 q 486 783 486 810 q 450 701 486 739 q 357 664 414 664 q 306 672 332 664 q 253 692 279 679 q 203 716 226 707 q 160 725 179 725 q 128 714 138 725 q 117 690 119 703 q 108 672 114 681 q 89 664 103 664 z "}}}
